<svg width="16" height="12" viewBox="0 0 16 12" fill="none" xmlns="http://www.w3.org/2000/svg">
<g clip-path="url(#clip0_1671_1851)">
<g clip-path="url(#clip1_1671_1851)">
<rect width="16" height="12" fill="white"/>
<path fill-rule="evenodd" clip-rule="evenodd" d="M0 0H16V12H0V0Z" fill="#2E42A5"/>
<g clip-path="url(#clip2_1671_1851)">
<rect width="9" height="7" fill="#2E42A5"/>
<path d="M-1.0022 6.49993L0.978278 7.36853L9.04488 0.944391L10.0895 -0.346375L7.9717 -0.636686L4.68153 2.13166L2.03327 3.99688L-1.0022 6.49993Z" fill="#F7FCFF"/>
<path d="M-0.730957 7.10849L0.278004 7.61255L9.71451 -0.466309H8.29782L-0.730957 7.10849Z" fill="#F50100"/>
<path d="M10.0022 6.49993L8.02172 7.36853L-0.0448761 0.944391L-1.08953 -0.346375L1.0283 -0.636686L4.31847 2.13166L6.96673 3.99688L10.0022 6.49993Z" fill="#F7FCFF"/>
<path d="M9.93457 6.93667L8.92561 7.44073L4.90745 3.98176L3.71615 3.59529L-1.1901 -0.341973H0.226597L5.13009 3.50184L6.43256 3.96525L9.93457 6.93667Z" fill="#F50100"/>
<path fill-rule="evenodd" clip-rule="evenodd" d="M4.99226 0H3.99226V3H0V4H3.99226V7H4.99226V4H9V3H4.99226V0Z" fill="#F50100"/>
<path fill-rule="evenodd" clip-rule="evenodd" d="M3.24226 -0.75H5.74226V2.25H9.75V4.75H5.74226V7.75H3.24226V4.75H-0.75V2.25H3.24226V-0.75ZM3.99226 3H0V4H3.99226V7H4.99226V4H9V3H4.99226V0H3.99226V3Z" fill="#F7FCFF"/>
</g>
<g clip-path="url(#clip3_1671_1851)">
<path d="M4.40792 9.83423L3.81749 10.3799L3.87596 9.57805L3.08124 9.45664L3.74458 9.00243L3.344 8.30538L4.1127 8.54081L4.40792 7.79303L4.70313 8.54081L5.47184 8.30538L5.07126 9.00243L5.7346 9.45664L4.93988 9.57805L4.99835 10.3799L4.40792 9.83423Z" fill="#F7FCFF"/>
<path d="M10.7761 6.06899L10.3825 6.43275L10.4215 5.89821L9.89164 5.81726L10.3339 5.51446L10.0668 5.04976L10.5793 5.20671L10.7761 4.70819L10.9729 5.20671L11.4854 5.04976L11.2183 5.51446L11.6606 5.81726L11.1307 5.89821L11.1697 6.43275L10.7761 6.06899Z" fill="#F7FCFF"/>
<path d="M11.7146 2.37667L11.321 2.74043L11.3599 2.20588L10.8301 2.12494L11.2723 1.82213L11.0053 1.35744L11.5178 1.51439L11.7146 1.01587L11.9114 1.51439L12.4239 1.35744L12.1568 1.82213L12.599 2.12494L12.0692 2.20588L12.1082 2.74043L11.7146 2.37667Z" fill="#F7FCFF"/>
<path d="M14.0613 4.22286L13.6676 4.58662L13.7066 4.05208L13.1768 3.97113L13.619 3.66833L13.352 3.20363L13.8644 3.36058L14.0613 2.86206L14.2581 3.36058L14.7705 3.20363L14.5035 3.66833L14.9457 3.97113L14.4159 4.05208L14.4549 4.58662L14.0613 4.22286Z" fill="#F7FCFF"/>
<path d="M12.1841 9.53054L11.7904 9.8943L11.8294 9.35975L11.2996 9.27881L11.7418 8.976L11.4748 8.51131L11.9872 8.66826L12.1841 8.16974L12.3809 8.66826L12.8933 8.51131L12.6263 8.976L13.0685 9.27881L12.5387 9.35975L12.5777 9.8943L12.1841 9.53054Z" fill="#F7FCFF"/>
<path d="M13.8266 6.64792L13.4267 6.85817L13.5031 6.41285L13.1795 6.09746L13.6267 6.03249L13.8266 5.62732L14.0266 6.03249L14.4737 6.09746L14.1502 6.41285L14.2266 6.85817L13.8266 6.64792Z" fill="#F7FCFF"/>
</g>
</g>
<rect width="16" height="12" fill="url(#paint0_linear_1671_1851)" style="mix-blend-mode:overlay"/>
</g>
<rect x="0.5" y="0.5" width="15" height="11" rx="0.5" stroke="black" stroke-opacity="0.1" style="mix-blend-mode:multiply"/>
<defs>
<linearGradient id="paint0_linear_1671_1851" x1="8" y1="0" x2="8" y2="12" gradientUnits="userSpaceOnUse">
<stop stop-color="white" stop-opacity="0.7"/>
<stop offset="1" stop-opacity="0.3"/>
</linearGradient>
<clipPath id="clip0_1671_1851">
<rect width="16" height="12" rx="1" fill="white"/>
</clipPath>
<clipPath id="clip1_1671_1851">
<rect width="16" height="12" fill="white"/>
</clipPath>
<clipPath id="clip2_1671_1851">
<rect width="9" height="7" fill="white"/>
</clipPath>
<clipPath id="clip3_1671_1851">
<rect width="12" height="10" fill="white" transform="translate(3 1)"/>
</clipPath>
</defs>
</svg>
