<svg width="14" height="15" viewBox="0 0 14 15" fill="none" xmlns="http://www.w3.org/2000/svg">
<path fill-rule="evenodd" clip-rule="evenodd" d="M12.8335 7.49999C12.8335 4.27833 10.2218 1.66666 7.00016 1.66666C3.7785 1.66666 1.16683 4.27833 1.16683 7.49999C1.16683 10.7216 3.7785 13.3333 7.00016 13.3333C10.2218 13.3333 12.8335 10.7216 12.8335 7.49999ZM9.74597 7.08751C9.97378 7.31532 9.97378 7.68466 9.74597 7.91247L7.41264 10.2458C7.30325 10.3552 7.15487 10.4167 7.00016 10.4167C6.84545 10.4167 6.69708 10.3552 6.58768 10.2458L4.25435 7.91247C4.02654 7.68466 4.02654 7.31532 4.25435 7.08751C4.48216 6.8597 4.8515 6.8597 5.07931 7.08751L6.41683 8.42503L6.41683 5.16666C6.41683 4.84449 6.678 4.58332 7.00016 4.58332C7.32233 4.58332 7.5835 4.84449 7.5835 5.16666L7.5835 8.42503L8.92102 7.08751C9.14882 6.8597 9.51817 6.8597 9.74597 7.08751Z" fill="#812BE0"/>
</svg>
