<svg width="14" height="15" viewBox="0 0 14 15" fill="none" xmlns="http://www.w3.org/2000/svg">
<path fill-rule="evenodd" clip-rule="evenodd" d="M1.16687 7.50001C1.16687 10.7217 3.77854 13.3333 7.0002 13.3333C10.2219 13.3333 12.8335 10.7217 12.8335 7.50001C12.8335 4.27835 10.2219 1.66668 7.0002 1.66668C3.77854 1.66668 1.16687 4.27835 1.16687 7.50001ZM4.25439 7.91249C4.02659 7.68468 4.02659 7.31534 4.25439 7.08753L6.58772 4.7542C6.69712 4.6448 6.84549 4.58334 7.0002 4.58334C7.15491 4.58334 7.30329 4.6448 7.41268 4.7542L9.74602 7.08753C9.97382 7.31534 9.97382 7.68468 9.74602 7.91249C9.51821 8.1403 9.14886 8.1403 8.92106 7.91249L7.58354 6.57497L7.58354 9.83334C7.58354 10.1555 7.32237 10.4167 7.0002 10.4167C6.67804 10.4167 6.41687 10.1555 6.41687 9.83334L6.41687 6.57497L5.07935 7.91249C4.85154 8.1403 4.4822 8.1403 4.25439 7.91249Z" fill="#812BE0"/>
</svg>
