<svg width="20" height="20" viewBox="0 0 20 20" fill="none" xmlns="http://www.w3.org/2000/svg">
<path fill-rule="evenodd" clip-rule="evenodd" d="M9.99968 18.3333C14.602 18.3333 18.333 14.6024 18.333 9.99998C18.333 5.39761 14.602 1.66665 9.99967 1.66665C5.3973 1.66665 1.66634 5.39761 1.66634 9.99998C1.66634 14.6024 5.3973 18.3333 9.99968 18.3333ZM10.5889 13.9226C10.2635 14.248 9.73586 14.248 9.41042 13.9226L6.07709 10.5892C5.92081 10.433 5.83301 10.221 5.83301 9.99998C5.83301 9.77897 5.92081 9.56701 6.07709 9.41073L9.41042 6.07739C9.73586 5.75195 10.2635 5.75195 10.5889 6.07739C10.9144 6.40283 10.9144 6.93047 10.5889 7.2559L8.67819 9.16665L13.333 9.16665C13.7932 9.16665 14.1663 9.53974 14.1663 9.99998C14.1663 10.4602 13.7932 10.8333 13.333 10.8333L8.67819 10.8333L10.5889 12.7441C10.9144 13.0695 10.9144 13.5971 10.5889 13.9226Z" fill="white"/>
</svg>
