<svg width="20" height="20" viewBox="0 0 20 20" fill="none" xmlns="http://www.w3.org/2000/svg">
<path fill-rule="evenodd" clip-rule="evenodd" d="M10.0003 1.66667C5.39795 1.66667 1.66699 5.39763 1.66699 10C1.66699 14.6024 5.39795 18.3333 10.0003 18.3333C14.6027 18.3333 18.3337 14.6024 18.3337 10C18.3337 5.39763 14.6027 1.66667 10.0003 1.66667ZM9.41107 6.07742C9.7365 5.75198 10.2641 5.75198 10.5896 6.07742L13.9229 9.41075C14.0792 9.56703 14.167 9.77899 14.167 10C14.167 10.221 14.0792 10.433 13.9229 10.5893L10.5896 13.9226C10.2641 14.248 9.7365 14.248 9.41107 13.9226C9.08563 13.5972 9.08563 13.0695 9.41107 12.7441L11.3218 10.8333H6.66699C6.20675 10.8333 5.83366 10.4602 5.83366 10C5.83366 9.53977 6.20675 9.16667 6.66699 9.16667H11.3218L9.41107 7.25593C9.08563 6.93049 9.08563 6.40285 9.41107 6.07742Z" fill="white"/>
</svg>
