<svg width="14" height="15" viewBox="0 0 14 15" fill="none" xmlns="http://www.w3.org/2000/svg">
<path fill-rule="evenodd" clip-rule="evenodd" d="M7 1.0625C6.72693 1.0625 6.47625 1.2135 6.34859 1.45488C6.34515 1.46138 6.34186 1.46795 6.33871 1.47459L4.07339 6.25646C3.89784 6.57482 3.4518 6.60405 3.23564 6.31445L1.70475 3.60561C1.69731 3.59243 1.68927 3.5796 1.68066 3.56716C1.51715 3.33079 1.23942 3.23198 0.983971 3.28553C0.72022 3.34082 0.495678 3.55758 0.462704 3.86578C0.348408 4.93408 0.25 6.04714 0.25 7.1875C0.25 8.32785 0.348408 9.44091 0.462704 10.5092C0.641908 12.1842 1.98532 13.5265 3.65727 13.7128C4.73112 13.8325 5.85168 13.9375 7 13.9375C8.14832 13.9375 9.26888 13.8325 10.3427 13.7128C12.0147 13.5265 13.3581 12.1842 13.5373 10.5092C13.6516 9.44091 13.75 8.32785 13.75 7.1875C13.75 6.04714 13.6516 4.93408 13.5373 3.86578C13.5043 3.55758 13.2798 3.34082 13.016 3.28553C12.7606 3.23198 12.4828 3.33079 12.3193 3.56716C12.3107 3.5796 12.3027 3.59243 12.2952 3.60561L10.7644 6.31445C10.5482 6.60405 10.1022 6.57482 9.92662 6.25646L7.66129 1.47459C7.65814 1.46795 7.65485 1.46138 7.65141 1.45488C7.52375 1.2135 7.27306 1.0625 7 1.0625Z" fill="#812BE0"/>
</svg>
