<svg width="20" height="20" viewBox="0 0 20 20" fill="none" xmlns="http://www.w3.org/2000/svg">
<g clip-path="url(#clip0_4_18106)">
<path fill-rule="evenodd" clip-rule="evenodd" d="M19.2329 13.8457C19.2329 18.0914 15.3858 20 10.0001 20C4.61435 20 0.767212 18.0914 0.767212 13.8757C0.767212 9.25997 3.07578 6.9214 7.6915 4.58282L6.05721 1.53854C5.9597 1.38606 5.9054 1.20997 5.90011 1.02906C5.89481 0.848143 5.93871 0.669182 6.02713 0.511257C6.11555 0.353333 6.24517 0.222366 6.40218 0.132322C6.55918 0.0422785 6.73768 -0.00346603 6.91864 -3.37487e-05H13.4429C13.6125 0.00430623 13.7783 0.0517331 13.9245 0.137783C14.0707 0.223833 14.1927 0.345677 14.2788 0.491846C14.365 0.638016 14.4125 0.803705 14.417 0.973319C14.4215 1.14293 14.3827 1.31089 14.3044 1.46139L12.3086 4.58282C16.9229 6.88997 19.2329 9.22854 19.2329 13.8457ZM10.8929 6.9814C10.8929 6.7446 10.7989 6.51749 10.6314 6.35005C10.464 6.18261 10.2369 6.08854 10.0001 6.08854C9.76327 6.08854 9.53617 6.18261 9.36872 6.35005C9.20128 6.51749 9.10721 6.7446 9.10721 6.9814V7.87711C8.50205 7.90042 7.92621 8.14387 7.48784 8.56172C7.04947 8.97958 6.77873 9.5431 6.72646 10.1465C6.6742 10.7498 6.844 11.3515 7.20398 11.8385C7.56396 12.3255 8.08936 12.6644 8.6815 12.7914L10.7858 13.2514C11.0015 13.2978 11.1923 13.4225 11.3215 13.6013C11.4508 13.7801 11.5092 14.0004 11.4856 14.2198C11.462 14.4391 11.358 14.642 11.1937 14.7892C11.0294 14.9364 10.8164 15.0176 10.5958 15.0171H9.40436C9.21965 15.0174 9.0394 14.9604 8.88845 14.854C8.73749 14.7475 8.62326 14.5969 8.5615 14.4228C8.52543 14.3086 8.46675 14.2028 8.38895 14.1118C8.31115 14.0207 8.21582 13.9462 8.10864 13.8927C8.00146 13.8393 7.88462 13.8079 7.76508 13.8005C7.64553 13.7932 7.52572 13.8099 7.41278 13.8498C7.29984 13.8897 7.19608 13.9519 7.10768 14.0327C7.01927 14.1135 6.94803 14.2113 6.8982 14.3202C6.84836 14.4291 6.82094 14.5469 6.81759 14.6667C6.81423 14.7864 6.83499 14.9056 6.87864 15.0171C7.04657 15.4916 7.34462 15.9092 7.73873 16.2222C8.13283 16.5352 8.60707 16.731 9.10721 16.7871V17.6957C9.10721 17.9325 9.20128 18.1596 9.36872 18.327C9.53617 18.4945 9.76327 18.5885 10.0001 18.5885C10.2369 18.5885 10.464 18.4945 10.6314 18.327C10.7989 18.1596 10.8929 17.9325 10.8929 17.6957V16.7871C11.5233 16.7155 12.1078 16.4225 12.5424 15.9604C12.9771 15.4982 13.2337 14.8969 13.2666 14.2633C13.2995 13.6297 13.1066 13.005 12.7222 12.5003C12.3378 11.9956 11.7868 11.6437 11.1672 11.5071L9.06293 11.0471C8.8922 11.0122 8.74065 10.9148 8.6379 10.774C8.53516 10.6333 8.48861 10.4593 8.50737 10.286C8.52612 10.1127 8.60883 9.95271 8.73931 9.8372C8.8698 9.72169 9.03868 9.659 9.21293 9.6614H10.5958C10.7806 9.66047 10.9612 9.71723 11.1123 9.82375C11.2633 9.93027 11.3774 10.0813 11.4386 10.2557C11.5217 10.4734 11.6867 10.65 11.8982 10.7478C12.1097 10.8456 12.3511 10.8568 12.5708 10.779C12.7904 10.7012 12.971 10.5407 13.0739 10.3316C13.1768 10.1225 13.1939 9.88147 13.1215 9.65997C12.9538 9.18552 12.6558 8.76795 12.2616 8.45514C11.8674 8.14233 11.3931 7.94694 10.8929 7.8914V6.9814Z" fill="#812BE0"/>
</g>
<defs>
<clipPath id="clip0_4_18106">
<rect width="20" height="20" fill="white"/>
</clipPath>
</defs>
</svg>
