<svg width="17" height="16" viewBox="0 0 17 16" fill="none" xmlns="http://www.w3.org/2000/svg">
<path d="M7.54093 13.1667H10.2076C10.2076 13.8333 9.72959 14.5 8.87426 14.5C8.01893 14.5 7.54093 13.8333 7.54093 13.1667ZM14.3689 10.3499L13.6316 9.1193C13.3523 8.6533 13.2049 8.11996 13.2049 7.57796V5.82666C13.2049 3.44066 11.2623 1.5 8.87493 1.5C6.4876 1.5 4.54492 3.44066 4.54492 5.82666V7.57796C4.54492 8.11996 4.39759 8.6533 4.11826 9.1193L3.38092 10.3499C3.15559 10.7246 3.15026 11.1766 3.36626 11.5579C3.58226 11.9393 3.97292 12.1667 4.41092 12.1667H13.3403C13.7789 12.1667 14.1696 11.9386 14.3856 11.5579C14.5996 11.1773 14.5943 10.7253 14.3689 10.3499Z" fill="#A29ACF"/>
</svg>
