<svg width="12" height="9" viewBox="0 0 12 9" fill="none" xmlns="http://www.w3.org/2000/svg">
<path fill-rule="evenodd" clip-rule="evenodd" d="M11.6667 0.5C11.6667 0.776142 11.4428 1 11.1667 1L0.500021 1C0.223879 1 2.09808e-05 0.776142 2.09808e-05 0.5C2.09808e-05 0.223858 0.223879 0 0.500021 0L11.1667 0C11.4428 0 11.6667 0.223858 11.6667 0.5Z" fill="white"/>
<path fill-rule="evenodd" clip-rule="evenodd" d="M11.6667 4.5C11.6667 4.77614 11.4428 5 11.1667 5L0.500021 5C0.223879 5 2.09808e-05 4.77614 2.09808e-05 4.5C2.09808e-05 4.22386 0.223879 4 0.500021 4L11.1667 4C11.4428 4 11.6667 4.22386 11.6667 4.5Z" fill="white"/>
<path fill-rule="evenodd" clip-rule="evenodd" d="M11.6667 8.5C11.6667 8.77614 11.4428 9 11.1667 9H0.500021C0.223879 9 2.09808e-05 8.77614 2.09808e-05 8.5C2.09808e-05 8.22386 0.223879 8 0.500021 8H11.1667C11.4428 8 11.6667 8.22386 11.6667 8.5Z" fill="white"/>
</svg>
