<svg width="20" height="20" viewBox="0 0 20 20" fill="none" xmlns="http://www.w3.org/2000/svg">
<g clip-path="url(#clip0_15_177)">
<path fill-rule="evenodd" clip-rule="evenodd" d="M7.86206 2.89759C8.76779 2.85241 9.51468 2.83546 10.0001 2.83546C10.4837 2.83546 11.2269 2.85228 12.1282 2.89709V1.30715C12.1282 0.715413 12.6079 0.235718 13.1997 0.235718C13.7914 0.235718 14.2711 0.715412 14.2711 1.30715V3.04062C14.6077 3.06899 14.9529 3.1009 15.3032 3.13668C17.5167 3.36278 19.2636 5.10549 19.4533 7.33839C19.5982 9.0422 19.6429 10.593 19.6429 11.3015C19.6429 12.01 19.5982 13.559 19.4535 15.2615C19.2636 17.4944 17.5167 19.2371 15.3032 19.4632C13.032 19.6951 10.9815 19.7642 10.0001 19.7642C9.01862 19.7642 6.96813 19.6951 4.69699 19.4632C2.48338 19.2371 0.736579 17.4944 0.546675 15.2615C0.401879 13.559 0.357178 12.01 0.357178 11.3015C0.357178 10.593 0.401895 9.04218 0.546755 7.33838C0.736599 5.10549 2.48338 3.36278 4.69698 3.13668C5.04388 3.10125 5.38562 3.06962 5.71921 3.04145V1.30715C5.71921 0.715413 6.19889 0.235718 6.79063 0.235718C7.38236 0.235718 7.86206 0.715412 7.86206 1.30715V2.89759ZM5.00003 7.98475C4.50692 7.98475 4.10718 8.38449 4.10718 8.87761C4.10718 9.37071 4.50692 9.77046 5.00003 9.77046H5.71432C6.20743 9.77046 6.60718 9.37071 6.60718 8.87761C6.60718 8.38449 6.20743 7.98475 5.71432 7.98475H5.00003ZM4.10718 13.1633C4.10718 12.6702 4.50692 12.2705 5.00003 12.2705H5.71432C6.20743 12.2705 6.60718 12.6702 6.60718 13.1633C6.60718 13.6564 6.20743 14.0562 5.71432 14.0562H5.00003C4.50692 14.0562 4.10718 13.6564 4.10718 13.1633ZM9.64289 7.98475C9.14978 7.98475 8.75003 8.38449 8.75003 8.87761C8.75003 9.37071 9.14978 9.77046 9.64289 9.77046H10.3572C10.8503 9.77046 11.25 9.37071 11.25 8.87761C11.25 8.38449 10.8503 7.98475 10.3572 7.98475H9.64289ZM13.3929 8.87761C13.3929 8.38449 13.7926 7.98475 14.2857 7.98475H15C15.4932 7.98475 15.8929 8.38449 15.8929 8.87761C15.8929 9.37071 15.4932 9.77046 15 9.77046H14.2857C13.7926 9.77046 13.3929 9.37071 13.3929 8.87761ZM9.64289 12.2705C9.14978 12.2705 8.75003 12.6702 8.75003 13.1633C8.75003 13.6564 9.14978 14.0562 9.64289 14.0562H10.3572C10.8503 14.0562 11.25 13.6564 11.25 13.1633C11.25 12.6702 10.8503 12.2705 10.3572 12.2705H9.64289Z" fill="#812BE0"/>
</g>
<defs>
<clipPath id="clip0_15_177">
<rect width="20" height="20" fill="white"/>
</clipPath>
</defs>
</svg>
