<svg width="10" height="10" viewBox="0 0 10 10" fill="none" xmlns="http://www.w3.org/2000/svg">
<g clip-path="url(#clip0_489_124263)">
<path d="M5.00004 0.833374C2.70421 0.833374 0.833374 2.70421 0.833374 5.00004C0.833374 7.29587 2.70421 9.16671 5.00004 9.16671C7.29587 9.16671 9.16671 7.29587 9.16671 5.00004C9.16671 2.70421 7.29587 0.833374 5.00004 0.833374ZM6.96254 4.46252L4.8792 6.54586C4.79587 6.62502 4.69171 6.66671 4.58337 6.66671C4.47504 6.66671 4.37088 6.62502 4.28754 6.54586L3.03754 5.29586C2.87504 5.13336 2.87504 4.86672 3.03754 4.70422C3.20004 4.54172 3.4667 4.54172 3.6292 4.70422L4.58337 5.66258L6.37088 3.87089C6.53338 3.70839 6.80004 3.70839 6.96254 3.87089C7.12504 4.03339 7.12504 4.30002 6.96254 4.46252Z" fill="#1DA025"/>
</g>
<defs>
<clipPath id="clip0_489_124263">
<rect width="10" height="10" fill="white"/>
</clipPath>
</defs>
</svg>
