<svg width="16" height="16" viewBox="0 0 16 16" fill="none" xmlns="http://www.w3.org/2000/svg">
<path fill-rule="evenodd" clip-rule="evenodd" d="M1.66663 7.99996C1.66663 4.50663 4.50663 1.66663 7.99996 1.66663C11.4933 1.66663 14.3333 4.50663 14.3333 7.99996C14.3333 11.4933 11.4933 14.3333 7.99996 14.3333C4.50663 14.3333 1.66663 11.4933 1.66663 7.99996ZM5.29285 10.9854C4.90233 10.5949 4.90233 9.96172 5.29285 9.57119L6.72492 8.13913L5.29285 6.70707C4.90233 6.31654 4.90233 5.68338 5.29285 5.29285C5.68338 4.90233 6.31654 4.90233 6.70707 5.29285L8.13913 6.72492L9.57119 5.29285C9.96172 4.90233 10.5949 4.90233 10.9854 5.29285C11.3759 5.68338 11.3759 6.31654 10.9854 6.70707L9.55334 8.13913L10.9854 9.57119C11.3759 9.96172 11.3759 10.5949 10.9854 10.9854C10.5949 11.3759 9.96171 11.3759 9.57119 10.9854L8.13913 9.55334L6.70707 10.9854C6.31654 11.3759 5.68338 11.3759 5.29285 10.9854Z" fill="#D46060"/>
</svg>
