<svg width="20" height="20" viewBox="0 0 20 20" fill="none" xmlns="http://www.w3.org/2000/svg">
<path d="M10 2.08337C5.63337 2.08337 2.08337 5.63337 2.08337 10C2.08337 14.3667 5.63337 17.9167 10 17.9167C14.3667 17.9167 17.9167 14.3667 17.9167 10C17.9167 5.63337 14.3667 2.08337 10 2.08337ZM13.3334 10.8334H10C9.54171 10.8334 9.16671 10.4584 9.16671 10V5.83337C9.16671 5.37504 9.54171 5.00004 10 5.00004C10.4584 5.00004 10.8334 5.37504 10.8334 5.83337V9.16671H13.3334C13.7917 9.16671 14.1667 9.54171 14.1667 10C14.1667 10.4584 13.7917 10.8334 13.3334 10.8334Z" fill="#812BE0"/>
</svg>
