<svg width="14" height="14" viewBox="0 0 14 14" fill="none" xmlns="http://www.w3.org/2000/svg">
<path fill-rule="evenodd" clip-rule="evenodd" d="M3.61024 2.54956C3.31735 2.25667 2.84247 2.25667 2.54958 2.54956C2.25669 2.84246 2.25669 3.31733 2.54958 3.61023L5.93934 6.99999L2.54958 10.3897C2.25669 10.6826 2.25669 11.1575 2.54958 11.4504C2.84247 11.7433 3.31735 11.7433 3.61024 11.4504L7 8.06065L10.3897 11.4504C10.6826 11.7433 11.1575 11.7433 11.4504 11.4504C11.7433 11.1575 11.7433 10.6826 11.4504 10.3897L8.06066 6.99999L11.4504 3.61024C11.7433 3.31734 11.7433 2.84247 11.4504 2.54957C11.1575 2.25668 10.6826 2.25668 10.3897 2.54957L7 5.93933L3.61024 2.54956Z" fill="#A29ACF"/>
</svg>
