<svg width="20" height="20" viewBox="0 0 20 20" fill="none" xmlns="http://www.w3.org/2000/svg">
<path d="M11.2499 10C11.2499 10.6917 10.6916 11.25 9.99992 11.25C9.30825 11.25 8.74992 10.6917 8.74992 10C8.74992 9.30834 9.30825 8.75001 9.99992 8.75001C10.6916 8.75001 11.2499 9.30834 11.2499 10ZM17.9166 10C17.9166 14.3667 14.3666 17.9167 9.99992 17.9167C5.63325 17.9167 2.08325 14.3667 2.08325 10C2.08325 5.63334 5.63325 2.08334 9.99992 2.08334C14.3666 2.08334 17.9166 5.63334 17.9166 10ZM13.9083 6.09173C13.5916 5.78339 13.1499 5.65828 12.7166 5.76661L9.34158 6.60829C7.99158 6.94995 6.94991 7.99164 6.60825 9.34164L5.7666 12.7167C5.65826 13.15 5.78325 13.5916 6.09158 13.9083C6.33325 14.1416 6.64991 14.2749 6.97491 14.2749C7.07491 14.2749 7.18324 14.2584 7.28324 14.2334L10.6583 13.3917C12.0083 13.0501 13.0499 12.0084 13.3916 10.6584L14.2332 7.28334C14.3416 6.85 14.2166 6.40839 13.9083 6.09173Z" fill="#812BE0"/>
</svg>
