<svg width="14" height="14" viewBox="0 0 14 14" fill="none" xmlns="http://www.w3.org/2000/svg">
<path d="M6.41675 11.3748H9.74175C9.39759 12.2323 8.56341 12.8332 7.58341 12.8332H3.50008C2.21091 12.8332 1.16675 11.789 1.16675 10.4998V5.83317C1.16675 4.64317 2.05925 3.66319 3.20841 3.51735V8.1665C3.20841 9.934 4.64925 11.3748 6.41675 11.3748ZM11.3751 3.64567H12.6117C12.5767 3.59317 12.5359 3.5465 12.4892 3.49984L10.5001 1.51072C10.4534 1.46406 10.4067 1.42311 10.3542 1.39394V2.62484C10.3542 3.18484 10.8151 3.64567 11.3751 3.64567ZM11.3751 4.52067C10.3309 4.52067 9.47925 3.669 9.47925 2.62484V1.1665H6.41675C5.12758 1.1665 4.08341 2.21067 4.08341 3.49984V8.1665C4.08341 9.45567 5.12758 10.4998 6.41675 10.4998H10.5001C11.7892 10.4998 12.8334 9.45567 12.8334 8.1665V4.52067H11.3751Z" fill="#812BE0"/>
</svg>
