<svg width="16" height="16" viewBox="0 0 16 16" fill="none" xmlns="http://www.w3.org/2000/svg">
<path fill-rule="evenodd" clip-rule="evenodd" d="M7.49835 2.04956C7.49835 1.65399 7.17768 1.33331 6.78211 1.33331C6.38655 1.33331 6.06587 1.65399 6.06587 2.04956V3.16527C6.06587 3.56083 6.38655 3.88151 6.78211 3.88151C7.17768 3.88151 7.49835 3.56083 7.49835 3.16527V2.04956ZM10.0153 4.75947C7.93509 4.63405 5.79422 4.63405 3.71396 4.75947C3.02289 4.80113 2.448 5.34436 2.41357 6.0591C2.38407 6.67151 2.386 7.30473 2.38792 7.93761C2.3884 8.09418 2.38887 8.25073 2.38887 8.40695C2.38887 8.67268 2.40021 8.93453 2.41873 9.19161C2.53607 10.8212 3.9116 12.0972 5.50907 12.2142C5.95082 12.2466 6.40365 12.2688 6.86465 12.2688C7.32566 12.2688 7.77848 12.2466 8.22023 12.2142C9.32492 12.1333 10.3235 11.4982 10.8732 10.5751C11.0488 10.5706 11.2264 10.5628 11.4033 10.5531C12.6882 10.4828 14.0012 9.47517 14.0012 8.0049C14.0012 6.53332 12.6865 5.52967 11.4037 5.45857C11.314 5.45359 11.2245 5.4491 11.1357 5.44521C10.9078 5.05197 10.4888 4.788 10.0153 4.75947ZM11.325 9.1228L11.3154 9.12332C11.331 8.88821 11.3405 8.64919 11.3405 8.40695C11.3405 8.25084 11.3409 8.09439 11.3414 7.93792V7.93786V7.93779V7.93773V7.93767V7.93761V7.93749C11.3425 7.58716 11.3435 7.23671 11.3392 6.88976C12.0488 6.93615 12.5687 7.47703 12.5687 8.0049C12.5687 8.53775 12.0403 9.08364 11.325 9.1228ZM14.2738 13.9504C14.2738 14.346 13.9532 14.6666 13.5576 14.6666H2.04962C1.65405 14.6666 1.33337 14.346 1.33337 13.9504C1.33337 13.5548 1.65405 13.2342 2.04962 13.2342H13.5576C13.9532 13.2342 14.2738 13.5548 14.2738 13.9504ZM3.8838 1.33331C4.27937 1.33331 4.60005 1.65399 4.60005 2.04956V3.16527C4.60005 3.56083 4.27937 3.88151 3.8838 3.88151C3.48824 3.88151 3.16756 3.56083 3.16756 3.16527V2.04956C3.16756 1.65399 3.48824 1.33331 3.8838 1.33331ZM10.3967 2.04956C10.3967 1.65399 10.076 1.33331 9.68042 1.33331C9.28485 1.33331 8.96418 1.65399 8.96418 2.04956V3.16527C8.96418 3.56083 9.28485 3.88151 9.68042 3.88151C10.076 3.88151 10.3967 3.56083 10.3967 3.16527V2.04956Z" fill="white"/>
</svg>
