<svg width="20" height="20" viewBox="0 0 20 20" fill="none" xmlns="http://www.w3.org/2000/svg">
<g clip-path="url(#clip0_5_38619)">
<path fill-rule="evenodd" clip-rule="evenodd" d="M2.14286 1.42871C1.57454 1.42871 1.02949 1.65448 0.627628 2.05634C0.225765 2.4582 0 3.00325 0 3.57157L0 13.5716C0 14.1399 0.225765 14.6849 0.627628 15.0868C1.02949 15.4887 1.57454 15.7144 2.14286 15.7144H7.83571L7.06857 17.8573H5.71429C5.43013 17.8573 5.1576 17.9702 4.95667 18.1711C4.75574 18.372 4.64286 18.6446 4.64286 18.9287C4.64286 19.2129 4.75574 19.4854 4.95667 19.6863C5.1576 19.8873 5.43013 20.0001 5.71429 20.0001H14.2857C14.5699 20.0001 14.8424 19.8873 15.0433 19.6863C15.2443 19.4854 15.3571 19.2129 15.3571 18.9287C15.3571 18.6446 15.2443 18.372 15.0433 18.1711C14.8424 17.9702 14.5699 17.8573 14.2857 17.8573H12.9314L12.1643 15.7144H12.8571C13.236 15.7144 13.5994 15.5639 13.8673 15.296C14.1352 15.0281 14.2857 14.6647 14.2857 14.2859C14.2857 13.907 14.1352 13.5436 13.8673 13.2757C13.5994 13.0078 13.236 12.8573 12.8571 12.8573H2.85714V4.28585H10C10.3789 4.28585 10.7422 4.13534 11.0102 3.86744C11.2781 3.59953 11.4286 3.23616 11.4286 2.85728C11.4286 2.4784 11.2781 2.11504 11.0102 1.84713C10.7422 1.57922 10.3789 1.42871 10 1.42871H2.14286Z" fill="#812BE0"/>
<path fill-rule="evenodd" clip-rule="evenodd" d="M16.547 0C16.8312 0 17.1037 0.112882 17.3046 0.313814C17.5056 0.514746 17.6185 0.787268 17.6185 1.07143V1.82571C18.121 1.91026 18.5917 2.12773 18.9818 2.45554C19.3719 2.78335 19.6672 3.20958 19.837 3.69C19.9264 3.95654 19.9074 4.24752 19.7842 4.5002C19.661 4.75288 19.4434 4.94701 19.1784 5.04073C18.9133 5.13445 18.6221 5.12025 18.3674 5.00119C18.1128 4.88213 17.9151 4.66775 17.817 4.40429C17.768 4.26474 17.6768 4.14394 17.5559 4.05868C17.4351 3.97342 17.2906 3.92794 17.1427 3.92857H15.7613C15.6329 3.92915 15.5092 3.97698 15.4137 4.06293C15.3183 4.14889 15.2579 4.26696 15.2439 4.39463C15.23 4.5223 15.2635 4.65064 15.3381 4.75518C15.4127 4.85971 15.5232 4.93313 15.6485 4.96143L17.7527 5.42143C18.4018 5.56235 18.9815 5.92501 19.3922 6.44705C19.8028 6.96909 20.0188 7.61789 20.0029 8.2819C19.987 8.94591 19.7403 9.58363 19.3051 10.0854C18.8699 10.5872 18.2735 10.9217 17.6185 11.0314V11.7857C17.6185 12.0699 17.5056 12.3424 17.3046 12.5433C17.1037 12.7443 16.8312 12.8571 16.547 12.8571C16.2629 12.8571 15.9904 12.7443 15.7894 12.5433C15.5885 12.3424 15.4756 12.0699 15.4756 11.7857V11.0314C14.9736 10.9461 14.5034 10.7283 14.1137 10.4006C13.7239 10.0729 13.4287 9.64706 13.2585 9.16714C13.1691 8.9006 13.1881 8.60962 13.3113 8.35694C13.4345 8.10426 13.6521 7.91013 13.9171 7.81642C14.1822 7.7227 14.4734 7.7369 14.7281 7.85596C14.9827 7.97501 15.1804 8.18939 15.2785 8.45286C15.3278 8.59217 15.4192 8.71274 15.54 8.79794C15.6607 8.88314 15.8049 8.92878 15.9527 8.92857H17.1427C17.3208 8.93135 17.4935 8.86752 17.6269 8.7496C17.7603 8.63168 17.8449 8.46817 17.864 8.29113C17.8832 8.11408 17.8355 7.93628 17.7303 7.79257C17.6252 7.64886 17.4701 7.54962 17.2956 7.51429L15.1913 7.05429C14.5743 6.91792 14.0257 6.56679 13.6436 6.06352C13.2614 5.56026 13.0704 4.93759 13.1048 4.30659C13.1391 3.6756 13.3965 3.07732 13.831 2.61847C14.2655 2.15963 14.8488 1.87006 15.477 1.80143V1.07143C15.477 0.787268 15.5899 0.514746 15.7908 0.313814C15.9918 0.112882 16.2629 0 16.547 0Z" fill="#812BE0"/>
</g>
<defs>
<clipPath id="clip0_5_38619">
<rect width="20" height="20" fill="white"/>
</clipPath>
</defs>
</svg>
