<svg width="14" height="14" viewBox="0 0 14 14" fill="none" xmlns="http://www.w3.org/2000/svg">
<path d="M11.9584 5.83334H9.79388C10.0252 6.37274 9.92367 7.02188 9.48399 7.46157L7.00008 9.94547V10.7917C7.00008 11.2749 7.39183 11.6667 7.87508 11.6667H11.9584C12.4417 11.6667 12.8334 11.2749 12.8334 10.7917V6.70834C12.8334 6.22508 12.4417 5.83334 11.9584 5.83334ZM9.91675 9.1875C9.67521 9.1875 9.47925 8.99154 9.47925 8.75C9.47925 8.50828 9.67521 8.3125 9.91675 8.3125C10.1583 8.3125 10.3542 8.50828 10.3542 8.75C10.3542 8.99154 10.1583 9.1875 9.91675 9.1875ZM9.07146 5.78412L5.88263 2.59529C5.53336 2.24602 4.96698 2.24602 4.61771 2.59529L1.4287 5.78412C1.07943 6.13339 1.07943 6.69977 1.4287 7.04904L4.61753 10.238C4.9668 10.5873 5.53318 10.5873 5.88245 10.238L9.07146 7.04922C9.42073 6.69977 9.42073 6.13339 9.07146 5.78412ZM2.91675 6.85417C2.67521 6.85417 2.47925 6.65821 2.47925 6.41667C2.47925 6.17495 2.67521 5.97917 2.91675 5.97917C3.15828 5.97917 3.35425 6.17495 3.35425 6.41667C3.35425 6.65821 3.15828 6.85417 2.91675 6.85417ZM5.25008 9.1875C5.00854 9.1875 4.81258 8.99154 4.81258 8.75C4.81258 8.50828 5.00854 8.3125 5.25008 8.3125C5.49162 8.3125 5.68758 8.50828 5.68758 8.75C5.68758 8.99154 5.49162 9.1875 5.25008 9.1875ZM5.25008 6.85417C5.00854 6.85417 4.81258 6.65821 4.81258 6.41667C4.81258 6.17495 5.00854 5.97917 5.25008 5.97917C5.49162 5.97917 5.68758 6.17495 5.68758 6.41667C5.68758 6.65821 5.49162 6.85417 5.25008 6.85417ZM5.25008 4.52084C5.00854 4.52084 4.81258 4.32487 4.81258 4.08334C4.81258 3.84162 5.00854 3.64584 5.25008 3.64584C5.49162 3.64584 5.68758 3.84162 5.68758 4.08334C5.68758 4.32487 5.49162 4.52084 5.25008 4.52084ZM7.58341 6.85417C7.34188 6.85417 7.14591 6.65821 7.14591 6.41667C7.14591 6.17495 7.34188 5.97917 7.58341 5.97917C7.82495 5.97917 8.02091 6.17495 8.02091 6.41667C8.02091 6.65821 7.82495 6.85417 7.58341 6.85417Z" fill="#812BE0"/>
</svg>
