<svg width="11" height="10" viewBox="0 0 11 10" fill="none" xmlns="http://www.w3.org/2000/svg">
<g clip-path="url(#clip0_20_120306)">
<path fill-rule="evenodd" clip-rule="evenodd" d="M4.41365 0.0118628L3.253 0.0118656C3.19756 0.0118657 3.14288 0.0247747 3.09329 0.0495702C2.29924 0.446596 1.72135 1.12978 1.3487 1.68875C1.16025 1.97145 1.01905 2.2303 0.92464 2.41911C0.913213 2.44196 0.90118 2.46518 0.888989 2.4887L0.888973 2.48873L0.888965 2.48875C0.81494 2.63156 0.920728 2.77971 1.08159 2.77971H4.41365C4.61089 2.77971 4.77079 2.61981 4.77079 2.42257V0.369006C4.77079 0.171761 4.61089 0.0118623 4.41365 0.0118628ZM5.66365 0.369002C5.66365 0.171758 5.82354 0.0118594 6.02079 0.0118589L7.18157 0.0118561C7.23702 0.0118561 7.2917 0.0247649 7.3413 0.0495607C8.13537 0.446587 8.71323 1.12978 9.08587 1.68875C9.27437 1.97144 9.41552 2.23029 9.50995 2.4191C9.59666 2.59254 9.46909 2.77971 9.27516 2.77971H6.02079C5.82355 2.77971 5.66365 2.61981 5.66365 2.42257V0.369002ZM0.888 3.67257C0.712348 3.67257 0.562173 3.80026 0.539375 3.97443C0.336033 5.52792 0.472015 6.95943 0.602273 7.8165C0.705103 8.49307 1.29524 8.94043 1.9467 8.94043H2.05337C2.32206 8.94043 2.50418 8.64114 2.50122 8.3725C2.49911 8.18171 2.54063 7.9895 2.6274 7.81143C2.8368 7.38157 3.27303 7.10885 3.75115 7.10885C3.77186 7.10885 3.78865 7.09206 3.78865 7.07135V5.86162C3.78865 5.07264 4.42824 4.43305 5.21722 4.43305C6.0062 4.43305 6.64579 5.07264 6.64579 5.86162V7.0713C6.64579 7.09204 6.6626 7.10885 6.68333 7.10885C7.16145 7.10885 7.59766 7.38157 7.80709 7.81143C7.89387 7.9895 7.93537 8.18171 7.93323 8.3725C7.9303 8.64114 8.11245 8.94043 8.38109 8.94043H8.48787C9.13937 8.94043 9.72952 8.49307 9.8323 7.8165C9.96259 6.95942 10.0985 5.52792 9.89523 3.97443C9.87245 3.80026 9.72223 3.67257 9.54659 3.67257H5.21722H0.888ZM4.6815 8.00171H3.75115C3.61455 8.00171 3.48991 8.07964 3.43008 8.20243C3.37026 8.32521 3.38572 8.47143 3.46992 8.579C3.93815 9.17714 4.26497 9.46257 4.7351 9.82271C5.02326 10.0434 5.41123 10.0434 5.69938 9.82271C6.16952 9.46257 6.49633 9.17714 6.96456 8.579C7.04876 8.47143 7.06423 8.32521 7.0044 8.20243C6.94457 8.07964 6.81994 8.00171 6.68333 8.00171H5.75293V5.86162C5.75293 5.56575 5.51308 5.3259 5.21722 5.3259C4.92135 5.3259 4.6815 5.56575 4.6815 5.86162V8.00171Z" fill="#EFECFF"/>
</g>
<defs>
<clipPath id="clip0_20_120306">
<rect width="10" height="10" fill="white" transform="translate(0.217285)"/>
</clipPath>
</defs>
</svg>
