<svg width="16" height="17" viewBox="0 0 16 17" fill="none" xmlns="http://www.w3.org/2000/svg">
<path d="M7.99992 1.83337C4.32659 1.83337 1.33325 4.82671 1.33325 8.50004C1.33325 12.1734 4.32659 15.1667 7.99992 15.1667C11.6733 15.1667 14.6666 12.1734 14.6666 8.50004C14.6666 4.82671 11.6733 1.83337 7.99992 1.83337ZM7.99992 11.8334C7.63325 11.8334 7.33325 11.5334 7.33325 11.1667C7.33325 10.8 7.63325 10.5 7.99992 10.5C8.36659 10.5 8.66659 10.8 8.66659 11.1667C8.66659 11.5334 8.36659 11.8334 7.99992 11.8334ZM8.66659 8.50004C8.66659 8.86671 8.36659 9.16671 7.99992 9.16671C7.63325 9.16671 7.33325 8.86671 7.33325 8.50004V5.83337C7.33325 5.46671 7.63325 5.16671 7.99992 5.16671C8.36659 5.16671 8.66659 5.46671 8.66659 5.83337V8.50004Z" fill="#D46060"/>
</svg>
