<svg width="12" height="12" viewBox="0 0 12 12" fill="none" xmlns="http://www.w3.org/2000/svg">
<path fill-rule="evenodd" clip-rule="evenodd" d="M6.00058 2.5C4.94561 2.5 3.99765 2.96374 3.24613 3.50442C2.49066 4.04795 1.89055 4.70012 1.52062 5.14926C1.11032 5.64742 1.11031 6.35258 1.52062 6.85074C1.89055 7.29988 2.49066 7.95205 3.24613 8.49558C3.99765 9.03626 4.94561 9.5 6.00058 9.5C7.05554 9.5 8.0035 9.03626 8.75502 8.49558C9.51049 7.95205 10.1106 7.29988 10.4805 6.85074C10.8908 6.35258 10.8908 5.64742 10.4805 5.14926C10.1106 4.70012 9.51049 4.04795 8.75502 3.50442C8.0035 2.96374 7.05554 2.5 6.00058 2.5ZM6.00049 5C5.4482 5 5.00049 5.44772 5.00049 6C5.00049 6.55228 5.4482 7 6.00049 7C6.55277 7 7.00049 6.55228 7.00049 6C7.00049 5.44772 6.55277 5 6.00049 5ZM4.00049 6C4.00049 4.89543 4.89592 4 6.00049 4C7.10506 4 8.00049 4.89543 8.00049 6C8.00049 7.10457 7.10506 8 6.00049 8C4.89592 8 4.00049 7.10457 4.00049 6Z" fill="#A29ACF"/>
</svg>
