<svg width="12" height="12" viewBox="0 0 12 12" fill="none" xmlns="http://www.w3.org/2000/svg">
<path fill-rule="evenodd" clip-rule="evenodd" d="M1.14645 1.14645C1.34171 0.951184 1.65829 0.951184 1.85355 1.14645L10.8536 10.1464C11.0488 10.3417 11.0488 10.6583 10.8536 10.8536C10.6583 11.0488 10.3417 11.0488 10.1464 10.8536L1.14645 1.85355C0.951184 1.65829 0.951184 1.34171 1.14645 1.14645Z" fill="#A29ACF"/>
<path fill-rule="evenodd" clip-rule="evenodd" d="M3.57505 3.28167C3.46168 3.35367 3.35196 3.42828 3.24613 3.50442C2.49066 4.04795 1.89055 4.70012 1.52062 5.14926C1.11032 5.64742 1.11031 6.35258 1.52062 6.85074C1.89055 7.29988 2.49066 7.95205 3.24613 8.49558C3.99765 9.03626 4.94561 9.5 6.00058 9.5C7.05554 9.5 8.0035 9.03626 8.75502 8.49558C8.7616 8.49084 8.76817 8.4861 8.77473 8.48135L7.55359 7.26021C7.18689 7.71159 6.62737 8 6.00049 8C4.89592 8 4.00049 7.10457 4.00049 6C4.00049 5.37312 4.2889 4.8136 4.74028 4.4469L3.57505 3.28167ZM7.98184 6.27425C7.99414 6.18459 8.00049 6.09304 8.00049 6C8.00049 4.89543 7.10506 4 6.00049 4C5.90745 4 5.8159 4.00635 5.72624 4.01865L4.77661 3.06901C4.6495 2.9419 4.69446 2.72669 4.86644 2.67438C5.2264 2.56487 5.606 2.5 6.00058 2.5C7.05554 2.5 8.0035 2.96374 8.75502 3.50442C9.51049 4.04795 10.1106 4.70012 10.4805 5.14926C10.8908 5.64742 10.8908 6.35258 10.4805 6.85074C10.2875 7.08516 10.0317 7.37489 9.72382 7.67561C9.62763 7.76958 9.47412 7.76652 9.37903 7.67143L7.98184 6.27425ZM5.45508 5.16169C5.1814 5.34012 5.00049 5.64893 5.00049 6C5.00049 6.55228 5.4482 7 6.00049 7C6.35156 7 6.66037 6.81909 6.83879 6.54541L5.45508 5.16169Z" fill="#A29ACF"/>
</svg>
