<svg width="16" height="16" viewBox="0 0 16 16" fill="none" xmlns="http://www.w3.org/2000/svg">
<g clip-path="url(#clip0_20_62884)">
<path fill-rule="evenodd" clip-rule="evenodd" d="M12.9079 0.635046C8.97602 0.218694 6.80506 0.201545 3.08639 0.635725C2.28804 0.728941 1.5428 1.04666 1.02482 1.57771C0.492881 2.12307 0.226357 2.87192 0.388864 3.72138C0.953509 6.67289 2.57795 9.18657 5.33516 10.1734V13.8985C5.33516 15.1824 6.65096 16.0456 7.82863 15.5343L9.59203 14.7688C10.2436 14.4859 10.6652 13.8433 10.6652 13.133V10.1734C13.4224 9.18659 15.0469 6.6729 15.6114 3.72138C15.7744 2.8695 15.5015 2.11698 14.9693 1.57135C14.4497 1.0388 13.7037 0.719313 12.9079 0.635046Z" fill="#812BE0"/>
</g>
<defs>
<clipPath id="clip0_20_62884">
<rect width="16" height="16" fill="white"/>
</clipPath>
</defs>
</svg>
