<svg width="21" height="20" viewBox="0 0 21 20" fill="none" xmlns="http://www.w3.org/2000/svg">
<path d="M4.66667 0.625C4.05973 0.625 3.57145 0.636088 3.18134 0.652396C2.63071 0.675421 2.11454 0.869937 1.73026 1.23791C1.34094 1.6107 1.125 2.12619 1.125 2.70833C1.125 3.29048 1.34094 3.80596 1.73026 4.17875C2.11454 4.54675 2.63071 4.74125 3.18134 4.76425C3.57145 4.78058 4.05973 4.79167 4.66667 4.79167C5.27363 4.79167 5.76188 4.78058 6.152 4.76425C6.70263 4.74125 7.21879 4.54675 7.60308 4.17875C7.99237 3.80596 8.20833 3.29048 8.20833 2.70833C8.20833 2.12619 7.99237 1.6107 7.60308 1.23791C7.21879 0.869937 6.70263 0.675421 6.152 0.652396C5.76188 0.636088 5.27363 0.625 4.66667 0.625Z" fill="#A29ACF"/>
<path d="M4.66667 5.625C4.05973 5.625 3.57145 5.63608 3.18134 5.65242C2.63071 5.67542 2.11454 5.86992 1.73026 6.23792C1.34094 6.61071 1.125 7.12617 1.125 7.70833C1.125 8.2905 1.34094 8.80596 1.73026 9.17875C2.11454 9.54675 2.63071 9.74125 3.18134 9.76425C3.57145 9.78058 4.05973 9.79167 4.66667 9.79167C5.27363 9.79167 5.76188 9.78058 6.152 9.76425C6.70263 9.74125 7.21879 9.54675 7.60308 9.17875C7.99237 8.80596 8.20833 8.2905 8.20833 7.70833C8.20833 7.12617 7.99237 6.61071 7.60308 6.23792C7.21879 5.86992 6.70263 5.67542 6.152 5.65242C5.76188 5.63608 5.27363 5.625 4.66667 5.625Z" fill="#A29ACF"/>
<path d="M12.5834 0.625C11.9765 0.625 11.4882 0.636088 11.0981 0.652396C10.5475 0.675421 10.0313 0.869937 9.647 1.23791C9.25771 1.6107 9.04175 2.12619 9.04175 2.70833C9.04175 3.29048 9.25771 3.80596 9.647 4.17875C10.0313 4.54675 10.5475 4.74125 11.0981 4.76425C11.4882 4.78058 11.9765 4.79167 12.5834 4.79167C13.1904 4.79167 13.6786 4.78058 14.0687 4.76425C14.6194 4.74125 15.1355 4.54675 15.5198 4.17875C15.9091 3.80596 16.1251 3.29048 16.1251 2.70833C16.1251 2.12619 15.9091 1.6107 15.5198 1.23791C15.1355 0.869937 14.6194 0.675421 14.0687 0.652396C13.6786 0.636088 13.1904 0.625 12.5834 0.625Z" fill="#A29ACF"/>
<path d="M13.296 5.67622C12.8408 5.61893 12.3792 5.61888 11.924 5.67676C11.1505 5.77509 10.6634 6.46222 10.6151 7.19076C10.5352 8.39818 10.4219 10.4946 10.4095 12.8241C10.36 12.7878 10.3055 12.7483 10.2462 12.7058C9.92906 12.4786 9.4746 12.1663 8.92414 11.8249C8.30768 11.4426 7.44785 11.3806 6.9266 12.0003C6.66035 12.3168 6.39614 12.7501 6.23281 13.3242C6.13173 13.6795 6.21685 14.0453 6.41006 14.3361C6.98702 15.2045 8.50635 17.3528 10.3183 18.7908C10.5556 18.9791 10.8379 19.0939 11.1316 19.1375C13.2394 19.4502 15.5897 19.5963 17.7314 19.2256C18.2673 19.1328 18.7254 18.783 18.9491 18.2845C19.7953 16.399 19.9184 14.6507 19.8642 13.4821C19.8173 12.4705 19.1587 11.6122 18.2021 11.2891C17.2724 10.9751 16.3771 10.8186 15.7153 10.7405C15.384 10.7013 15.1103 10.6817 14.9187 10.6719C14.8831 10.6701 14.8504 10.6686 14.8206 10.6674C14.8039 9.82147 14.6969 8.25155 14.6195 7.1993C14.5656 6.46718 14.0754 5.77434 13.296 5.67622Z" fill="#A29ACF"/>
</svg>
