<svg width="32" height="32" viewBox="0 0 32 32" fill="none" xmlns="http://www.w3.org/2000/svg">
<circle cx="16" cy="16" r="16" fill="#45AEE4"/>
<path fill-rule="evenodd" clip-rule="evenodd" d="M12.0181 17.0797L8.75489 15.7952C8.42347 15.6642 8.42059 15.1707 8.75107 15.0363L22.1432 9.58752C22.4271 9.47171 22.7201 9.73405 22.6582 10.0485L20.2549 22.241C20.1983 22.5288 19.8783 22.6594 19.6524 22.4862L16.3717 19.9741C16.1724 19.8215 15.9008 19.8297 15.7102 19.9936L13.8912 21.5575C13.6801 21.7395 13.3619 21.6381 13.2811 21.3637L12.0181 17.0797ZM19.4549 12.2533L13.0775 16.3959C12.8331 16.555 12.718 16.8663 12.7969 17.1578L13.4865 19.7132C13.5354 19.8942 13.7846 19.8757 13.8084 19.6886L13.9877 18.2872C14.0215 18.0234 14.1408 17.7803 14.3258 17.5987L19.5891 12.4388C19.6875 12.3425 19.5696 12.179 19.4549 12.2533Z" fill="white"/>
<path d="M13.0774 16.3959L19.4549 12.2533C19.5695 12.179 19.6874 12.3425 19.589 12.4388L14.3258 17.5987C14.1408 17.7803 14.0214 18.0234 13.9876 18.2872L13.8083 19.6886C13.7846 19.8757 13.5354 19.8942 13.4864 19.7132L12.7969 17.1578C12.7179 16.8663 12.833 16.555 13.0774 16.3959Z" fill="#EAEAEA"/>
</svg>
