<svg width="17" height="4" viewBox="0 0 17 4" fill="none" xmlns="http://www.w3.org/2000/svg">
<path d="M4.27246 2C4.27246 3.10457 3.37703 4 2.27246 4C1.16789 4 0.272461 3.10457 0.272461 2C0.272461 0.89543 1.16789 0 2.27246 0C3.37703 0 4.27246 0.89543 4.27246 2Z" fill="#812BE0"/>
<path d="M10.2725 2C10.2725 3.10457 9.37703 4 8.27246 4C7.16789 4 6.27246 3.10457 6.27246 2C6.27246 0.89543 7.16789 0 8.27246 0C9.37703 0 10.2725 0.89543 10.2725 2Z" fill="#812BE0"/>
<path d="M16.2725 2C16.2725 3.10457 15.377 4 14.2725 4C13.1679 4 12.2725 3.10457 12.2725 2C12.2725 0.89543 13.1679 0 14.2725 0C15.377 0 16.2725 0.89543 16.2725 2Z" fill="#812BE0"/>
</svg>
