<svg width="20" height="20" viewBox="0 0 20 20" fill="none" xmlns="http://www.w3.org/2000/svg">
<g clip-path="url(#clip0_655_47011)">
<path fill-rule="evenodd" clip-rule="evenodd" d="M10 0.357178C8.95428 0.357178 8.03641 0.653509 7.38068 1.30924C6.72493 1.96498 6.42861 2.88285 6.42861 3.92861C6.42861 4.97436 6.72493 5.89223 7.38068 6.54796C7.80081 6.96811 8.32856 7.24071 8.92861 7.38235V9.28575H5.71432C3.54463 9.28575 1.78575 11.0446 1.78575 13.2143V14.2266C1.54173 14.3446 1.31893 14.4996 1.12353 14.6949C0.589223 15.2293 0.357178 15.9686 0.357178 16.7857C0.357178 17.6029 0.589223 18.3422 1.12353 18.8766C1.65783 19.4109 2.39713 19.6429 3.21432 19.6429C4.03151 19.6429 4.77081 19.4109 5.30511 18.8766C5.83942 18.3422 6.07146 17.6029 6.07146 16.7857C6.07146 15.9686 5.83942 15.2293 5.30511 14.6949C4.93186 14.3217 4.45859 14.096 3.92861 13.9938V13.2143C3.92861 12.2281 4.72809 11.4286 5.71432 11.4286H8.92861V14.0845C8.54276 14.2079 8.19641 14.4077 7.90925 14.6949C7.37493 15.2293 7.14289 15.9686 7.14289 16.7857C7.14289 17.6029 7.37493 18.3422 7.90925 18.8766C8.44355 19.4109 9.18285 19.6429 10 19.6429C10.8172 19.6429 11.5565 19.4109 12.0908 18.8766C12.6251 18.3422 12.8572 17.6029 12.8572 16.7857C12.8572 15.9686 12.6251 15.2293 12.0908 14.6949C11.8037 14.4077 11.4573 14.2079 11.0715 14.0845V11.4286H14.2857C15.272 11.4286 16.0715 12.2281 16.0715 13.2143V13.9938C15.5415 14.096 15.0682 14.3217 14.6949 14.6949C14.1606 15.2293 13.9286 15.9686 13.9286 16.7857C13.9286 17.6029 14.1606 18.3422 14.6949 18.8766C15.2293 19.4109 15.9686 19.6429 16.7857 19.6429C17.6029 19.6429 18.3422 19.4109 18.8766 18.8766C19.4109 18.3422 19.6429 17.6029 19.6429 16.7857C19.6429 15.9686 19.4109 15.2293 18.8766 14.6949C18.6812 14.4996 18.4583 14.3446 18.2143 14.2266V13.2143C18.2143 11.0446 16.4555 9.28575 14.2857 9.28575H11.0715V7.38235C11.6715 7.24071 12.1993 6.96811 12.6194 6.54796C13.2751 5.89223 13.5715 4.97436 13.5715 3.92861C13.5715 2.88285 13.2751 1.96498 12.6194 1.30924C11.9637 0.653509 11.0458 0.357178 10 0.357178Z" fill="#812BE0"/>
</g>
<defs>
<clipPath id="clip0_655_47011">
<rect width="20" height="20" fill="white"/>
</clipPath>
</defs>
</svg>
