<svg width="14" height="14" viewBox="0 0 14 14" fill="none" xmlns="http://www.w3.org/2000/svg">
<g clip-path="url(#clip0_174_4689)">
<path fill-rule="evenodd" clip-rule="evenodd" d="M9.16031 0.313962C6.58385 0.119304 4.18511 0.119304 1.60865 0.313962C0.880778 0.368954 0.302534 0.94673 0.247311 1.67476C0.0529796 4.23673 0.0529797 6.63618 0.247311 9.19815C0.302529 9.92612 0.88061 10.5039 1.60854 10.5589C1.88408 10.5798 2.11451 10.3546 2.10598 10.0784C2.05088 8.29347 2.09283 6.53987 2.23185 4.70717C2.33381 3.36299 3.40185 2.29598 4.74543 2.19447C6.59057 2.05506 8.34897 2.01312 10.1419 2.06865C10.3604 2.07541 10.5382 1.89268 10.5216 1.67467C10.4664 0.946589 9.88813 0.36895 9.16031 0.313962ZM4.8396 3.44092C7.41607 3.24626 9.81481 3.24626 12.3913 3.44092C13.1191 3.49591 13.6974 4.07368 13.7526 4.80171C13.9469 7.36369 13.9469 9.76313 13.7526 12.3251C13.6974 13.0531 13.1191 13.6309 12.3913 13.6859C9.81481 13.8806 7.41607 13.8806 4.83961 13.6859C4.11174 13.6309 3.53349 13.0531 3.47827 12.3251C3.28394 9.76313 3.28394 7.36369 3.47827 4.80171C3.53349 4.07368 4.11174 3.49591 4.8396 3.44092ZM6.50732 9.18848C6.16215 9.18848 5.88232 8.90866 5.88232 8.56348C5.88232 8.2183 6.16215 7.93848 6.50732 7.93848H7.99023V6.45508C7.99023 6.1099 8.27006 5.83008 8.61523 5.83008C8.96041 5.83008 9.24023 6.1099 9.24023 6.45508V7.93848H10.7237C11.0689 7.93848 11.3487 8.2183 11.3487 8.56348C11.3487 8.90866 11.0689 9.18848 10.7237 9.18848H9.24023V10.6715C9.24023 11.0166 8.96041 11.2965 8.61523 11.2965C8.27006 11.2965 7.99023 11.0166 7.99023 10.6715V9.18848H6.50732Z" fill="white"/>
</g>
<defs>
<clipPath id="clip0_174_4689">
<rect width="14" height="14" fill="white"/>
</clipPath>
</defs>
</svg>
