<svg width="16" height="16" viewBox="0 0 16 16" fill="none" xmlns="http://www.w3.org/2000/svg">
<g clip-path="url(#clip0_4_19114)">
<path d="M3.96425 2.21875H5.86153L4.96675 6.28125H0.919434C0.949021 6.14997 0.997874 6.02137 1.06656 5.89959L2.73942 2.93408C2.98873 2.49212 3.45681 2.21875 3.96425 2.21875Z" fill="#812BE0"/>
<path d="M1.0332 7.21875C1.09952 7.35162 1.18773 7.47553 1.29708 7.58488L6.98579 13.2736L5.00379 7.21875H1.0332Z" fill="#812BE0"/>
<path d="M5.99023 7.21875L7.99983 13.3579L10.0094 7.21875H5.99023Z" fill="#812BE0"/>
<path d="M10.9958 7.21875L9.01355 13.2744L14.7031 7.58488C14.8125 7.47553 14.9007 7.35162 14.967 7.21875H10.9958Z" fill="#812BE0"/>
<path d="M15.0807 6.28125H11.0327L10.1379 2.21875H12.0358C12.5433 2.21875 13.0113 2.49212 13.2607 2.93408L14.9335 5.89959C15.0022 6.02137 15.0511 6.14997 15.0807 6.28125Z" fill="#812BE0"/>
<path d="M10.0728 6.28125H5.92676L6.82157 2.21875H9.17801L10.0728 6.28125Z" fill="#812BE0"/>
</g>
<defs>
<clipPath id="clip0_4_19114">
<rect width="15" height="15" fill="white" transform="translate(0.5 0.5)"/>
</clipPath>
</defs>
</svg>
