<svg width="24" height="24" viewBox="0 0 24 24" fill="none" xmlns="http://www.w3.org/2000/svg">
<path d="M7.72412 20.77C7.85367 20.7999 7.98682 20.8222 8.12312 20.8365C8.89922 20.9175 10.144 20.9999 11.9999 20.9999C13.8559 20.9999 15.1007 20.9175 15.8768 20.8365C16.0583 20.8175 16.2342 20.7842 16.4036 20.7378L16.3873 20.8876C16.2701 21.9702 15.4939 22.9516 14.3062 23.1075C13.711 23.1857 12.9368 23.2499 12 23.2499C11.0148 23.2499 10.2506 23.1789 9.68912 23.0939C8.65542 22.9375 7.97517 22.1164 7.80232 21.1954C7.77747 21.0631 7.75122 20.9208 7.72412 20.77Z" fill="#812BE0"/>
<path fill-rule="evenodd" clip-rule="evenodd" d="M2.75 10C2.75 4.89137 6.89135 0.75 12 0.75C17.1087 0.75 21.25 4.89137 21.25 10C21.25 12.9426 19.8753 15.5642 17.7359 17.2573C17.6431 17.5887 17.5524 17.8938 17.4732 18.1514C17.2376 18.9183 16.5855 19.5058 15.747 19.5933C15.0205 19.6691 13.8196 19.75 12 19.75C10.1803 19.75 8.9795 19.6691 8.253 19.5933C7.41445 19.5058 6.76235 18.9183 6.5268 18.1514C6.44765 17.8938 6.3569 17.5887 6.2641 17.2573C4.12475 15.5642 2.75 12.9426 2.75 10ZM16.25 9.5C16.25 7.1528 14.3472 5.25 12 5.25C11.5858 5.25 11.25 4.91422 11.25 4.5C11.25 4.08578 11.5858 3.75 12 3.75C15.1756 3.75 17.75 6.32435 17.75 9.5C17.75 9.9142 17.4142 10.25 17 10.25C16.5858 10.25 16.25 9.9142 16.25 9.5Z" fill="#812BE0"/>
</svg>
