<svg width="12" height="12" viewBox="0 0 12 12" fill="none" xmlns="http://www.w3.org/2000/svg">
<path fill-rule="evenodd" clip-rule="evenodd" d="M4.00024 3C4.00024 1.89543 4.89567 1 6.00024 1C7.10481 1 8.00024 1.89543 8.00024 3V5H7.00024V3C7.00024 2.44772 6.55253 2 6.00024 2C5.44796 2 5.00024 2.44772 5.00024 3V5H4.00024V3Z" fill="white"/>
<path fill-rule="evenodd" clip-rule="evenodd" d="M3.99976 4.5C2.89519 4.5 1.99976 5.39543 1.99976 6.5V9C1.99976 10.1046 2.89519 11 3.99976 11H7.99976C9.10433 11 9.99976 10.1046 9.99976 9V6.5C9.99976 5.39543 9.10433 4.5 7.99976 4.5H3.99976Z" fill="white"/>
</svg>
