<svg width="16" height="16" viewBox="0 0 16 16" fill="none" xmlns="http://www.w3.org/2000/svg">
<g clip-path="url(#clip0_174_63519)">
<path fill-rule="evenodd" clip-rule="evenodd" d="M6.45198 0.285706C5.33256 0.285706 4.23618 0.32525 3.17125 0.401051C1.75863 0.501602 0.615177 1.56767 0.547005 2.93804C0.465824 4.56992 0.423096 6.26347 0.423096 7.99999C0.423096 9.73652 0.465824 11.43 0.547005 13.0619C0.615178 14.4323 1.75863 15.4984 3.17125 15.599C4.23618 15.6747 5.33256 15.7143 6.45198 15.7143C7.57138 15.7143 8.66777 15.6747 9.7327 15.599C11.1453 15.4984 12.2888 14.4323 12.3569 13.0619C12.3626 12.9481 12.2648 12.8569 12.1507 12.8571C11.8594 12.8575 11.5663 12.7942 11.2928 12.6647C10.5941 12.3339 10.1487 11.63 10.1487 10.8571C10.1487 10.6204 9.95681 10.4286 9.72016 10.4286H6.16416C4.8229 10.4286 3.73559 9.34125 3.73559 7.99998C3.73559 6.65872 4.8229 5.57142 6.16416 5.57142H9.72018C9.95682 5.57142 10.1487 5.37958 10.1487 5.14294C10.1487 4.36991 10.5941 3.66611 11.2928 3.33532C11.5663 3.20582 11.8594 3.14256 12.1507 3.14292C12.2648 3.14307 12.3626 3.0519 12.3569 2.93804C12.2888 1.56767 11.1453 0.501602 9.7327 0.401051C8.66777 0.32525 7.57138 0.285706 6.45198 0.285706ZM11.904 11.3735C11.7044 11.279 11.5771 11.0779 11.5771 10.8571V9.14285H6.16405C5.53287 9.14285 5.02119 8.63117 5.02119 7.99999C5.02119 7.3688 5.53287 6.85713 6.16405 6.85713H11.5771V5.14294C11.5771 4.92207 11.7044 4.72099 11.904 4.62647C12.1036 4.53196 12.3399 4.56095 12.5107 4.70092C13.7927 5.75129 14.4466 6.40475 15.4492 7.63986C15.6196 7.84973 15.6196 8.15027 15.4492 8.36013C14.4466 9.59526 13.7927 10.2487 12.5107 11.2991C12.3399 11.4391 12.1036 11.468 11.904 11.3735Z" fill="#A29ACF"/>
</g>
<defs>
<clipPath id="clip0_174_63519">
<rect width="16" height="16" fill="white"/>
</clipPath>
</defs>
</svg>
