<svg width="20" height="20" viewBox="0 0 20 20" fill="none" xmlns="http://www.w3.org/2000/svg">
<path fill-rule="evenodd" clip-rule="evenodd" d="M4.44477 3.33334C2.91065 3.33334 1.66699 4.61253 1.66699 6.19049V13.8095C1.66699 15.3875 2.91065 16.6667 4.44477 16.6667H15.5559C17.09 16.6667 18.3337 15.3875 18.3337 13.8095V6.19049C18.3337 4.61253 17.09 3.33334 15.5559 3.33334H4.44477ZM6.35424 6.84929C5.99485 6.56178 5.47044 6.62005 5.18293 6.97943C4.89543 7.33882 4.95369 7.86323 5.31308 8.15073L9.47975 11.4841L10.0003 11.9005L10.5209 11.4841L14.6876 8.15073C15.047 7.86323 15.1052 7.33882 14.8177 6.97943C14.5302 6.62005 14.0058 6.56178 13.6464 6.84929L10.0003 9.76616L6.35424 6.84929Z" fill="#812BE0"/>
</svg>
