<svg width="21" height="20" viewBox="0 0 21 20" fill="none" xmlns="http://www.w3.org/2000/svg">
<path d="M9.875 19.3366C8.78542 19.2121 7.46842 18.8018 6.26375 18.3534C4.79158 17.8054 3.3913 17.1628 2.58876 16.7789C1.97071 16.4833 1.51665 15.9086 1.41788 15.2025C1.29125 14.2972 1.125 12.6115 1.125 10.0001C1.125 7.94102 1.22835 6.45752 1.33415 5.47827C1.49266 5.55385 1.67463 5.64015 1.876 5.73485C2.62675 6.08806 3.6491 6.55952 4.73337 7.03148C5.816 7.50269 6.96837 7.97785 7.97708 8.33635C8.48117 8.51552 8.95725 8.6684 9.37546 8.77715C9.54579 8.82144 9.71367 8.86035 9.875 8.89069V19.3366Z" fill="#812BE0"/>
<path d="M11.125 19.3366C12.2146 19.212 13.5316 18.8017 14.7362 18.3533C16.2084 17.8054 17.6087 17.1627 18.4112 16.7789C19.0293 16.4832 19.4833 15.9086 19.5821 15.2024C19.7087 14.2971 19.875 12.6114 19.875 9.99998C19.875 7.94102 19.7717 6.45752 19.6659 5.47827C19.5074 5.55385 19.3255 5.64011 19.1242 5.73477C18.3735 6.08798 17.3511 6.55944 16.2668 7.0314C15.1842 7.50261 14.0318 7.97777 13.0232 8.33627C12.519 8.51544 12.043 8.66831 11.6247 8.77706C11.4543 8.8214 11.2864 8.86031 11.125 8.89065V19.3366Z" fill="#812BE0"/>
<path d="M2.58873 3.22114C2.15147 3.43031 1.7963 3.77912 1.59094 4.21533C1.79734 4.3145 2.07593 4.44746 2.4081 4.60375C3.15187 4.95367 4.16254 5.41971 5.23222 5.88525C6.30351 6.35154 7.42605 6.81388 8.39568 7.1585C8.88072 7.33088 9.31963 7.471 9.69001 7.56733C10.0711 7.66638 10.3398 7.70833 10.5001 7.70833C10.6603 7.70833 10.9291 7.66638 11.3101 7.56733C11.6806 7.471 12.1195 7.33088 12.6045 7.1585C13.5741 6.81388 14.6966 6.35154 15.768 5.88525C16.8376 5.41971 17.8483 4.95367 18.5921 4.60375C18.9241 4.4475 19.2026 4.31458 19.4091 4.21542C19.2037 3.77916 18.8485 3.43032 18.4112 3.22114C17.6087 2.83724 16.2084 2.19464 14.7362 1.64668C13.2901 1.10838 11.6821 0.625 10.5 0.625C9.31784 0.625 7.70984 1.10838 6.26372 1.64667C4.79155 2.19464 3.39127 2.83724 2.58873 3.22114Z" fill="#812BE0"/>
</svg>
