<svg width="16" height="16" viewBox="0 0 16 16" fill="none" xmlns="http://www.w3.org/2000/svg">
<path fill-rule="evenodd" clip-rule="evenodd" d="M8 11.5C5.51233 11.5 3.77657 11.4371 2.69287 11.3777C1.63048 11.3196 0.74299 10.5479 0.635027 9.45227C0.562767 8.7189 0.5 7.6911 0.5 6.33333C0.5 4.97557 0.562767 3.94777 0.63503 3.21441C0.74299 2.11872 1.63048 1.34711 2.69287 1.28894C3.77657 1.2296 5.51233 1.16667 8 1.16667C10.4877 1.16667 12.2234 1.2296 13.3071 1.28894C14.3695 1.34711 15.257 2.11872 15.365 3.21441C15.4372 3.94777 15.5 4.97557 15.5 6.33333C15.5 7.6911 15.4372 8.7189 15.365 9.45227C15.257 10.548 14.3695 11.3196 13.3071 11.3777C12.2234 11.4371 10.4877 11.5 8 11.5ZM8 3.16667C8.27613 3.16667 8.5 3.39053 8.5 3.66667V3.9724C8.76453 4.0192 8.99017 4.097 9.16703 4.17437C9.33163 4.24633 9.4932 4.33007 9.63663 4.43903C9.85133 4.603 9.89467 4.92583 9.73043 5.14043C9.56337 5.3587 9.2517 5.40103 9.03253 5.23593C8.74043 5.02347 8.35923 4.92857 8 4.92857C7.76037 4.92857 7.52717 5.0033 7.3646 5.1139C7.19843 5.22693 7.1667 5.32937 7.1667 5.38077C7.1667 5.50097 7.2188 5.5655 7.32237 5.62187C7.52763 5.73357 7.76943 5.77987 8.00117 5.82423C8.0465 5.8329 8.09143 5.8415 8.13563 5.8505C8.44203 5.91287 8.8388 5.9936 9.1557 6.16607C9.57637 6.395 9.83337 6.8029 9.83337 7.28553C9.83337 7.77833 9.53177 8.1521 9.19793 8.3792C8.99293 8.51867 8.75287 8.62107 8.5 8.67997V9.0002C8.5 9.27633 8.27613 9.5002 8 9.5002C7.72387 9.5002 7.5 9.27633 7.5 9.0002V8.6939C7.1031 8.62367 6.68593 8.47397 6.36283 8.2268C6.14353 8.059 6.1018 7.74517 6.26963 7.52587C6.43667 7.3076 6.74837 7.26523 6.9675 7.43037C7.25673 7.6407 7.64873 7.7379 8.00003 7.7379C8.2386 7.7379 8.47287 7.663 8.63547 7.5524C8.80163 7.43937 8.83337 7.33693 8.83337 7.28553C8.83337 7.16533 8.78127 7.1008 8.6777 7.04443C8.47243 6.93273 8.2307 6.88647 7.999 6.8421C7.95363 6.8334 7.90867 6.8248 7.8644 6.8158C7.558 6.75343 7.16127 6.67267 6.84437 6.5002C6.4237 6.2713 6.1667 5.8634 6.1667 5.38077C6.1667 4.88793 6.4683 4.51417 6.80213 4.28707C7.00713 4.14763 7.24717 4.04523 7.5 3.98633V3.66667C7.5 3.39053 7.72387 3.16667 8 3.16667ZM12.3333 5.66667C11.9651 5.66667 11.6667 5.96513 11.6667 6.33333C11.6667 6.70153 11.9651 7 12.3333 7H12.6667C13.0349 7 13.3333 6.70153 13.3333 6.33333C13.3333 5.96513 13.0349 5.66667 12.6667 5.66667H12.3333ZM2.66667 6.33333C2.66667 5.96513 2.96514 5.66667 3.33333 5.66667H3.66667C4.03487 5.66667 4.33333 5.96513 4.33333 6.33333C4.33333 6.70153 4.03487 7 3.66667 7H3.33333C2.96514 7 2.66667 6.70153 2.66667 6.33333ZM2.41388 12.021C2.56413 11.7893 2.87375 11.7233 3.10544 11.8735C3.2754 11.9837 3.48197 12.0538 3.71197 12.0664C4.63167 12.1166 6.03823 12.1665 8.00007 12.1665C9.96187 12.1665 11.3684 12.1166 12.2881 12.0664C12.5182 12.0538 12.7247 11.9837 12.8947 11.8735C13.1264 11.7233 13.436 11.7893 13.5862 12.021C13.7365 12.2527 13.6705 12.5623 13.4388 12.7125C13.1198 12.9194 12.7439 13.0429 12.3427 13.0649C11.4036 13.1162 9.97873 13.1665 8.00007 13.1665C6.02137 13.1665 4.59653 13.1162 3.6574 13.0649C3.2562 13.0429 2.88036 12.9194 2.56134 12.7125C2.32965 12.5623 2.26363 12.2527 2.41388 12.021ZM3.87843 13.9068C3.99293 13.6555 4.28947 13.5446 4.54073 13.659C4.67477 13.7201 4.8263 13.7583 4.9907 13.7666C5.6957 13.8024 6.6875 13.8337 8.00013 13.8337C9.31277 13.8337 10.3045 13.8024 11.0095 13.7666C11.174 13.7583 11.3255 13.7201 11.4595 13.659C11.7108 13.5446 12.0073 13.6555 12.1218 13.9068C12.2363 14.1581 12.1254 14.4546 11.8741 14.5691C11.6238 14.6831 11.3486 14.7507 11.0602 14.7654C10.3373 14.802 9.3286 14.8337 8.00013 14.8337C6.67163 14.8337 5.66293 14.802 4.94007 14.7654C4.6516 14.7507 4.37643 14.6831 4.12617 14.5691C3.87487 14.4546 3.76397 14.1581 3.87843 13.9068Z" fill="#812BE0"/>
</svg>
