<svg width="24" height="24" viewBox="0 0 24 24" fill="none" xmlns="http://www.w3.org/2000/svg">
<path fill-rule="evenodd" clip-rule="evenodd" d="M13.9182 6.09225C14.2122 5.19841 15.4766 5.19842 15.7706 6.09225L16.6514 8.77046L19.3296 9.65124C20.2234 9.94521 20.2234 11.2096 19.3296 11.5036L16.6514 12.3844L15.7706 15.0626C15.4766 15.9564 14.2122 15.9564 13.9182 15.0626L13.0374 12.3844L10.3592 11.5036C9.46539 11.2096 9.46539 9.94521 10.3592 9.65124L13.0374 8.77046L13.9182 6.09225Z" fill="url(#paint0_linear_660_17468)"/>
<path d="M10.007 12.4385C9.73678 11.6169 8.57454 11.6169 8.30435 12.4385L7.65557 14.4111L5.68296 15.0599C4.86138 15.33 4.86138 16.4923 5.68296 16.7625L7.65557 17.4112L8.30435 19.3839C8.57454 20.2054 9.73678 20.2054 10.007 19.3839L10.6557 17.4112L12.6284 16.7625C13.4499 16.4923 13.4499 15.33 12.6284 15.0599L10.6557 14.4111L10.007 12.4385Z" fill="url(#paint1_linear_660_17468)"/>
<path d="M8.55018 4.59125C8.29091 3.80292 7.17575 3.80292 6.91648 4.59125L6.34101 6.34101L4.59125 6.91648C3.80292 7.17575 3.80292 8.29091 4.59125 8.55018L6.34101 9.12565L6.91648 10.8754C7.17575 11.6637 8.29091 11.6637 8.55018 10.8754L9.12565 9.12565L10.8754 8.55018C11.6637 8.29091 11.6637 7.17575 10.8754 6.91648L9.12565 6.34101L8.55018 4.59125Z" fill="url(#paint2_linear_660_17468)"/>
<defs>
<linearGradient id="paint0_linear_660_17468" x1="14.8444" y1="5.42187" x2="14.8444" y2="15.733" gradientUnits="userSpaceOnUse">
<stop stop-color="#9B41FE"/>
<stop offset="1" stop-color="#6F1BCB"/>
</linearGradient>
<linearGradient id="paint1_linear_660_17468" x1="9.15566" y1="11.8223" x2="9.15566" y2="20.0001" gradientUnits="userSpaceOnUse">
<stop stop-color="#9B41FE"/>
<stop offset="1" stop-color="#6F1BCB"/>
</linearGradient>
<linearGradient id="paint2_linear_660_17468" x1="7.73333" y1="4" x2="7.73333" y2="11.4667" gradientUnits="userSpaceOnUse">
<stop stop-color="#9B41FE"/>
<stop offset="1" stop-color="#6F1BCB"/>
</linearGradient>
</defs>
</svg>
