<svg width="20" height="20" viewBox="0 0 20 20" fill="none" xmlns="http://www.w3.org/2000/svg">
<path fill-rule="evenodd" clip-rule="evenodd" d="M1.66699 6.66668C1.66699 4.82573 3.15938 3.33334 5.00032 3.33334H15.0003C16.8413 3.33334 18.3337 4.82573 18.3337 6.66668V7.08334C18.3337 7.31346 18.1471 7.50001 17.917 7.50001L2.08366 7.50001C1.85354 7.50001 1.66699 7.31346 1.66699 7.08334V6.66668ZM2.08366 9.16668C1.85354 9.16668 1.66699 9.35322 1.66699 9.58334V13.3333C1.66699 15.1743 3.15938 16.6667 5.00033 16.6667H15.0003C16.8413 16.6667 18.3337 15.1743 18.3337 13.3333V9.58334C18.3337 9.35322 18.1471 9.16667 17.917 9.16667L2.08366 9.16668ZM10.8337 12.5C10.8337 12.0398 11.2068 11.6667 11.667 11.6667H14.167C14.6272 11.6667 15.0003 12.0398 15.0003 12.5C15.0003 12.9602 14.6272 13.3333 14.167 13.3333H11.667C11.2068 13.3333 10.8337 12.9602 10.8337 12.5Z" fill="#812BE0"/>
</svg>
