<svg width="16" height="17" viewBox="0 0 16 17" fill="none" xmlns="http://www.w3.org/2000/svg">
<g clip-path="url(#clip0_605_40524)">
<path fill-rule="evenodd" clip-rule="evenodd" d="M3.33013 1.18939C4.81479 1.01712 6.3907 0.834259 8 0.834259C9.60931 0.834259 11.1852 1.01712 12.6699 1.18939V1.18939C13.0075 1.22857 13.3404 1.26719 13.6679 1.303C14.4826 1.39207 15.1293 2.03738 15.217 2.85389C15.2485 3.1485 15.2821 3.44725 15.3162 3.74972C15.4858 5.25938 15.6658 6.8614 15.6658 8.50003C15.6658 10.1387 15.4858 11.7407 15.3162 13.2504L15.3161 13.2505C15.2821 13.5529 15.2485 13.8517 15.217 14.1462C15.1293 14.9627 14.4826 15.608 13.6679 15.697C13.3404 15.7329 13.0075 15.7715 12.6698 15.8106C11.1852 15.983 9.6093 16.1658 8 16.1658C6.39071 16.1658 4.81481 15.983 3.33016 15.8106H3.33015H3.33014H3.32994C2.99238 15.7715 2.65954 15.7329 2.3321 15.697C1.51738 15.608 0.87067 14.9627 0.783031 14.1462C0.751414 13.8515 0.717848 13.5529 0.683865 13.2504H0.683864H0.683857C0.514232 11.7407 0.334229 10.1387 0.334229 8.50003C0.334229 6.8614 0.514231 5.25938 0.683856 3.74972L0.683864 3.74965C0.717847 3.44721 0.751413 3.14848 0.783031 2.85389C0.87067 2.03738 1.51738 1.39207 2.3321 1.303C2.6596 1.26719 2.9925 1.22856 3.33013 1.18939ZM5.3272 11.1786C5.1995 10.344 5.0577 9.24873 5.0577 8.50002C5.0577 7.75129 5.19955 6.65598 5.3273 5.82139C5.42666 5.17226 6.06595 4.75675 6.69031 4.96027C8.50306 5.55119 10.2033 6.482 11.351 7.90881C11.6293 8.25492 11.6293 8.74511 11.3509 9.09121C10.2032 10.518 8.50298 11.4488 6.69022 12.0398C6.06584 12.2433 5.42653 11.8277 5.3272 11.1786Z" fill="#812BE0"/>
</g>
<defs>
<clipPath id="clip0_605_40524">
<rect width="16" height="16" fill="white" transform="translate(0 0.5)"/>
</clipPath>
</defs>
</svg>
