<svg width="20" height="20" viewBox="0 0 20 20" fill="none" xmlns="http://www.w3.org/2000/svg">
<path fill-rule="evenodd" clip-rule="evenodd" d="M10.0003 1.66667C14.6027 1.66667 18.3337 5.39763 18.3337 10C18.3337 14.6024 14.6027 18.3333 10.0003 18.3333C5.39795 18.3333 1.66699 14.6024 1.66699 10C1.66699 5.39763 5.39795 1.66667 10.0003 1.66667ZM6.16002 9.40572C6.05336 9.5581 6.00002 9.74857 6.00002 9.97714C6.00002 10.5562 6.20574 10.8457 6.61717 10.8457H9.15431V13.3829C9.15431 13.581 9.2305 13.7333 9.38288 13.84C9.5505 13.9467 9.74859 14 9.97717 14C10.5562 14 10.8457 13.7943 10.8457 13.3829V10.8457H13.36C13.7867 10.8457 14 10.5638 14 10C14 9.77143 13.9391 9.57333 13.8172 9.40572C13.7105 9.2381 13.5581 9.15429 13.36 9.15429H10.8457V6.64C10.8457 6.21333 10.5638 6 10 6C9.77145 6 9.57336 6.06095 9.40574 6.18286C9.23812 6.28953 9.15431 6.44191 9.15431 6.64V9.15429H6.61717C6.41907 9.15429 6.26669 9.2381 6.16002 9.40572Z" fill="white"/>
</svg>
