<svg width="14" height="14" viewBox="0 0 14 14" fill="none" xmlns="http://www.w3.org/2000/svg">
<path d="M6.99996 1.16663C3.78579 1.16663 1.16663 3.78579 1.16663 6.99996C1.16663 10.2141 3.78579 12.8333 6.99996 12.8333C10.2141 12.8333 12.8333 10.2141 12.8333 6.99996C12.8333 3.78579 10.2141 1.16663 6.99996 1.16663ZM6.99996 10.5C6.67913 10.5 6.41663 10.2375 6.41663 9.91663C6.41663 9.59579 6.67913 9.33329 6.99996 9.33329C7.32079 9.33329 7.58329 9.59579 7.58329 9.91663C7.58329 10.2375 7.32079 10.5 6.99996 10.5ZM8.18996 7.77C7.6533 8.12583 7.5658 8.31833 7.55413 8.35333C7.47247 8.59833 7.24496 8.74996 6.99996 8.74996C6.93579 8.74996 6.87745 8.73826 6.81329 8.72076C6.50995 8.61576 6.34662 8.28325 6.44579 7.97992C6.62662 7.45492 7.15745 7.0524 7.54245 6.79574C8.27162 6.31157 8.17829 5.78656 8.14913 5.61739C8.06746 5.15656 7.67662 4.76581 7.21579 4.68414C6.85996 4.61998 6.52162 4.71328 6.24745 4.94078C5.98495 5.16244 5.83329 5.48913 5.83329 5.83329C5.83329 6.15413 5.57079 6.41663 5.24996 6.41663C4.92913 6.41663 4.66663 6.15413 4.66663 5.83329C4.66663 5.14496 4.96995 4.49159 5.50079 4.04826C6.03162 3.59909 6.73163 3.41833 7.41996 3.53499C8.35913 3.70416 9.12913 4.47414 9.29829 5.41331C9.46163 6.34664 9.06496 7.18667 8.18996 7.77Z" fill="#812BE0"/>
</svg>
