<svg width="21" height="20" viewBox="0 0 21 20" fill="none" xmlns="http://www.w3.org/2000/svg">
<path fill-rule="evenodd" clip-rule="evenodd" d="M2.64286 0C2.07454 0 1.52949 0.226541 1.12763 0.629788C0.725765 1.03303 0.5 1.57995 0.5 2.15023L0.5 15.7683C0.5 16.3386 0.725765 16.8855 1.12763 17.2888C1.52949 17.692 2.07454 17.9186 2.64286 17.9186V18.9249C2.64286 19.21 2.75574 19.4835 2.95667 19.6851C3.1576 19.8867 3.43013 20 3.71429 20C3.99845 20 4.27097 19.8867 4.4719 19.6851C4.67283 19.4835 4.78571 19.21 4.78571 18.9249V17.9186H16.2143V18.9249C16.2143 19.21 16.3272 19.4835 16.5281 19.6851C16.729 19.8867 17.0016 20 17.2857 20C17.5699 20 17.8424 19.8867 18.0433 19.6851C18.2443 19.4835 18.3571 19.21 18.3571 18.9249V17.9186C18.9255 17.9186 19.4705 17.692 19.8724 17.2888C20.2742 16.8855 20.5 16.3386 20.5 15.7683V2.15023C20.5 1.57995 20.2742 1.03303 19.8724 0.629788C19.4705 0.226541 18.9255 0 18.3571 0L2.64286 0ZM13 7.08572C11.97 7.08572 11.1343 7.92288 11.1329 8.95499V8.95929V8.96359C11.1337 9.33396 11.2439 9.69577 11.4496 10.0033C11.6553 10.3109 11.9472 10.5503 12.2884 10.6915C12.6297 10.8326 13.005 10.8691 13.3669 10.7963C13.7288 10.7236 14.0611 10.5448 14.3218 10.2826C14.5825 10.0204 14.7599 9.68654 14.8316 9.32322C14.9033 8.95991 14.866 8.58342 14.7246 8.24132C14.5832 7.89922 14.3438 7.60686 14.0369 7.40118C13.7299 7.1955 13.3691 7.08572 13 7.08572ZM12.1057 5.40424C11.7605 5.49095 11.4298 5.62812 11.1243 5.81135L10.2857 4.9699C10.1182 4.80186 9.89112 4.70745 9.65429 4.70745C9.41745 4.70745 9.19032 4.80186 9.02286 4.9699C8.85539 5.13794 8.76131 5.36585 8.76131 5.6035C8.76131 5.84114 8.85539 6.06906 9.02286 6.2371L9.86143 7.07856C9.67883 7.3851 9.54213 7.71692 9.45571 8.06336H8.26714C8.03034 8.06336 7.80324 8.15775 7.6358 8.32577C7.46835 8.49379 7.37429 8.72167 7.37429 8.95929C7.37429 9.1969 7.46835 9.42479 7.6358 9.59281C7.80324 9.76083 8.03034 9.85522 8.26714 9.85522H9.45571C9.54286 10.2064 9.68143 10.5376 9.86143 10.84L9.02286 11.6815C8.85539 11.8495 8.76131 12.0774 8.76131 12.3151C8.76131 12.5527 8.85539 12.7806 9.02286 12.9487C9.19032 13.1167 9.41745 13.2111 9.65429 13.2111C9.89112 13.2111 10.1182 13.1167 10.2857 12.9487L11.1243 12.1072C11.4257 12.2878 11.7557 12.4269 12.1057 12.5143V13.707C12.1057 13.9446 12.1998 14.1725 12.3672 14.3405C12.5347 14.5085 12.7618 14.6029 12.9986 14.6029C13.2354 14.6029 13.4625 14.5085 13.6299 14.3405C13.7974 14.1725 13.8914 13.9446 13.8914 13.707V12.5143C14.2414 12.4269 14.5714 12.2878 14.8729 12.1072L15.7114 12.9487C15.8789 13.1167 16.106 13.2111 16.3429 13.2111C16.5797 13.2111 16.8068 13.1167 16.9743 12.9487C17.1418 12.7806 17.2358 12.5527 17.2358 12.3151C17.2358 12.0774 17.1418 11.8495 16.9743 11.6815L16.1357 10.84C16.3157 10.5376 16.4543 10.2064 16.5414 9.85522H17.73C17.9668 9.85522 18.1939 9.76083 18.3613 9.59281C18.5288 9.42479 18.6229 9.1969 18.6229 8.95929C18.6229 8.72167 18.5288 8.49379 18.3613 8.32577C18.1939 8.15775 17.9668 8.06336 17.73 8.06336H16.5414C16.455 7.71693 16.3183 7.38512 16.1357 7.07856L16.9743 6.2371C17.0572 6.15389 17.123 6.05511 17.1679 5.9464C17.2127 5.83769 17.2358 5.72117 17.2358 5.6035C17.2358 5.48583 17.2127 5.36931 17.1679 5.2606C17.123 5.15188 17.0572 5.0531 16.9743 4.9699C16.8914 4.88669 16.7929 4.82069 16.6846 4.77566C16.5762 4.73063 16.4601 4.70745 16.3429 4.70745C16.2256 4.70745 16.1095 4.73063 16.0011 4.77566C15.8928 4.82069 15.7943 4.88669 15.7114 4.9699L14.8729 5.81135C14.5674 5.62814 14.2367 5.49097 13.8914 5.40424V4.21158C13.8914 3.97397 13.7974 3.74608 13.6299 3.57807C13.4625 3.41005 13.2354 3.31565 12.9986 3.31565C12.7618 3.31565 12.5347 3.41005 12.3672 3.57807C12.1998 3.74608 12.1057 3.97397 12.1057 4.21158V5.40424ZM4.95286 5.92603C4.95286 5.68842 4.85879 5.46053 4.69135 5.29251C4.5239 5.1245 4.2968 5.0301 4.06 5.0301C3.8232 5.0301 3.5961 5.1245 3.42865 5.29251C3.26121 5.46053 3.16714 5.68842 3.16714 5.92603V11.9925C3.16714 12.2302 3.26121 12.458 3.42865 12.6261C3.5961 12.7941 3.8232 12.8885 4.06 12.8885C4.2968 12.8885 4.5239 12.7941 4.69135 12.6261C4.85879 12.458 4.95286 12.2302 4.95286 11.9925V5.92603Z" fill="#812BE0"/>
</svg>
