<svg width="16" height="17" viewBox="0 0 16 17" fill="none" xmlns="http://www.w3.org/2000/svg">
<g clip-path="url(#clip0_592_27811)">
<path fill-rule="evenodd" clip-rule="evenodd" d="M2.30501 7.37618C2.30501 4.85145 4.3517 2.80475 6.87644 2.80475C9.40116 2.80475 11.4478 4.85145 11.4478 7.37618C11.4478 9.90091 9.40116 11.9476 6.87644 11.9476C4.3517 11.9476 2.30501 9.90091 2.30501 7.37618ZM6.87644 0.519043C3.08934 0.519043 0.0192871 3.5891 0.0192871 7.37618C0.0192871 11.1633 3.08934 14.2333 6.87644 14.2333C8.35738 14.2333 9.72867 13.7638 10.8496 12.9656L14.0302 16.1462C14.4765 16.5925 15.2002 16.5925 15.6464 16.1462C16.0927 15.6998 16.0927 14.9763 15.6464 14.53L12.4659 11.3494C13.2642 10.2284 13.7335 8.85713 13.7335 7.37618C13.7335 3.5891 10.6635 0.519043 6.87644 0.519043Z" fill="#812BE0"/>
</g>
<defs>
<clipPath id="clip0_592_27811">
<rect width="16" height="16" fill="white" transform="translate(0 0.5)"/>
</clipPath>
</defs>
</svg>
