<svg width="21" height="20" viewBox="0 0 21 20" fill="none" xmlns="http://www.w3.org/2000/svg">
<path d="M17.4417 8.14996H17.4167C17.218 8.14878 17.0241 8.0888 16.8595 7.97757C16.6949 7.86634 16.5669 7.70885 16.4917 7.52496C16.4917 7.52275 16.4908 7.52063 16.4892 7.51907C16.4877 7.5175 16.4856 7.51663 16.4834 7.51663C16.4092 7.33334 16.3902 7.13238 16.4287 6.93845C16.4672 6.74452 16.5615 6.56605 16.7 6.42496L16.725 6.39996C16.9852 6.13881 17.1312 5.78523 17.1312 5.41663C17.1312 5.04802 16.9852 4.69444 16.725 4.43329L16.0667 3.78329C15.8055 3.52315 15.452 3.37709 15.0834 3.37709C14.7148 3.37709 14.3612 3.52315 14.1 3.78329L14.0917 3.79996C13.9474 3.93897 13.7656 4.03275 13.5687 4.06977C13.3717 4.10678 13.1683 4.08542 12.9834 4.00829C12.7969 3.9358 12.6367 3.80872 12.5237 3.64367C12.4107 3.47863 12.3502 3.28332 12.35 3.08329V3.05829C12.3507 2.87605 12.3154 2.69547 12.2462 2.52687C12.177 2.35827 12.0753 2.20497 11.9468 2.07572C11.8183 1.94647 11.6657 1.84381 11.4975 1.77361C11.3293 1.70342 11.1489 1.66706 10.9667 1.66663H10.0334C9.85111 1.66706 9.67075 1.70342 9.50257 1.77361C9.33439 1.84381 9.18169 1.94647 9.05322 2.07572C8.92474 2.20497 8.823 2.35827 8.75382 2.52687C8.68463 2.69547 8.64936 2.87605 8.65002 3.05829V3.08329C8.64962 3.28214 8.58994 3.47636 8.47861 3.64112C8.36728 3.80589 8.20936 3.93372 8.02502 4.00829C7.89924 4.06453 7.7628 4.09295 7.62502 4.09163C7.49358 4.09195 7.36336 4.06635 7.24182 4.01631C7.12028 3.96626 7.00979 3.89274 6.91669 3.79996L6.90002 3.78329C6.63888 3.52315 6.28529 3.37709 5.91669 3.37709C5.54808 3.37709 5.1945 3.52315 4.93335 3.78329L4.27502 4.43329C4.01488 4.69444 3.86882 5.04802 3.86882 5.41663C3.86882 5.78523 4.01488 6.13881 4.27502 6.39996L4.30002 6.42496C4.43969 6.56708 4.5344 6.7472 4.57232 6.94282C4.61024 7.13844 4.58969 7.3409 4.51324 7.52491C4.43679 7.70893 4.30782 7.86635 4.14245 7.97751C3.97707 8.08867 3.78261 8.14865 3.58335 8.14996H3.55835C3.18946 8.15062 2.83587 8.29745 2.57503 8.5583C2.31418 8.81914 2.16735 9.17274 2.16669 9.54163V10.4666C2.16735 10.8355 2.31418 11.1891 2.57503 11.45C2.83587 11.7108 3.18946 11.8576 3.55835 11.8583H3.58335C3.78267 11.8566 3.97779 11.9155 4.14294 12.0271C4.3081 12.1387 4.43551 12.2978 4.50835 12.4833C4.58389 12.6685 4.60441 12.8716 4.56746 13.0681C4.53051 13.2647 4.43765 13.4465 4.30002 13.5916L4.28335 13.6C4.02311 13.8627 3.87711 14.2176 3.87711 14.5875C3.87711 14.9573 4.02311 15.3122 4.28335 15.575L4.93335 16.225C5.1945 16.4851 5.54808 16.6312 5.91669 16.6312C6.28529 16.6312 6.63888 16.4851 6.90002 16.225L6.91669 16.2083C7.05584 16.0667 7.23441 15.9703 7.42912 15.9317C7.62384 15.893 7.82568 15.9139 8.00835 15.9916C8.19621 16.0654 8.3577 16.1938 8.47204 16.3601C8.58639 16.5264 8.64837 16.7231 8.65002 16.925V16.95C8.64958 17.1317 8.68506 17.3118 8.75443 17.4799C8.82379 17.6479 8.92567 17.8006 9.05421 17.9291C9.18275 18.0576 9.33542 18.1595 9.50346 18.2289C9.67149 18.2983 9.85157 18.3337 10.0334 18.3333H10.9667C11.1485 18.3337 11.3286 18.2983 11.4966 18.2289C11.6646 18.1595 11.8173 18.0576 11.9458 17.9291C12.0744 17.8006 12.1763 17.6479 12.2456 17.4799C12.315 17.3118 12.3505 17.1317 12.35 16.95V16.925C12.3517 16.7231 12.4137 16.5264 12.528 16.3601C12.6423 16.1938 12.8038 16.0654 12.9917 15.9916C13.1744 15.9139 13.3762 15.893 13.5709 15.9317C13.7656 15.9703 13.9442 16.0667 14.0834 16.2083L14.1 16.225C14.3612 16.4851 14.7148 16.6312 15.0834 16.6312C15.452 16.6312 15.8055 16.4851 16.0667 16.225L16.7167 15.575C16.9769 15.3122 17.1229 14.9573 17.1229 14.5875C17.1229 14.2176 16.9769 13.8627 16.7167 13.6L16.7 13.5916C16.5624 13.4465 16.4695 13.2647 16.4326 13.0681C16.3956 12.8716 16.4162 12.6685 16.4917 12.4833C16.5645 12.2978 16.6919 12.1387 16.8571 12.0271C17.0223 11.9155 17.2174 11.8566 17.4167 11.8583H17.4417C17.8106 11.8576 18.1642 11.7108 18.425 11.45C18.6859 11.1891 18.8327 10.8355 18.8334 10.4666V9.54163C18.8327 9.17274 18.6859 8.81914 18.425 8.5583C18.1642 8.29745 17.8106 8.15062 17.4417 8.14996ZM10.5 12.9166C9.92316 12.9166 9.35925 12.7456 8.87961 12.4251C8.39996 12.1046 8.02613 11.6491 7.80537 11.1161C7.58462 10.5832 7.52686 9.99672 7.6394 9.43095C7.75194 8.86517 8.02972 8.34547 8.43763 7.93756C8.84553 7.52966 9.36523 7.25188 9.93101 7.13934C10.4968 7.0268 11.0832 7.08456 11.6162 7.30531C12.1491 7.52607 12.6047 7.8999 12.9251 8.37955C13.2456 8.85919 13.4167 9.4231 13.4167 9.99996C13.4167 10.7735 13.1094 11.5154 12.5624 12.0624C12.0154 12.6093 11.2736 12.9166 10.5 12.9166Z" fill="#812BE0"/>
</svg>
