<svg width="20" height="20" viewBox="0 0 20 20" fill="none" xmlns="http://www.w3.org/2000/svg">
<g clip-path="url(#clip0_20_105354)">
<path d="M7.22833 1.09031C7.38046 0.940965 7.62279 0.940915 7.77496 1.09022C8.53542 1.83641 9.05592 2.61567 9.33671 3.08956C9.47167 3.3173 9.34033 3.59327 9.07858 3.6327C8.70683 3.6887 8.15358 3.74941 7.49996 3.74995C6.84713 3.75049 6.29454 3.69085 5.92288 3.63552C5.66067 3.5965 5.52896 3.32017 5.66421 3.09218C5.94563 2.6177 6.46708 1.83764 7.22833 1.09031Z" fill="#812BE0"/>
<path d="M12.2284 3.4929C12.3805 3.64224 12.6228 3.64229 12.775 3.49298C13.5354 2.74679 14.0559 1.96753 14.3367 1.49364C14.4716 1.2659 14.3404 0.989931 14.0786 0.950501C13.7069 0.894506 13.1536 0.833797 12.5 0.833256C11.8471 0.832714 11.2945 0.892356 10.9229 0.947681C10.6607 0.986706 10.529 1.26303 10.6642 1.49103C10.9456 1.9655 11.4671 2.74556 12.2284 3.4929Z" fill="#812BE0"/>
<path fill-rule="evenodd" clip-rule="evenodd" d="M10 4.79175C13.0928 4.79175 15.2568 4.88062 16.6147 4.96508C17.963 5.04891 19.0595 6.04925 19.1872 7.42375C19.285 8.47608 19.375 10.0084 19.375 12.0834C19.375 14.1585 19.285 15.6907 19.1872 16.7431C19.0595 18.1176 17.963 19.1179 16.6147 19.2017C15.2568 19.2862 13.0928 19.3751 10 19.3751C6.90721 19.3751 4.74317 19.2862 3.38527 19.2017C2.03697 19.1179 0.940537 18.1176 0.812821 16.7431C0.715033 15.6907 0.625 14.1585 0.625 12.0834C0.625 10.0084 0.715033 8.47608 0.812821 7.42375C0.940542 6.04925 2.03697 5.04891 3.38527 4.96508C4.74317 4.88062 6.90721 4.79175 10 4.79175ZM7.70854 8.95841C7.70854 9.76383 7.05562 10.4167 6.25021 10.4167C5.44479 10.4167 4.79187 9.76383 4.79187 8.95841C4.79187 8.153 5.44479 7.50008 6.25021 7.50008C7.05562 7.50008 7.70854 8.153 7.70854 8.95841ZM4.03246 11.633C4.10894 11.2576 4.37883 10.9661 4.7585 10.9149C5.08133 10.8714 5.55679 10.8334 6.233 10.8334C6.91012 10.8334 7.39225 10.8715 7.72233 10.9151C8.11275 10.9667 8.3935 11.2653 8.47167 11.6513C8.56425 12.1086 8.67779 12.7768 8.72633 13.4925C8.75296 13.885 8.47442 14.222 8.08388 14.2691C7.97271 14.2825 7.84875 14.2959 7.713 14.3085L7.37125 16.4757C7.32254 16.7847 7.10129 17.0332 6.78962 17.0608C6.64037 17.074 6.45575 17.0834 6.23288 17.0834C6.01075 17.0834 5.82971 17.074 5.68513 17.0609C5.38675 17.0339 5.17813 16.7967 5.12883 16.5012L4.76342 14.3084C4.63475 14.2963 4.51717 14.2834 4.41138 14.2705C4.02319 14.2232 3.74741 13.8878 3.7737 13.4976C3.82271 12.7703 3.93899 12.0917 4.03246 11.633ZM13.7498 10.4167C12.9444 10.4167 12.2915 9.76383 12.2915 8.95841C12.2915 8.153 12.9444 7.50008 13.7498 7.50008C14.5552 7.50008 15.2081 8.153 15.2081 8.95841C15.2081 9.76383 14.5552 10.4167 13.7498 10.4167ZM15.2415 10.9149C15.6212 10.9661 15.891 11.2576 15.9675 11.633C16.061 12.0917 16.1773 12.7703 16.2263 13.4976C16.2526 13.8878 15.9768 14.2232 15.5886 14.2705C15.4828 14.2834 15.3652 14.2963 15.2366 14.3084L14.8712 16.5012C14.8219 16.7967 14.6133 17.0339 14.3149 17.0609C14.1703 17.074 13.9892 17.0834 13.7671 17.0834C13.5442 17.0834 13.3596 17.074 13.2104 17.0608C12.8987 17.0332 12.6775 16.7847 12.6287 16.4757L12.287 14.3085C12.1512 14.2959 12.0273 14.2825 11.9161 14.2691C11.5256 14.222 11.247 13.885 11.2737 13.4925C11.3222 12.7768 11.4357 12.1086 11.5283 11.6513C11.6065 11.2653 11.8872 10.9667 12.2777 10.9151C12.6077 10.8715 13.0899 10.8334 13.767 10.8334C14.4432 10.8334 14.9187 10.8714 15.2415 10.9149Z" fill="#812BE0"/>
</g>
<defs>
<clipPath id="clip0_20_105354">
<rect width="20" height="20" fill="white"/>
</clipPath>
</defs>
</svg>
