<svg width="20" height="20" viewBox="0 0 20 20" fill="none" xmlns="http://www.w3.org/2000/svg">
<path fill-rule="evenodd" clip-rule="evenodd" d="M10.6865 1.82959C10.2376 1.70134 9.76176 1.70134 9.31287 1.82959L5.14621 3.02006C4.07295 3.32671 3.33301 4.30767 3.33301 5.42388V9.90259C3.33301 12.3247 4.50275 14.5978 6.47372 16.0056L8.54658 17.4862C9.41582 18.1071 10.5835 18.1071 11.4528 17.4862L13.5256 16.0056C15.4966 14.5978 16.6663 12.3247 16.6663 9.90259V5.42387C16.6663 4.30767 15.9264 3.32671 14.8531 3.02006L10.6865 1.82959ZM13.0696 6.89205C13.4054 7.20683 13.4224 7.73419 13.1076 8.06995L9.98262 11.4033C9.68409 11.7217 9.19041 11.7558 8.85091 11.4815L6.97591 9.96634C6.61794 9.67707 6.56224 9.15239 6.85151 8.79442C7.14078 8.43645 7.66547 8.38075 8.02344 8.67002L9.29625 9.69855L11.8917 6.93005C12.2065 6.59429 12.7339 6.57728 13.0696 6.89205Z" fill="#812BE0"/>
</svg>
