<svg width="1192" height="160" viewBox="0 0 1192 160" fill="none" xmlns="http://www.w3.org/2000/svg">
<g style="mix-blend-mode:overlay">
<path d="M1057.95 126.585V37.4767H1084.93V53.8363H1085.92C1087.77 48.4218 1090.91 44.1482 1095.31 41.0155C1099.72 37.8828 1104.98 36.3164 1111.09 36.3164C1117.28 36.3164 1122.58 37.9021 1126.99 41.0735C1131.4 44.2448 1134.2 48.4991 1135.4 53.8363H1136.33C1137.99 48.5378 1141.24 44.3029 1146.08 41.1315C1150.91 37.9214 1156.61 36.3164 1163.19 36.3164C1171.62 36.3164 1178.47 39.0237 1183.73 44.4382C1188.99 49.8141 1191.62 57.2011 1191.62 66.5992V126.585H1163.25V73.0966C1163.25 68.649 1162.11 65.2649 1159.82 62.9444C1157.54 60.5852 1154.58 59.4056 1150.95 59.4056C1147.04 59.4056 1143.97 60.6819 1141.72 63.2344C1139.52 65.7483 1138.42 69.1324 1138.42 73.3867V126.585H1111.15V72.8066C1111.15 68.6683 1110.03 65.4003 1107.79 63.0024C1105.54 60.6045 1102.59 59.4056 1098.91 59.4056C1096.44 59.4056 1094.25 60.005 1092.36 61.204C1090.46 62.3642 1088.97 64.0273 1087.89 66.1931C1086.84 68.3589 1086.32 70.9115 1086.32 73.8508V126.585H1057.95Z" fill="white"/>
<path d="M1011.59 88.1219V37.4766H1039.9V126.585H1012.86V109.993H1011.94C1009.96 115.446 1006.6 119.778 1001.84 122.988C997.123 126.159 991.418 127.745 984.727 127.745C978.655 127.745 973.318 126.352 968.716 123.568C964.113 120.783 960.536 116.896 957.983 111.907C955.431 106.879 954.135 101.001 954.096 94.2713V37.4766H982.465V88.702C982.503 93.5365 983.78 97.346 986.294 100.131C988.808 102.915 992.23 104.308 996.562 104.308C999.385 104.308 1001.92 103.689 1004.16 102.451C1006.44 101.175 1008.24 99.3378 1009.56 96.9399C1010.91 94.5033 1011.59 91.564 1011.59 88.1219Z" fill="white"/>
<path d="M907.671 126.584V37.4764H936.04V126.584H907.671ZM921.884 27.0921C917.901 27.0921 914.478 25.7771 911.616 23.1472C908.754 20.4786 907.323 17.2685 907.323 13.517C907.323 9.8042 908.754 6.63282 911.616 4.0029C914.478 1.3343 917.901 0 921.884 0C925.907 0 929.329 1.3343 932.153 4.0029C935.015 6.63282 936.446 9.8042 936.446 13.517C936.446 17.2685 935.015 20.4786 932.153 23.1472C929.329 25.7771 925.907 27.0921 921.884 27.0921Z" fill="white"/>
<path d="M756.432 126.585V37.4767H783.408V53.8363H784.394C786.25 48.4218 789.383 44.1482 793.792 41.0155C798.201 37.8828 803.461 36.3164 809.572 36.3164C815.76 36.3164 821.058 37.9021 825.467 41.0735C829.876 44.2448 832.68 48.4991 833.879 53.8363H834.807C836.47 48.5378 839.719 44.3029 844.553 41.1315C849.388 37.9214 855.092 36.3164 861.667 36.3164C870.098 36.3164 876.944 39.0237 882.204 44.4382C887.464 49.8141 890.094 57.2011 890.094 66.5992V126.585H861.725V73.0966C861.725 68.649 860.584 65.2649 858.302 62.9444C856.021 60.5852 853.062 59.4056 849.426 59.4056C845.52 59.4056 842.446 60.6819 840.202 63.2344C837.998 65.7483 836.896 69.1324 836.896 73.3867V126.585H809.63V72.8066C809.63 68.6683 808.508 65.4003 806.265 63.0024C804.022 60.6045 801.063 59.4056 797.389 59.4056C794.914 59.4056 792.728 60.005 790.833 61.204C788.938 62.3642 787.449 64.0273 786.366 66.1931C785.322 68.3589 784.8 70.9115 784.8 73.8508V126.585H756.432Z" fill="white"/>
<path d="M699.651 128.267C690.331 128.267 682.286 126.43 675.518 122.756C668.788 119.043 663.606 113.764 659.97 106.918C656.374 100.034 654.575 91.8542 654.575 82.3787C654.575 73.174 656.393 65.1295 660.028 58.2453C663.664 51.3224 668.788 45.9466 675.402 42.1177C682.015 38.2502 689.808 36.3164 698.781 36.3164C705.124 36.3164 710.925 37.3026 716.185 39.2751C721.445 41.2475 725.989 44.1675 729.818 48.035C733.647 51.9026 736.625 56.679 738.752 62.3642C740.879 68.0108 741.943 74.489 741.943 81.7986V88.8762H664.495V72.4005H715.547C715.508 69.3838 714.793 66.6959 713.4 64.3367C712.008 61.9775 710.094 60.1404 707.657 58.8254C705.259 57.4718 702.494 56.795 699.361 56.795C696.19 56.795 693.347 57.5105 690.833 58.9415C688.319 60.3338 686.328 62.2482 684.858 64.6848C683.388 67.0826 682.615 69.8092 682.537 72.8646V89.6303C682.537 93.2658 683.253 96.4565 684.684 99.2025C686.115 101.91 688.145 104.018 690.775 105.526C693.405 107.034 696.538 107.788 700.173 107.788C702.687 107.788 704.969 107.44 707.019 106.744C709.069 106.048 710.828 105.023 712.298 103.669C713.768 102.316 714.87 100.653 715.605 98.6804L741.653 99.4345C740.57 105.275 738.191 110.36 734.517 114.692C730.882 118.985 726.105 122.33 720.188 124.728C714.271 127.087 707.425 128.267 699.651 128.267Z" fill="white"/>
<path d="M593.865 126.584V37.4763H621.421V53.72H622.349C623.973 47.8413 626.622 43.471 630.297 40.609C633.971 37.7084 638.244 36.2581 643.118 36.2581C644.432 36.2581 645.786 36.3547 647.178 36.5481C648.571 36.7028 649.866 36.9542 651.065 37.3023V61.9578C649.712 61.4937 647.933 61.1263 645.728 60.8556C643.562 60.5848 641.629 60.4495 639.927 60.4495C636.562 60.4495 633.526 61.2037 630.819 62.712C628.15 64.1817 626.042 66.2508 624.495 68.9194C622.987 71.5493 622.233 74.6433 622.233 78.2015V126.584H593.865Z" fill="white"/>
<path d="M487.295 126.584V7.77368H536.374C545.269 7.77368 552.946 9.51407 559.405 12.9949C565.903 16.437 570.911 21.252 574.43 27.4401C577.95 33.5895 579.71 40.7444 579.71 48.9049C579.71 57.1041 577.911 64.2783 574.314 70.4277C570.756 76.5384 565.67 81.2762 559.057 84.6409C552.444 88.0057 544.592 89.688 535.504 89.688H505.221V67.063H530.167C534.498 67.063 538.114 66.3088 541.015 64.8005C543.954 63.2921 546.178 61.1843 547.686 58.477C549.195 55.7311 549.949 52.5404 549.949 48.9049C549.949 45.2307 549.195 42.0594 547.686 39.3908C546.178 36.6835 543.954 34.595 541.015 33.1254C538.076 31.6557 534.459 30.9209 530.167 30.9209H516.011V126.584H487.295Z" fill="white"/>
<path d="M372.226 160C368.823 160 365.613 159.729 362.596 159.188C359.579 158.685 356.988 158.008 354.822 157.157L361.088 136.563C363.872 137.491 366.386 138.032 368.629 138.187C370.911 138.342 372.864 137.974 374.489 137.085C376.152 136.234 377.428 134.706 378.317 132.502L379.42 129.833L347.745 37.4766H377.447L393.865 101.059H394.793L411.443 37.4766H441.32L407.73 135.112C406.106 139.986 403.805 144.278 400.827 147.991C397.887 151.743 394.078 154.682 389.398 156.809C384.757 158.936 379.033 160 372.226 160Z" fill="white"/>
<path d="M300.493 128.267C291.172 128.267 283.128 126.43 276.359 122.756C269.63 119.043 264.447 113.764 260.812 106.918C257.215 100.034 255.417 91.8542 255.417 82.3787C255.417 73.174 257.234 65.1295 260.87 58.2453C264.505 51.3224 269.63 45.9466 276.243 42.1177C282.857 38.2502 290.65 36.3164 299.623 36.3164C305.965 36.3164 311.767 37.3026 317.027 39.2751C322.286 41.2475 326.831 44.1675 330.66 48.035C334.488 51.9026 337.466 56.679 339.594 62.3642C341.721 68.0108 342.784 74.489 342.784 81.7986V88.8762H265.337V72.4005H316.388C316.35 69.3838 315.634 66.6959 314.242 64.3367C312.85 61.9775 310.935 60.1404 308.499 58.8254C306.101 57.4718 303.335 56.795 300.203 56.795C297.031 56.795 294.189 57.5105 291.675 58.9415C289.161 60.3338 287.169 62.2482 285.7 64.6848C284.23 67.0826 283.456 69.8092 283.379 72.8646V89.6303C283.379 93.2658 284.095 96.4565 285.526 99.2025C286.956 101.91 288.987 104.018 291.617 105.526C294.247 107.034 297.379 107.788 301.015 107.788C303.529 107.788 305.811 107.44 307.861 106.744C309.91 106.048 311.67 105.023 313.14 103.669C314.609 102.316 315.712 100.653 316.446 98.6804L342.494 99.4345C341.411 105.275 339.033 110.36 335.359 114.692C331.723 118.985 326.947 122.33 321.029 124.728C315.112 127.087 308.267 128.267 300.493 128.267Z" fill="white"/>
<path d="M240.783 7.77368V126.584H212.414V7.77368H240.783Z" fill="white"/>
<path d="M152.864 128.267C143.505 128.267 135.46 126.353 128.731 122.524C122.04 118.656 116.877 113.28 113.241 106.396C109.645 99.4732 107.846 91.4481 107.846 82.3207C107.846 73.1547 109.645 65.1295 113.241 58.2453C116.877 51.3224 122.04 45.9466 128.731 42.1177C135.46 38.2502 143.505 36.3164 152.864 36.3164C162.224 36.3164 170.249 38.2502 176.94 42.1177C183.669 45.9466 188.832 51.3224 192.429 58.2453C196.065 65.1295 197.882 73.1547 197.882 82.3207C197.882 91.4481 196.065 99.4732 192.429 106.396C188.832 113.28 183.669 118.656 176.94 122.524C170.249 126.353 162.224 128.267 152.864 128.267ZM153.038 106.86C156.442 106.86 159.323 105.816 161.682 103.728C164.041 101.639 165.84 98.7384 167.077 95.0256C168.354 91.3127 168.992 87.0198 168.992 82.1467C168.992 77.1962 168.354 72.8646 167.077 69.1518C165.84 65.4389 164.041 62.5383 161.682 60.4498C159.323 58.3613 156.442 57.3171 153.038 57.3171C149.519 57.3171 146.541 58.3613 144.104 60.4498C141.706 62.5383 139.869 65.4389 138.593 69.1518C137.355 72.8646 136.737 77.1962 136.737 82.1467C136.737 87.0198 137.355 91.3127 138.593 95.0256C139.869 98.7384 141.706 101.639 144.104 103.728C146.541 105.816 149.519 106.86 153.038 106.86Z" fill="white"/>
<path d="M67.6432 43.3935C67.2564 39.1392 65.5354 35.8325 62.48 33.4733C59.4633 31.0754 55.151 29.8765 49.5431 29.8765C45.8303 29.8765 42.7362 30.3599 40.261 31.3268C37.7858 32.2937 35.9294 33.628 34.6918 35.3297C33.4542 36.9928 32.816 38.9072 32.7773 41.073C32.7 42.8521 33.0481 44.4184 33.8216 45.7721C34.6338 47.1257 35.794 48.3246 37.3024 49.3689C38.8494 50.3744 40.7058 51.264 42.8716 52.0375C45.0374 52.811 47.474 53.4878 50.1812 54.0679L60.3915 56.3884C66.2702 57.6647 71.4527 59.3664 75.939 61.4936C80.464 63.6207 84.2542 66.154 87.3096 69.0933C90.4036 72.0326 92.7435 75.4167 94.3291 79.2456C95.9148 83.0744 96.727 87.3674 96.7657 92.1244C96.727 99.6275 94.8319 106.067 91.0804 111.443C87.3289 116.819 81.9337 120.938 74.8948 123.8C67.8945 126.662 59.444 128.093 49.5431 128.093C39.6035 128.093 30.9403 126.604 23.5533 123.626C16.1663 120.648 10.423 116.122 6.32342 110.05C2.22383 103.978 0.116026 96.3014 0 87.0193H27.4982C27.7302 90.8482 28.7551 94.0389 30.5729 96.5914C32.3906 99.144 34.8852 101.078 38.0565 102.393C41.2666 103.708 44.9794 104.365 49.195 104.365C53.0626 104.365 56.35 103.843 59.0572 102.799C61.8032 101.755 63.911 100.304 65.3807 98.4479C66.8503 96.5914 67.6045 94.4643 67.6432 92.0664C67.6045 89.8233 66.9083 87.9088 65.5547 86.3231C64.2011 84.6988 62.1126 83.3065 59.2893 82.1462C56.5047 80.9473 52.9465 79.845 48.6149 78.8395L36.2001 75.9388C25.9125 73.5796 17.81 69.7701 11.8927 64.5103C5.97534 59.2117 3.03601 52.0568 3.07469 43.0454C3.03601 35.6971 5.00846 29.2577 8.99201 23.7271C12.9756 18.1965 18.4868 13.8842 25.5257 10.7902C32.5646 7.69618 40.5898 6.14917 49.6011 6.14917C58.8058 6.14917 66.7923 7.71552 73.5605 10.8482C80.3673 13.9423 85.6465 18.2932 89.398 23.9012C93.1495 29.5091 95.064 36.0065 95.1413 43.3935H67.6432Z" fill="white"/>
</g>
</svg>
