<svg width="24" height="24" viewBox="0 0 24 24" fill="none" xmlns="http://www.w3.org/2000/svg">
<g clip-path="url(#clip0_655_66734)">
<path fill-rule="evenodd" clip-rule="evenodd" d="M2.57143 12C2.57143 6.79274 6.79274 2.57143 12 2.57143C17.2073 2.57143 21.4286 6.79274 21.4286 12C21.4286 12.8526 21.3154 13.6787 21.1032 14.4643H14.5027L18.1881 9.32021C18.6015 8.74298 18.4689 7.9398 17.8917 7.52626C17.3145 7.11271 16.5112 7.24541 16.0977 7.82265L11.3395 14.4643H2.89673C2.68459 13.6787 2.57143 12.8526 2.57143 12ZM8.43156 23.4605C3.54674 21.9411 0 17.3847 0 12C0 5.37259 5.37259 0 12 0C18.6274 0 24 5.37259 24 12C24 18.6274 18.6274 24 12 24" fill="#812BE0"/>
</g>
<defs>
<clipPath id="clip0_655_66734">
<rect width="24" height="24" fill="white"/>
</clipPath>
</defs>
</svg>
