<svg width="12" height="12" viewBox="0 0 12 12" fill="none" xmlns="http://www.w3.org/2000/svg">
<path d="M10.4671 5.81519L8.9101 7.31128L9.27759 9.42175C9.33759 9.76625 9.1986 10.1097 8.9146 10.3177C8.6251 10.5292 8.24709 10.5583 7.92809 10.3938L6.00009 9.39526L4.0721 10.3938C3.9351 10.4648 3.7866 10.4998 3.6391 10.4998C3.4441 10.4998 3.25059 10.4382 3.08559 10.3177C2.80209 10.1097 2.6626 9.76625 2.7226 9.42175L3.09009 7.31128L1.5331 5.81519C1.2781 5.57019 1.18659 5.20976 1.29459 4.87476C1.40359 4.53576 1.69259 4.29429 2.04859 4.24329L4.2031 3.93469L5.16609 2.01221C5.32409 1.69621 5.64409 1.50024 6.00009 1.50024C6.35609 1.50024 6.67609 1.69671 6.83409 2.01221L7.79709 3.93469L9.9516 4.24329C10.3071 4.29429 10.5961 4.53576 10.7051 4.87476C10.8131 5.20976 10.7221 5.57019 10.4671 5.81519Z" fill="#A29ACF"/>
</svg>
