<svg width="20" height="20" viewBox="0 0 20 20" fill="none" xmlns="http://www.w3.org/2000/svg">
<path fill-rule="evenodd" clip-rule="evenodd" d="M11.5986 5.07726C11.8436 4.3324 12.8972 4.3324 13.1422 5.07726L13.8762 7.3091L16.1081 8.04309C16.8529 8.28806 16.8529 9.34175 16.1081 9.58673L13.8762 10.3207L13.1422 12.5526C12.8972 13.2974 11.8436 13.2974 11.5986 12.5526L10.8646 10.3207L8.63274 9.58673C7.88788 9.34175 7.88788 8.28806 8.63274 8.04309L10.8646 7.3091L11.5986 5.07726Z" fill="white"/>
<path d="M8.33912 10.3654C8.11396 9.6807 7.14543 9.6807 6.92027 10.3654L6.37962 12.0092L4.73578 12.5499C4.05113 12.775 4.05113 13.7435 4.73578 13.9687L6.37962 14.5094L6.92027 16.1532C7.14543 16.8379 8.11396 16.8379 8.33912 16.1532L8.87977 14.5094L10.5236 13.9687C11.2083 13.7435 11.2083 12.775 10.5236 12.5499L8.87977 12.0092L8.33912 10.3654Z" fill="white"/>
<path d="M7.12519 3.82602C6.90913 3.16908 5.97983 3.16908 5.76377 3.82602L5.28422 5.28416L3.82608 5.76371C3.16914 5.97977 3.16914 6.90907 3.82608 7.12513L5.28422 7.60469L5.76377 9.06282C5.97983 9.71976 6.90913 9.71976 7.12519 9.06282L7.60475 7.60469L9.06288 7.12513C9.71983 6.90907 9.71983 5.97977 9.06288 5.76371L7.60475 5.28416L7.12519 3.82602Z" fill="white"/>
</svg>
