<svg width="16" height="16" viewBox="0 0 16 16" fill="none" xmlns="http://www.w3.org/2000/svg">
<g clip-path="url(#clip0_606_124744)">
<path fill-rule="evenodd" clip-rule="evenodd" d="M5.42831 0.999965C5.42831 0.526578 5.81207 0.142822 6.28545 0.142822H7.99974H9.71402C10.1874 0.142822 10.5712 0.526578 10.5712 0.999965C10.5712 1.47335 10.1874 1.85711 9.71402 1.85711H8.85688V3.34363C11.9229 3.76168 14.2854 6.39064 14.2854 9.57139C14.2854 13.0429 11.4713 15.8571 7.99974 15.8571C4.52823 15.8571 1.71402 13.0429 1.71402 9.57139C1.71402 6.39064 4.07658 3.76168 7.14259 3.34363V1.85711H6.28545C5.81207 1.85711 5.42831 1.47335 5.42831 0.999965ZM3.21721 3.11303C3.59739 2.83097 3.67696 2.29413 3.3949 1.91393C3.11286 1.53375 2.57601 1.45419 2.19582 1.73624C1.43758 2.29875 0.763947 2.96867 0.197301 3.72362C-0.0868689 4.10223 -0.0103142 4.63952 0.368292 4.92369C0.746898 5.20786 1.28418 5.1313 1.56835 4.7527C2.03583 4.12987 2.59169 3.57707 3.21721 3.11303ZM12.6051 1.91393C12.3231 2.29413 12.4026 2.83097 12.7828 3.11303C13.4083 3.57707 13.9642 4.12987 14.4316 4.7527C14.7158 5.1313 15.2531 5.20786 15.6317 4.92369C16.0104 4.63952 16.0869 4.10223 15.8027 3.72362C15.2361 2.96867 14.5625 2.29875 13.8042 1.73624C13.4241 1.45419 12.8872 1.53375 12.6051 1.91393ZM7.99974 6.58256C8.39423 6.58256 8.71402 6.90235 8.71402 7.29684V9.28668L9.87624 10.4489C10.1552 10.7279 10.1552 11.1801 9.87624 11.4591C9.59729 11.738 9.14504 11.738 8.86609 11.4591L7.49466 10.0876C7.36071 9.95368 7.28545 9.772 7.28545 9.58256V7.29684C7.28545 6.90235 7.60525 6.58256 7.99974 6.58256Z" fill="#812BE0"/>
</g>
<defs>
<clipPath id="clip0_606_124744">
<rect width="16" height="16" fill="white"/>
</clipPath>
</defs>
</svg>
