<svg width="16" height="16" viewBox="0 0 16 16" fill="none" xmlns="http://www.w3.org/2000/svg">
<path fill-rule="evenodd" clip-rule="evenodd" d="M1.95602 0C1.48263 0 1.09888 0.383755 1.09888 0.857143C1.09888 1.33053 1.48263 1.71429 1.95602 1.71429H3.41872C3.3584 1.89397 3.29804 2.07632 3.24086 2.25864C3.07263 2.79494 2.92203 3.36058 2.8673 3.93088C2.81209 4.5061 2.85283 5.10008 3.07826 5.68631C3.30462 6.27491 3.70341 6.81986 4.31048 7.31597C4.64041 7.58559 5.00707 7.81448 5.39968 8C5.00707 8.18552 4.64041 8.41441 4.31048 8.68403C3.70341 9.18014 3.30462 9.72509 3.07826 10.3137C2.85283 10.8999 2.81209 11.4939 2.8673 12.0691C2.92203 12.6394 3.07263 13.205 3.24086 13.7414C3.29804 13.9237 3.3584 14.1061 3.41872 14.2857H1.95602C1.48263 14.2857 1.09888 14.6695 1.09888 15.1429C1.09888 15.6162 1.48263 16 1.95602 16H14.044C14.5173 16 14.9011 15.6162 14.9011 15.1429C14.9011 14.6695 14.5173 14.2857 14.044 14.2857H12.5815C12.6418 14.1061 12.7021 13.9237 12.7593 13.7414C12.9275 13.205 13.0781 12.6394 13.1329 12.0691C13.1881 11.4939 13.1473 10.8999 12.9219 10.3137C12.6955 9.72509 12.2968 9.18014 11.6897 8.68403C11.3597 8.41441 10.9931 8.18552 10.6005 8C10.9931 7.81448 11.3597 7.58559 11.6897 7.31597C12.2968 6.81986 12.6955 6.27491 12.9219 5.68631C13.1473 5.10008 13.1881 4.5061 13.1329 3.93088C13.0781 3.36058 12.9275 2.79494 12.7593 2.25864C12.7021 2.07632 12.6418 1.89397 12.5815 1.71429H14.044C14.5173 1.71429 14.9011 1.33053 14.9011 0.857143C14.9011 0.383755 14.5173 0 14.044 0H1.95602ZM11.0236 11.6723C11.2593 11.7819 11.4208 12.0201 11.3727 12.2755C11.3179 12.5664 11.2321 12.8819 11.1235 13.2283C11.0833 13.3563 11.0417 13.4838 10.9994 13.6111C10.922 13.8438 10.7035 14 10.4583 14H5.54163C5.29643 14 5.07797 13.8438 5.00059 13.6111C4.95826 13.4838 4.91661 13.3563 4.87646 13.2283C4.76783 12.8819 4.68209 12.5665 4.6273 12.2755C4.5792 12.0201 4.74067 11.7819 4.97637 11.6723C5.31712 11.5141 5.64877 11.3154 5.98185 11.1158C6.44283 10.8396 6.90661 10.5617 7.40117 10.3869C7.58314 10.3226 7.78235 10.2857 8 10.2857C8.21763 10.2857 8.41686 10.3226 8.59882 10.3869C9.09338 10.5617 9.55715 10.8396 10.0181 11.1158C10.3512 11.3153 10.6828 11.5141 11.0236 11.6723Z" fill="#812BE0"/>
</svg>
