<svg width="14" height="14" viewBox="0 0 14 14" fill="none" xmlns="http://www.w3.org/2000/svg">
<path d="M12.8334 3.64583C12.8334 3.96842 12.5721 4.22917 12.2501 4.22917H1.75008C1.42808 4.22917 1.16675 3.96842 1.16675 3.64583C1.16675 3.32325 1.42808 3.0625 1.75008 3.0625H3.82618C4.07759 3.0625 4.29983 2.90262 4.37975 2.66345L4.56407 2.11045C4.72332 1.63329 5.16842 1.3125 5.67067 1.3125H8.3301C8.83293 1.3125 9.278 1.6333 9.43667 2.10988L9.62099 2.66402C9.70032 2.90202 9.92317 3.0625 10.1746 3.0625H12.2501C12.5721 3.0625 12.8334 3.32325 12.8334 3.64583ZM11.2584 5.41335L10.9026 10.78C10.8267 11.8533 9.92842 12.6875 8.86092 12.6875H5.13925C4.07175 12.6875 3.17341 11.8533 3.09758 10.7858L2.74176 5.41335C2.73592 5.33752 2.76509 5.25578 2.81759 5.19745C2.87592 5.13912 2.95176 5.10417 3.03342 5.10417H10.9667C11.0484 5.10417 11.1242 5.13912 11.1826 5.19745C11.2351 5.25578 11.2642 5.33752 11.2584 5.41335ZM6.41675 7.14583C6.41675 6.825 6.15425 6.5625 5.83341 6.5625C5.51258 6.5625 5.25008 6.825 5.25008 7.14583V10.0625C5.25008 10.3833 5.51258 10.6458 5.83341 10.6458C6.15425 10.6458 6.41675 10.3833 6.41675 10.0625V7.14583ZM8.75008 7.14583C8.75008 6.825 8.48758 6.5625 8.16675 6.5625C7.84591 6.5625 7.58341 6.825 7.58341 7.14583V10.0625C7.58341 10.3833 7.84591 10.6458 8.16675 10.6458C8.48758 10.6458 8.75008 10.3833 8.75008 10.0625V7.14583Z" fill="#812BE0"/>
</svg>
