<svg width="20" height="20" viewBox="0 0 20 20" fill="none" xmlns="http://www.w3.org/2000/svg">
<path fill-rule="evenodd" clip-rule="evenodd" d="M6.66634 7.5C4.82539 7.5 3.33301 8.99238 3.33301 10.8333V15C3.33301 16.8409 4.82539 18.3333 6.66634 18.3333H13.333C15.174 18.3333 16.6663 16.8409 16.6663 15V10.8333C16.6663 8.99238 15.174 7.5 13.333 7.5H6.66634Z" fill="#812BE0"/>
<path fill-rule="evenodd" clip-rule="evenodd" d="M6.66699 4.99996C6.66699 3.15901 8.15938 1.66663 10.0003 1.66663C11.8413 1.66663 13.3337 3.15901 13.3337 4.99996V5.41663C13.3337 5.87686 12.9606 6.24996 12.5003 6.24996C12.0401 6.24996 11.667 5.87686 11.667 5.41663V4.99996C11.667 4.07948 10.9208 3.33329 10.0003 3.33329C9.07985 3.33329 8.33366 4.07948 8.33366 4.99996V8.33329C8.33366 8.79353 7.96056 9.16663 7.50033 9.16663C7.04009 9.16663 6.66699 8.79353 6.66699 8.33329V4.99996Z" fill="#812BE0"/>
</svg>
