<svg width="8" height="8" viewBox="0 0 8 8" fill="none" xmlns="http://www.w3.org/2000/svg">
<path fill-rule="evenodd" clip-rule="evenodd" d="M2.51331 2.16667C2.51331 1.24619 3.2595 0.5 4.17997 0.5C5.10045 0.5 5.84664 1.24619 5.84664 2.16667C5.84664 3.08714 5.10045 3.83333 4.17997 3.83333C3.2595 3.83333 2.51331 3.08714 2.51331 2.16667ZM1.78037 4.96681C2.09273 4.58617 2.62574 4.33333 3.17999 4.33333H5.17999C5.73423 4.33333 6.26724 4.58617 6.5796 4.96681C6.73813 5.16 6.84958 5.39903 6.85929 5.66397C6.8692 5.93452 6.77153 6.19861 6.57012 6.42901C6.07927 6.99054 5.29556 7.33333 4.17999 7.33333C3.06441 7.33333 2.2807 6.99054 1.78985 6.42901C1.58844 6.19861 1.49077 5.93452 1.50069 5.66397C1.51039 5.39903 1.62184 5.16 1.78037 4.96681Z" fill="#812BE0"/>
</svg>
