<svg width="16" height="16" viewBox="0 0 16 16" fill="none" xmlns="http://www.w3.org/2000/svg">
<g clip-path="url(#clip0_498_8781)">
<path d="M5.5 8C5.5 8.63333 5.52823 9.2472 5.58113 9.83333H10.4189C10.4718 9.2472 10.5 8.63333 10.5 8C10.5 7.3667 10.4716 6.7528 10.4185 6.16666H5.5815C5.52837 6.7528 5.5 7.3667 5.5 8Z" fill="#812BE0"/>
<path d="M4.5776 6.16666C4.52673 6.75776 4.5 7.37143 4.5 8C4.5 8.62853 4.5266 9.2422 4.57727 9.83333H0.725687C0.578283 9.2466 0.5 8.63243 0.5 8C0.5 7.36756 0.578283 6.7534 0.725687 6.16666H4.5776Z" fill="#812BE0"/>
<path d="M5.69971 5.16667H10.3005C10.1524 4.15753 9.92831 3.25788 9.65077 2.51895C9.39121 1.82784 9.09444 1.30314 8.79067 0.960217C8.48617 0.61645 8.21771 0.5 8.00011 0.5C7.78251 0.5 7.51404 0.61645 7.20954 0.960217C6.90577 1.30314 6.60901 1.82784 6.34944 2.51895C6.07191 3.25788 5.84784 4.15753 5.69971 5.16667Z" fill="#812BE0"/>
<path d="M11.4224 6.16666C11.4732 6.75776 11.5 7.37143 11.5 8C11.5 8.62853 11.4734 9.2422 11.4227 9.83333H15.2743C15.4217 9.2466 15.5 8.63243 15.5 8C15.5 7.36756 15.4217 6.7534 15.2743 6.16666H11.4224Z" fill="#812BE0"/>
<path d="M14.9463 5.16667H11.3105C11.1539 4.03733 10.9058 3.01683 10.5868 2.16734C10.3832 1.62549 10.1459 1.13991 9.87573 0.736488C12.1822 1.33039 14.0591 2.99389 14.9463 5.16667Z" fill="#812BE0"/>
<path d="M4.68953 5.16667H1.05371C1.94087 2.99389 3.81783 1.33039 6.12427 0.736488C5.8541 1.13991 5.61677 1.62549 5.41323 2.16734C5.09417 3.01683 4.8461 4.03733 4.68953 5.16667Z" fill="#812BE0"/>
<path d="M4.68877 10.8333H1.05371C1.94039 13.005 3.81583 14.6678 6.1206 15.2626C5.85057 14.8592 5.61363 14.3739 5.41057 13.8324C5.09203 12.9829 4.84473 11.9625 4.68877 10.8333Z" fill="#812BE0"/>
<path d="M9.65313 13.4813C9.93023 12.7423 10.1536 11.8426 10.3012 10.8333H5.69873C5.84633 11.8426 6.0697 12.7423 6.3468 13.4813C6.60596 14.1723 6.90246 14.6969 7.20636 15.0396C7.51076 15.383 7.7801 15.5 7.99996 15.5C8.21983 15.5 8.48916 15.383 8.79356 15.0396C9.09746 14.6969 9.39396 14.1723 9.65313 13.4813Z" fill="#812BE0"/>
<path d="M10.5894 13.8324C10.908 12.9829 11.1553 11.9625 11.3112 10.8333H14.9463C14.0596 13.005 12.1842 14.6678 9.87939 15.2626C10.1494 14.8592 10.3864 14.3739 10.5894 13.8324Z" fill="#812BE0"/>
</g>
<defs>
<clipPath id="clip0_498_8781">
<rect width="16" height="16" fill="white"/>
</clipPath>
</defs>
</svg>
