<svg width="20" height="21" viewBox="0 0 20 21" fill="none" xmlns="http://www.w3.org/2000/svg">
<g clip-path="url(#clip0_4_13639)">
<path fill-rule="evenodd" clip-rule="evenodd" d="M16.0216 2.66042C16.0297 2.86173 16.0363 3.09054 16.0395 3.34294C16.2906 3.37097 16.52 3.39928 16.7279 3.42699C17.9202 3.58593 18.8397 4.49117 19.0108 5.68453C19.1846 6.89753 19.375 8.81237 19.375 11.3805C19.375 13.9487 19.1846 15.8635 19.0108 17.0765C18.8397 18.2699 17.9202 19.1751 16.7279 19.3341C15.3951 19.5117 13.1799 19.7139 10 19.7139C6.82008 19.7139 4.60487 19.5117 3.27213 19.3341C2.07974 19.1751 1.16025 18.2699 0.989229 17.0765C0.815392 15.8635 0.625 13.9487 0.625 11.3805C0.625 8.81237 0.815392 6.89753 0.989229 5.68453C1.16025 4.49117 2.07974 3.58593 3.27213 3.42699C3.48001 3.39928 3.70935 3.37098 3.96048 3.34294C3.96372 3.09054 3.97032 2.86173 3.97842 2.66042C4.01213 1.82285 4.58596 1.04829 5.54021 0.990766C5.74129 0.978646 5.97617 0.971191 6.25 0.971191C6.52383 0.971191 6.75871 0.978646 6.95979 0.990766C7.91404 1.04829 8.48787 1.82285 8.52158 2.66042C8.52654 2.7842 8.53096 2.91839 8.53437 3.06206C8.998 3.05247 9.48642 3.0472 10 3.0472C10.5136 3.0472 11.002 3.05247 11.4656 3.06206C11.469 2.91839 11.4735 2.7842 11.4784 2.66042C11.5121 1.82285 12.086 1.04829 13.0402 0.990766C13.2413 0.978646 13.4762 0.971191 13.75 0.971191C14.0238 0.971191 14.2587 0.978646 14.4598 0.990766C15.414 1.04829 15.9879 1.82285 16.0216 2.66042ZM14.3241 10.2677C14.745 9.72049 14.6427 8.93566 14.0955 8.51474C13.5483 8.09382 12.7635 8.1962 12.3425 8.74341L9.37587 12.6001L7.56196 10.7384C7.08017 10.244 6.28879 10.2337 5.79433 10.7155C5.29987 11.1973 5.28962 11.9887 5.77137 12.4831L8.59188 15.3779C8.84488 15.6375 9.19817 15.7745 9.56008 15.7534C9.922 15.7322 10.2569 15.555 10.478 15.2677L14.3241 10.2677Z" fill="#812BE0"/>
</g>
<defs>
<clipPath id="clip0_4_13639">
<rect width="20" height="20" fill="white" transform="translate(0 0.338867)"/>
</clipPath>
</defs>
</svg>
