<svg width="20" height="21" viewBox="0 0 20 21" fill="none" xmlns="http://www.w3.org/2000/svg">
<g clip-path="url(#clip0_4_18109)">
<path fill-rule="evenodd" clip-rule="evenodd" d="M7.86206 3.23658C8.76779 3.19139 9.51468 3.17445 10.0001 3.17445C10.4837 3.17445 11.2269 3.19127 12.1282 3.23608V1.64614C12.1282 1.0544 12.6079 0.574707 13.1997 0.574707C13.7914 0.574707 14.2711 1.0544 14.2711 1.64614V3.37961C14.6077 3.40798 14.9529 3.43989 15.3032 3.47567C17.5167 3.70177 19.2636 5.44448 19.4533 7.67738C19.5982 9.38119 19.6429 10.932 19.6429 11.6405C19.6429 12.349 19.5982 13.898 19.4535 15.6005C19.2636 17.8334 17.5167 19.5761 15.3032 19.8022C13.032 20.0341 10.9815 20.1032 10.0001 20.1032C9.01862 20.1032 6.96813 20.0341 4.69699 19.8022C2.48338 19.5761 0.736579 17.8334 0.546675 15.6005C0.401879 13.898 0.357178 12.349 0.357178 11.6405C0.357178 10.932 0.401895 9.38117 0.546755 7.67737C0.736599 5.44448 2.48338 3.70177 4.69698 3.47567C5.04388 3.44024 5.38562 3.40861 5.71921 3.38044V1.64614C5.71921 1.0544 6.19889 0.574707 6.79063 0.574707C7.38236 0.574707 7.86206 1.0544 7.86206 1.64614V3.23658ZM5.00003 8.32374C4.50692 8.32374 4.10718 8.72348 4.10718 9.21659C4.10718 9.70969 4.50692 10.1095 5.00003 10.1095H5.71432C6.20743 10.1095 6.60718 9.70969 6.60718 9.21659C6.60718 8.72348 6.20743 8.32374 5.71432 8.32374H5.00003ZM4.10718 13.5023C4.10718 13.0092 4.50692 12.6095 5.00003 12.6095H5.71432C6.20743 12.6095 6.60718 13.0092 6.60718 13.5023C6.60718 13.9954 6.20743 14.3952 5.71432 14.3952H5.00003C4.50692 14.3952 4.10718 13.9954 4.10718 13.5023ZM9.64289 8.32374C9.14978 8.32374 8.75003 8.72348 8.75003 9.21659C8.75003 9.70969 9.14978 10.1095 9.64289 10.1095H10.3572C10.8503 10.1095 11.25 9.70969 11.25 9.21659C11.25 8.72348 10.8503 8.32374 10.3572 8.32374H9.64289ZM13.3929 9.21659C13.3929 8.72348 13.7926 8.32374 14.2857 8.32374H15C15.4932 8.32374 15.8929 8.72348 15.8929 9.21659C15.8929 9.70969 15.4932 10.1095 15 10.1095H14.2857C13.7926 10.1095 13.3929 9.70969 13.3929 9.21659ZM9.64289 12.6095C9.14978 12.6095 8.75003 13.0092 8.75003 13.5023C8.75003 13.9954 9.14978 14.3952 9.64289 14.3952H10.3572C10.8503 14.3952 11.25 13.9954 11.25 13.5023C11.25 13.0092 10.8503 12.6095 10.3572 12.6095H9.64289Z" fill="#812BE0"/>
</g>
<defs>
<clipPath id="clip0_4_18109">
<rect width="20" height="20" fill="white" transform="translate(0 0.338867)"/>
</clipPath>
</defs>
</svg>
