<svg width="20" height="21" viewBox="0 0 20 21" fill="none" xmlns="http://www.w3.org/2000/svg">
<g clip-path="url(#clip0_4_16215)">
<path fill-rule="evenodd" clip-rule="evenodd" d="M2.14286 1.76758C1.57454 1.76758 1.02949 1.99334 0.627628 2.39521C0.225765 2.79707 0 3.34211 0 3.91044L0 13.9104C0 14.4788 0.225765 15.0238 0.627628 15.4257C1.02949 15.8275 1.57454 16.0533 2.14286 16.0533H7.83571L7.06857 18.1961H5.71429C5.43013 18.1961 5.1576 18.309 4.95667 18.51C4.75574 18.7109 4.64286 18.9834 4.64286 19.2676C4.64286 19.5517 4.75574 19.8243 4.95667 20.0252C5.1576 20.2261 5.43013 20.339 5.71429 20.339H14.2857C14.5699 20.339 14.8424 20.2261 15.0433 20.0252C15.2443 19.8243 15.3571 19.5517 15.3571 19.2676C15.3571 18.9834 15.2443 18.7109 15.0433 18.51C14.8424 18.309 14.5699 18.1961 14.2857 18.1961H12.9314L12.1643 16.0533H12.8571C13.236 16.0533 13.5994 15.9028 13.8673 15.6349C14.1352 15.367 14.2857 15.0036 14.2857 14.6247C14.2857 14.2458 14.1352 13.8825 13.8673 13.6146C13.5994 13.3467 13.236 13.1961 12.8571 13.1961H2.85714V4.62472H10C10.3789 4.62472 10.7422 4.47421 11.0102 4.2063C11.2781 3.93839 11.4286 3.57503 11.4286 3.19615C11.4286 2.81727 11.2781 2.45391 11.0102 2.186C10.7422 1.91809 10.3789 1.76758 10 1.76758H2.14286Z" fill="#812BE0"/>
<path fill-rule="evenodd" clip-rule="evenodd" d="M16.5472 0.338867C16.8313 0.338867 17.1038 0.45175 17.3048 0.652681C17.5057 0.853613 17.6186 1.12614 17.6186 1.4103V2.16458C18.1211 2.24913 18.5918 2.46659 18.9819 2.79441C19.372 3.12222 19.6673 3.54845 19.8372 4.02887C19.9265 4.29541 19.9075 4.58639 19.7843 4.83907C19.6611 5.09175 19.4435 5.28588 19.1785 5.3796C18.9135 5.47331 18.6222 5.45911 18.3675 5.34006C18.1129 5.221 17.9152 5.00662 17.8172 4.74315C17.7682 4.60361 17.6769 4.4828 17.556 4.39754C17.4352 4.31228 17.2908 4.26681 17.1429 4.26744H15.7614C15.633 4.26802 15.5093 4.31584 15.4139 4.4018C15.3184 4.48776 15.258 4.60583 15.244 4.7335C15.2301 4.86117 15.2636 4.98951 15.3382 5.09404C15.4128 5.19858 15.5233 5.272 15.6486 5.3003L17.7529 5.7603C18.4019 5.90122 18.9817 6.26387 19.3923 6.78591C19.803 7.30795 20.0189 7.95675 20.003 8.62076C19.9871 9.28477 19.7404 9.9225 19.3052 10.4243C18.8701 10.9261 18.2737 11.2606 17.6186 11.3703V12.1246C17.6186 12.4087 17.5057 12.6813 17.3048 12.8822C17.1038 13.0831 16.8313 13.196 16.5472 13.196C16.263 13.196 15.9905 13.0831 15.7895 12.8822C15.5886 12.6813 15.4757 12.4087 15.4757 12.1246V11.3703C14.9737 11.2849 14.5036 11.0672 14.1138 10.7394C13.7241 10.4117 13.4288 9.98593 13.2586 9.50601C13.1692 9.23947 13.1882 8.94849 13.3114 8.69581C13.4346 8.44313 13.6522 8.249 13.9172 8.15528C14.1823 8.06156 14.4735 8.07576 14.7282 8.19482C14.9829 8.31388 15.1805 8.52826 15.2786 8.79172C15.3279 8.93103 15.4193 9.0516 15.5401 9.13681C15.6608 9.22201 15.8051 9.26765 15.9529 9.26744H17.1429C17.3209 9.27022 17.4936 9.20639 17.627 9.08847C17.7605 8.97055 17.845 8.80704 17.8642 8.62999C17.8833 8.45295 17.8356 8.27515 17.7305 8.13144C17.6253 7.98773 17.4703 7.88848 17.2957 7.85315L15.1914 7.39315C14.5744 7.25679 14.0259 6.90566 13.6437 6.40239C13.2615 5.89913 13.0706 5.27646 13.1049 4.64546C13.1392 4.01447 13.3966 3.41618 13.8311 2.95734C14.2656 2.49849 14.849 2.20893 15.4772 2.1403V1.4103C15.4772 1.12614 15.59 0.853613 15.791 0.652681C15.9919 0.45175 16.263 0.338867 16.5472 0.338867Z" fill="#812BE0"/>
</g>
<defs>
<clipPath id="clip0_4_16215">
<rect width="20" height="20" fill="white" transform="translate(0 0.338867)"/>
</clipPath>
</defs>
</svg>
