<svg width="20" height="21" viewBox="0 0 20 21" fill="none" xmlns="http://www.w3.org/2000/svg">
<g clip-path="url(#clip0_4_8587)">
<path fill-rule="evenodd" clip-rule="evenodd" d="M6.78545 1.58901C6.78545 0.997272 7.26515 0.517578 7.85687 0.517578H9.99973H12.1426C12.7343 0.517578 13.214 0.997272 13.214 1.58901C13.214 2.18074 12.7343 2.66044 12.1426 2.66044H11.0712V4.51859C14.9037 5.04115 17.8569 8.32735 17.8569 12.3033C17.8569 16.6427 14.3392 20.1604 9.99973 20.1604C5.66035 20.1604 2.14259 16.6427 2.14259 12.3033C2.14259 8.32735 5.09579 5.04115 8.9283 4.51859V2.66044H7.85687C7.26515 2.66044 6.78545 2.18074 6.78545 1.58901ZM4.02157 4.23033C4.4968 3.87776 4.59626 3.20671 4.24369 2.73146C3.89113 2.25624 3.22007 2.15679 2.74483 2.50935C1.79703 3.21249 0.954995 4.04989 0.246687 4.99358C-0.108525 5.46683 -0.0128317 6.13845 0.460426 6.49366C0.933683 6.84888 1.60529 6.75318 1.9605 6.27992C2.54485 5.50139 3.23967 4.81039 4.02157 4.23033ZM15.7564 2.73146C15.4039 3.20671 15.5033 3.87776 15.9786 4.23033C16.7604 4.81039 17.4553 5.50139 18.0396 6.27992C18.3949 6.75318 19.0664 6.84888 19.5397 6.49366C20.013 6.13845 20.1087 5.46683 19.7534 4.99358C19.0452 4.04989 18.2032 3.21249 17.2553 2.50935C16.7802 2.15679 16.109 2.25624 15.7564 2.73146ZM9.99973 8.56725C10.4928 8.56725 10.8926 8.96699 10.8926 9.46011V11.9474L12.3454 13.4002C12.694 13.7489 12.694 14.3142 12.3454 14.6629C11.9967 15.0116 11.4314 15.0116 11.0827 14.6629L9.36839 12.9486C9.20095 12.7811 9.10687 12.554 9.10687 12.3172V9.46011C9.10687 8.96699 9.50662 8.56725 9.99973 8.56725Z" fill="#812BE0"/>
</g>
<defs>
<clipPath id="clip0_4_8587">
<rect width="20" height="20" fill="white" transform="translate(0 0.338867)"/>
</clipPath>
</defs>
</svg>
