<svg width="24" height="24" viewBox="0 0 24 24" fill="none" xmlns="http://www.w3.org/2000/svg">
<g clip-path="url(#clip0_5_23575)">
<path fill-rule="evenodd" clip-rule="evenodd" d="M10.7157 1.04848C11.1344 0.878735 11.5698 0.75 11.9359 0.75C12.2994 0.75 12.7403 0.877275 13.1677 1.04592C13.6183 1.2237 14.1348 1.4804 14.6746 1.80573C15.7519 2.45502 16.9643 3.4033 17.9557 4.60549C18.2779 4.99628 18.46 5.4674 18.5037 5.95515C18.7087 8.24385 18.7541 12.3982 18.7498 15.9486C18.7476 17.7306 18.7327 19.3715 18.7185 20.5667L18.7162 20.75H19.9664L19.9684 20.5815C19.9826 19.3831 19.9976 17.7376 19.9998 15.95C20.003 13.3006 19.9789 10.2737 19.8781 7.9312C21.1157 8.0958 22.0676 9.1073 22.1308 10.3806C22.1896 11.5645 22.25 13.3708 22.25 15.7994V20.75H22.5C23.1903 20.75 23.75 21.3097 23.75 22C23.75 22.6903 23.1903 23.25 22.5 23.25H1.5C0.809645 23.25 0.25 22.6903 0.25 22C0.25 21.3097 0.809645 20.75 1.5 20.75H1.75V15.7994C1.75 13.3708 1.81034 11.5645 1.86916 10.3806C1.93243 9.10725 2.88436 8.0958 4.12192 7.93115C4.02108 10.2737 3.99702 13.3006 4.00029 15.95C4.00249 17.7376 4.01734 19.3831 4.03163 20.5815L4.03368 20.75H5.28375L5.28155 20.5667C5.2673 19.3715 5.2525 17.7306 5.2503 15.9486C5.2459 12.3982 5.2913 8.24385 5.49635 5.95515C5.54005 5.46695 5.72245 4.9971 6.04205 4.60685C7.02305 3.40902 8.2 2.46139 9.24765 1.81078C9.77225 1.48501 10.2747 1.22728 10.7157 1.04848ZM14.25 18.4995V20.75H9.75V18.4995C9.75 17.2567 10.7575 16.25 12 16.25C13.2425 16.25 14.25 17.2567 14.25 18.4995ZM12 4.25C11.0335 4.25 10.25 5.0335 10.25 6C10.25 6.9665 11.0335 7.75 12 7.75C12.9665 7.75 13.75 6.9665 13.75 6C13.75 5.0335 12.9665 4.25 12 4.25ZM10 8.75C10.4142 8.75 10.75 9.0858 10.75 9.5V10.5C10.75 10.9142 10.4142 11.25 10 11.25C9.5858 11.25 9.25 10.9142 9.25 10.5V9.5C9.25 9.0858 9.5858 8.75 10 8.75ZM10.75 13C10.75 12.5858 10.4142 12.25 10 12.25C9.5858 12.25 9.25 12.5858 9.25 13V14C9.25 14.4142 9.5858 14.75 10 14.75C10.4142 14.75 10.75 14.4142 10.75 14V13ZM14 8.75C14.4142 8.75 14.75 9.0858 14.75 9.5V10.5C14.75 10.9142 14.4142 11.25 14 11.25C13.5858 11.25 13.25 10.9142 13.25 10.5V9.5C13.25 9.0858 13.5858 8.75 14 8.75ZM14.75 13C14.75 12.5858 14.4142 12.25 14 12.25C13.5858 12.25 13.25 12.5858 13.25 13V14C13.25 14.4142 13.5858 14.75 14 14.75C14.4142 14.75 14.75 14.4142 14.75 14V13Z" fill="#812BE0"/>
</g>
<defs>
<clipPath id="clip0_5_23575">
<rect width="24" height="24" fill="white"/>
</clipPath>
</defs>
</svg>
