<svg width="20" height="20" viewBox="0 0 20 20" fill="none" xmlns="http://www.w3.org/2000/svg">
<path d="M10.0001 1.66675C5.40841 1.66675 1.66675 5.40841 1.66675 10.0001C1.66675 14.5917 5.40841 18.3334 10.0001 18.3334C14.5917 18.3334 18.3334 14.5917 18.3334 10.0001C18.3334 5.40841 14.5917 1.66675 10.0001 1.66675ZM13.9251 8.92505L9.75841 13.0917C9.59174 13.25 9.38342 13.3334 9.16675 13.3334C8.95008 13.3334 8.74176 13.25 8.57509 13.0917L6.07509 10.5917C5.75009 10.2667 5.75009 9.73345 6.07509 9.40845C6.40009 9.08345 6.93341 9.08345 7.25841 9.40845L9.16675 11.3252L12.7418 7.74178C13.0668 7.41678 13.6001 7.41678 13.9251 7.74178C14.2501 8.06678 14.2501 8.60005 13.9251 8.92505Z" fill="#812BE0"/>
</svg>
