<svg width="20" height="20" viewBox="0 0 20 20" fill="none" xmlns="http://www.w3.org/2000/svg">
<path fill-rule="evenodd" clip-rule="evenodd" d="M10 14.3752C6.89042 14.3752 4.72071 14.2965 3.36609 14.2223C2.0381 14.1496 0.928737 13.1851 0.793783 11.8155C0.703458 10.8988 0.625 9.61404 0.625 7.91683C0.625 6.21962 0.703458 4.93487 0.793787 4.01818C0.928737 2.64856 2.0381 1.68405 3.36609 1.61133C4.72071 1.53716 6.89042 1.4585 10 1.4585C13.1096 1.4585 15.2793 1.53716 16.6339 1.61133C17.9619 1.68405 19.0712 2.64856 19.2062 4.01818C19.2965 4.93487 19.375 6.21962 19.375 7.91683C19.375 9.61404 19.2965 10.8988 19.2062 11.8155C19.0712 13.1851 17.9619 14.1496 16.6339 14.2223C15.2793 14.2965 13.1096 14.3752 10 14.3752ZM10 3.9585C10.3452 3.9585 10.625 4.23833 10.625 4.5835V4.96566C10.9557 5.02416 11.2377 5.12141 11.4588 5.21812C11.6645 5.30808 11.8665 5.41275 12.0458 5.54895C12.3142 5.75391 12.3683 6.15745 12.163 6.4257C11.9542 6.69854 11.5646 6.75145 11.2907 6.54508C10.9255 6.2795 10.449 6.16087 10 6.16087C9.70046 6.16087 9.40896 6.25429 9.20575 6.39254C8.99804 6.53383 8.95837 6.66187 8.95837 6.72612C8.95837 6.87637 9.0235 6.95704 9.15296 7.0275C9.40954 7.16712 9.71179 7.225 10.0015 7.28045C10.0581 7.29129 10.1143 7.30204 10.1695 7.31329C10.5525 7.39125 11.0485 7.49216 11.4446 7.70775C11.9705 7.99391 12.2917 8.50379 12.2917 9.10708C12.2917 9.72308 11.9147 10.1903 11.4974 10.4742C11.2412 10.6485 10.9411 10.7765 10.625 10.8501V11.2504C10.625 11.5956 10.3452 11.8754 10 11.8754C9.65483 11.8754 9.375 11.5956 9.375 11.2504V10.8675C8.87887 10.7797 8.35742 10.5926 7.95354 10.2837C7.67942 10.0739 7.62725 9.68162 7.83704 9.4075C8.04583 9.13466 8.43546 9.0817 8.70937 9.28812C9.07092 9.55104 9.56092 9.67254 10 9.67254C10.2982 9.67254 10.5911 9.57891 10.7943 9.44066C11.002 9.29937 11.0417 9.17133 11.0417 9.10708C11.0417 8.95683 10.9766 8.87616 10.8471 8.8057C10.5905 8.66608 10.2884 8.60825 9.99875 8.55279C9.94204 8.54191 9.88583 8.53116 9.8305 8.51991C9.4475 8.44195 8.95158 8.341 8.55546 8.12541C8.02962 7.83929 7.70837 7.32941 7.70837 6.72612C7.70837 6.11008 8.08538 5.64287 8.50267 5.359C8.75892 5.1847 9.05896 5.0567 9.375 4.98308V4.5835C9.375 4.23833 9.65483 3.9585 10 3.9585ZM15.4167 7.0835C14.9564 7.0835 14.5833 7.45658 14.5833 7.91683C14.5833 8.37708 14.9564 8.75016 15.4167 8.75016H15.8333C16.2936 8.75016 16.6667 8.37708 16.6667 7.91683C16.6667 7.45658 16.2936 7.0835 15.8333 7.0835H15.4167ZM3.33333 7.91683C3.33333 7.45658 3.70643 7.0835 4.16667 7.0835H4.58333C5.04358 7.0835 5.41667 7.45658 5.41667 7.91683C5.41667 8.37708 5.04358 8.75016 4.58333 8.75016H4.16667C3.70643 8.75016 3.33333 8.37708 3.33333 7.91683ZM3.01735 15.0264C3.20516 14.7368 3.59219 14.6542 3.8818 14.842C4.09425 14.9798 4.35246 15.0674 4.63996 15.0831C5.78958 15.146 7.54779 15.2083 10.0001 15.2083C12.4523 15.2083 14.2105 15.146 15.3602 15.0831C15.6477 15.0674 15.9059 14.9798 16.1183 14.842C16.408 14.6542 16.795 14.7368 16.9828 15.0264C17.1706 15.316 17.0881 15.703 16.7985 15.8908C16.3997 16.1494 15.9299 16.3038 15.4284 16.3312C14.2545 16.3955 12.4734 16.4583 10.0001 16.4583C7.52671 16.4583 5.74567 16.3955 4.57175 16.3312C4.07025 16.3038 3.60045 16.1494 3.20168 15.8908C2.91207 15.703 2.82954 15.316 3.01735 15.0264ZM4.84804 17.3836C4.99117 17.0695 5.36183 16.9309 5.67592 17.074C5.84346 17.1503 6.03288 17.198 6.23838 17.2085C7.11963 17.2532 8.35938 17.2922 10.0002 17.2922C11.641 17.2922 12.8807 17.2532 13.7619 17.2085C13.9675 17.198 14.1568 17.1503 14.3244 17.074C14.6385 16.9309 15.0091 17.0695 15.1522 17.3836C15.2953 17.6977 15.1567 18.0684 14.8426 18.2115C14.5297 18.354 14.1858 18.4386 13.8252 18.4569C12.9216 18.5027 11.6608 18.5422 10.0002 18.5422C8.33954 18.5422 7.07867 18.5027 6.17508 18.4569C5.8145 18.4386 5.47054 18.354 5.15771 18.2115C4.84358 18.0684 4.70496 17.6977 4.84804 17.3836Z" fill="#812BE0"/>
</svg>
