<svg width="20" height="20" viewBox="0 0 20 20" fill="none" xmlns="http://www.w3.org/2000/svg">
<path fill-rule="evenodd" clip-rule="evenodd" d="M2.14286 0C1.57454 0 1.02949 0.226541 0.627628 0.629788C0.225765 1.03303 0 1.57995 0 2.15023L0 15.7683C0 16.3386 0.225765 16.8855 0.627628 17.2888C1.02949 17.692 1.57454 17.9186 2.14286 17.9186V18.9249C2.14286 19.21 2.25574 19.4835 2.45667 19.6851C2.6576 19.8867 2.93013 20 3.21429 20C3.49845 20 3.77097 19.8867 3.9719 19.6851C4.17283 19.4835 4.28571 19.21 4.28571 18.9249V17.9186H15.7143V18.9249C15.7143 19.21 15.8272 19.4835 16.0281 19.6851C16.229 19.8867 16.5016 20 16.7857 20C17.0699 20 17.3424 19.8867 17.5433 19.6851C17.7443 19.4835 17.8571 19.21 17.8571 18.9249V17.9186C18.4255 17.9186 18.9705 17.692 19.3724 17.2888C19.7742 16.8855 20 16.3386 20 15.7683V2.15023C20 1.57995 19.7742 1.03303 19.3724 0.629788C18.9705 0.226541 18.4255 0 17.8571 0L2.14286 0ZM12.5 7.08572C11.47 7.08572 10.6343 7.92288 10.6329 8.95499V8.95929V8.96359C10.6337 9.33396 10.7439 9.69577 10.9496 10.0033C11.1553 10.3109 11.4472 10.5503 11.7884 10.6915C12.1297 10.8326 12.505 10.8691 12.8669 10.7963C13.2288 10.7236 13.5611 10.5448 13.8218 10.2826C14.0825 10.0204 14.2599 9.68654 14.3316 9.32322C14.4033 8.95991 14.366 8.58342 14.2246 8.24132C14.0832 7.89922 13.8438 7.60686 13.5369 7.40118C13.2299 7.1955 12.8691 7.08572 12.5 7.08572ZM11.6057 5.40424C11.2605 5.49095 10.9298 5.62812 10.6243 5.81135L9.78571 4.9699C9.61825 4.80186 9.39112 4.70745 9.15429 4.70745C8.91745 4.70745 8.69032 4.80186 8.52286 4.9699C8.35539 5.13794 8.26131 5.36585 8.26131 5.6035C8.26131 5.84114 8.35539 6.06906 8.52286 6.2371L9.36143 7.07856C9.17883 7.3851 9.04213 7.71692 8.95571 8.06336H7.76714C7.53034 8.06336 7.30324 8.15775 7.1358 8.32577C6.96835 8.49379 6.87429 8.72167 6.87429 8.95929C6.87429 9.1969 6.96835 9.42479 7.1358 9.59281C7.30324 9.76083 7.53034 9.85522 7.76714 9.85522H8.95571C9.04286 10.2064 9.18143 10.5376 9.36143 10.84L8.52286 11.6815C8.35539 11.8495 8.26131 12.0774 8.26131 12.3151C8.26131 12.5527 8.35539 12.7806 8.52286 12.9487C8.69032 13.1167 8.91745 13.2111 9.15429 13.2111C9.39112 13.2111 9.61825 13.1167 9.78571 12.9487L10.6243 12.1072C10.9257 12.2878 11.2557 12.4269 11.6057 12.5143V13.707C11.6057 13.9446 11.6998 14.1725 11.8672 14.3405C12.0347 14.5085 12.2618 14.6029 12.4986 14.6029C12.7354 14.6029 12.9625 14.5085 13.1299 14.3405C13.2974 14.1725 13.3914 13.9446 13.3914 13.707V12.5143C13.7414 12.4269 14.0714 12.2878 14.3729 12.1072L15.2114 12.9487C15.3789 13.1167 15.606 13.2111 15.8429 13.2111C16.0797 13.2111 16.3068 13.1167 16.4743 12.9487C16.6418 12.7806 16.7358 12.5527 16.7358 12.3151C16.7358 12.0774 16.6418 11.8495 16.4743 11.6815L15.6357 10.84C15.8157 10.5376 15.9543 10.2064 16.0414 9.85522H17.23C17.4668 9.85522 17.6939 9.76083 17.8613 9.59281C18.0288 9.42479 18.1229 9.1969 18.1229 8.95929C18.1229 8.72167 18.0288 8.49379 17.8613 8.32577C17.6939 8.15775 17.4668 8.06336 17.23 8.06336H16.0414C15.955 7.71693 15.8183 7.38512 15.6357 7.07856L16.4743 6.2371C16.5572 6.15389 16.623 6.05511 16.6679 5.9464C16.7127 5.83769 16.7358 5.72117 16.7358 5.6035C16.7358 5.48583 16.7127 5.36931 16.6679 5.2606C16.623 5.15188 16.5572 5.0531 16.4743 4.9699C16.3914 4.88669 16.2929 4.82069 16.1846 4.77566C16.0762 4.73063 15.9601 4.70745 15.8429 4.70745C15.7256 4.70745 15.6095 4.73063 15.5011 4.77566C15.3928 4.82069 15.2943 4.88669 15.2114 4.9699L14.3729 5.81135C14.0674 5.62814 13.7367 5.49097 13.3914 5.40424V4.21158C13.3914 3.97397 13.2974 3.74608 13.1299 3.57807C12.9625 3.41005 12.7354 3.31565 12.4986 3.31565C12.2618 3.31565 12.0347 3.41005 11.8672 3.57807C11.6998 3.74608 11.6057 3.97397 11.6057 4.21158V5.40424ZM4.45286 5.92603C4.45286 5.68842 4.35879 5.46053 4.19135 5.29251C4.0239 5.1245 3.7968 5.0301 3.56 5.0301C3.3232 5.0301 3.0961 5.1245 2.92865 5.29251C2.76121 5.46053 2.66714 5.68842 2.66714 5.92603V11.9925C2.66714 12.2302 2.76121 12.458 2.92865 12.6261C3.0961 12.7941 3.3232 12.8885 3.56 12.8885C3.7968 12.8885 4.0239 12.7941 4.19135 12.6261C4.35879 12.458 4.45286 12.2302 4.45286 11.9925V5.92603Z" fill="#812BE0"/>
</svg>
