<svg width="20" height="20" viewBox="0 0 20 20" fill="none" xmlns="http://www.w3.org/2000/svg">
<g clip-path="url(#clip0_655_66706)">
<path fill-rule="evenodd" clip-rule="evenodd" d="M2.14286 10C2.14286 5.66061 5.66061 2.14286 10 2.14286C14.3394 2.14286 17.8571 5.66061 17.8571 10C17.8571 10.7105 17.7629 11.399 17.586 12.0536H12.0856L15.1567 7.76684C15.5013 7.28581 15.3907 6.6165 14.9097 6.27189C14.4287 5.92726 13.7594 6.03784 13.4147 6.51887L9.44959 12.0536H2.41394C2.23716 11.399 2.14286 10.7105 2.14286 10ZM7.0263 19.5504C2.95561 18.2843 0 14.4873 0 10C0 4.47716 4.47716 0 10 0C15.5229 0 20 4.47716 20 10C20 15.5229 15.5229 20 10 20" fill="#812BE0"/>
</g>
<defs>
<clipPath id="clip0_655_66706">
<rect width="20" height="20" fill="white"/>
</clipPath>
</defs>
</svg>
