<svg width="24" height="24" viewBox="0 0 24 24" fill="none" xmlns="http://www.w3.org/2000/svg">
<path fill-rule="evenodd" clip-rule="evenodd" d="M13.9182 6.09274C14.2122 5.1989 15.4766 5.19891 15.7706 6.09274L16.6514 8.77095L19.3296 9.65173C20.2234 9.9457 20.2234 11.2101 19.3296 11.5041L16.6514 12.3849L15.7706 15.0631C15.4766 15.9569 14.2122 15.9569 13.9182 15.0631L13.0374 12.3849L10.3592 11.5041C9.46539 11.2101 9.46539 9.9457 10.3592 9.65173L13.0374 8.77095L13.9182 6.09274Z" fill="#812BE0"/>
<path d="M10.007 12.4385C9.73678 11.6169 8.57454 11.6169 8.30435 12.4385L7.65557 14.4111L5.68296 15.0599C4.86138 15.33 4.86138 16.4923 5.68296 16.7625L7.65557 17.4112L8.30435 19.3839C8.57454 20.2054 9.73678 20.2054 10.007 19.3839L10.6557 17.4112L12.6284 16.7625C13.4499 16.4923 13.4499 15.33 12.6284 15.0599L10.6557 14.4111L10.007 12.4385Z" fill="#812BE0"/>
<path d="M8.55018 4.59125C8.29091 3.80292 7.17575 3.80292 6.91648 4.59125L6.34101 6.34101L4.59125 6.91648C3.80292 7.17575 3.80292 8.29091 4.59125 8.55018L6.34101 9.12565L6.91648 10.8754C7.17575 11.6637 8.29091 11.6637 8.55018 10.8754L9.12565 9.12565L10.8754 8.55018C11.6637 8.29091 11.6637 7.17575 10.8754 6.91648L9.12565 6.34101L8.55018 4.59125Z" fill="#812BE0"/>
</svg>
