<svg width="84" height="128" viewBox="0 0 84 128" fill="none" xmlns="http://www.w3.org/2000/svg">
<path d="M47.0765 29.0498C56.8692 29.0498 66.2607 32.8755 73.1851 39.6854C80.1096 46.4952 83.9997 55.7313 83.9997 65.3619C83.9997 74.9924 80.1096 84.2285 73.1851 91.0384C66.2607 97.8482 56.8692 101.674 47.0765 101.674L47.0765 29.0498Z" fill="#812BE0"/>
<g filter="url(#filter0_biiii_655_83629)">
<path d="M65.5386 0C48.1567 -2.03847e-07 31.4867 6.74284 19.1958 18.7452C6.90494 30.7475 1.51812e-06 47.0261 0 64C-1.51811e-06 80.9738 6.90493 97.2525 19.1958 109.255C31.4867 121.257 48.1567 128 65.5386 128L65.5386 0Z" fill="url(#paint0_linear_655_83629)"/>
</g>
<path d="M48.9235 43.5752C54.799 43.5752 60.434 45.8706 64.5886 49.9565C68.7433 54.0424 71.0774 59.5841 71.0774 65.3625C71.0774 71.1408 68.7433 76.6825 64.5886 80.7684C60.434 84.8543 54.799 87.1497 48.9235 87.1497L48.9235 43.5752Z" fill="url(#paint1_linear_655_83629)"/>
<defs>
<filter id="filter0_biiii_655_83629" x="-134.4" y="-134.4" width="334.339" height="396.8" filterUnits="userSpaceOnUse" color-interpolation-filters="sRGB">
<feFlood flood-opacity="0" result="BackgroundImageFix"/>
<feGaussianBlur in="BackgroundImageFix" stdDeviation="67.2"/>
<feComposite in2="SourceAlpha" operator="in" result="effect1_backgroundBlur_655_83629"/>
<feBlend mode="normal" in="SourceGraphic" in2="effect1_backgroundBlur_655_83629" result="shape"/>
<feColorMatrix in="SourceAlpha" type="matrix" values="0 0 0 0 0 0 0 0 0 0 0 0 0 0 0 0 0 0 127 0" result="hardAlpha"/>
<feOffset dx="64" dy="64"/>
<feGaussianBlur stdDeviation="73.6"/>
<feComposite in2="hardAlpha" operator="arithmetic" k2="-1" k3="1"/>
<feColorMatrix type="matrix" values="0 0 0 0 0.6 0 0 0 0 0.368627 0 0 0 0 0.831373 0 0 0 0.18 0"/>
<feBlend mode="normal" in2="shape" result="effect2_innerShadow_655_83629"/>
<feColorMatrix in="SourceAlpha" type="matrix" values="0 0 0 0 0 0 0 0 0 0 0 0 0 0 0 0 0 0 127 0" result="hardAlpha"/>
<feMorphology radius="12.8" operator="erode" in="SourceAlpha" result="effect3_innerShadow_655_83629"/>
<feOffset dy="12.8"/>
<feGaussianBlur stdDeviation="19.2"/>
<feComposite in2="hardAlpha" operator="arithmetic" k2="-1" k3="1"/>
<feColorMatrix type="matrix" values="0 0 0 0 1 0 0 0 0 1 0 0 0 0 1 0 0 0 0.05 0"/>
<feBlend mode="normal" in2="effect2_innerShadow_655_83629" result="effect3_innerShadow_655_83629"/>
<feColorMatrix in="SourceAlpha" type="matrix" values="0 0 0 0 0 0 0 0 0 0 0 0 0 0 0 0 0 0 127 0" result="hardAlpha"/>
<feOffset dy="6.4"/>
<feComposite in2="hardAlpha" operator="arithmetic" k2="-1" k3="1"/>
<feColorMatrix type="matrix" values="0 0 0 0 1 0 0 0 0 1 0 0 0 0 1 0 0 0 0.05 0"/>
<feBlend mode="normal" in2="effect3_innerShadow_655_83629" result="effect4_innerShadow_655_83629"/>
<feColorMatrix in="SourceAlpha" type="matrix" values="0 0 0 0 0 0 0 0 0 0 0 0 0 0 0 0 0 0 127 0" result="hardAlpha"/>
<feOffset dy="-64"/>
<feGaussianBlur stdDeviation="32"/>
<feComposite in2="hardAlpha" operator="arithmetic" k2="-1" k3="1"/>
<feColorMatrix type="matrix" values="0 0 0 0 0.6 0 0 0 0 0.368627 0 0 0 0 0.831373 0 0 0 0.4 0"/>
<feBlend mode="overlay" in2="effect4_innerShadow_655_83629" result="effect5_innerShadow_655_83629"/>
</filter>
<linearGradient id="paint0_linear_655_83629" x1="32.7693" y1="253.37" x2="-89.1722" y2="87.8739" gradientUnits="userSpaceOnUse">
<stop stop-color="#995ED4" stop-opacity="0.01"/>
<stop offset="1" stop-color="#995ED4" stop-opacity="0.12"/>
</linearGradient>
<linearGradient id="paint1_linear_655_83629" x1="60.0004" y1="25.6785" x2="60.0004" y2="87.1497" gradientUnits="userSpaceOnUse">
<stop stop-color="white"/>
<stop offset="1" stop-color="white" stop-opacity="0"/>
</linearGradient>
</defs>
</svg>
