<svg width="20" height="20" viewBox="0 0 20 20" fill="none" xmlns="http://www.w3.org/2000/svg">
<g clip-path="url(#clip0_655_14574)">
<path d="M6.875 9.99992C6.875 10.7916 6.91029 11.5589 6.97642 12.2916H13.0236C13.0897 11.5589 13.125 10.7916 13.125 9.99992C13.125 9.20829 13.0895 8.44092 13.0231 7.70825H6.97687C6.91046 8.44092 6.875 9.20829 6.875 9.99992Z" fill="#812BE0"/>
<path d="M5.722 7.70825C5.65842 8.44713 5.625 9.21421 5.625 9.99992C5.625 10.7856 5.65825 11.5527 5.72158 12.2916H0.907108C0.722854 11.5582 0.625 10.7905 0.625 9.99992C0.625 9.20938 0.722854 8.44167 0.907108 7.70825H5.722Z" fill="#812BE0"/>
<path d="M7.12451 6.45833H12.8755C12.6903 5.19692 12.4103 4.07235 12.0633 3.14869C11.7389 2.2848 11.3679 1.62892 10.9882 1.20027C10.6076 0.770563 10.272 0.625 10 0.625C9.72801 0.625 9.39243 0.770563 9.0118 1.20027C8.63209 1.62892 8.26114 2.2848 7.93668 3.14869C7.58976 4.07235 7.30968 5.19692 7.12451 6.45833Z" fill="#812BE0"/>
<path d="M14.278 7.70825C14.3416 8.44713 14.375 9.21421 14.375 9.99992C14.375 10.7856 14.3418 11.5527 14.2784 12.2916H19.0929C19.2772 11.5582 19.375 10.7905 19.375 9.99992C19.375 9.20938 19.2772 8.44167 19.0929 7.70825H14.278Z" fill="#812BE0"/>
<path d="M18.683 6.45838H14.1382C13.9425 5.04671 13.6324 3.77108 13.2335 2.70922C12.9791 2.0319 12.6825 1.42494 12.3448 0.920654C15.2278 1.66304 17.574 3.74241 18.683 6.45838Z" fill="#812BE0"/>
<path d="M5.86183 6.45838H1.31705C2.42599 3.74241 4.7722 1.66304 7.65524 0.920654C7.31754 1.42494 7.02087 2.0319 6.76645 2.70922C6.36762 3.77108 6.05754 5.04671 5.86183 6.45838Z" fill="#812BE0"/>
<path d="M5.86087 13.5417H1.31705C2.4254 16.2563 4.7697 18.3349 7.65066 19.0783C7.31312 18.5741 7.01695 17.9674 6.76312 17.2906C6.36495 16.2287 6.05583 14.9532 5.86087 13.5417Z" fill="#812BE0"/>
<path d="M12.0664 16.8517C12.4128 15.928 12.692 14.8034 12.8765 13.5417H7.12344C7.30794 14.8034 7.58715 15.928 7.93353 16.8517C8.25749 17.7155 8.62811 18.3712 9.00798 18.7996C9.38848 19.2288 9.72515 19.3751 9.99998 19.3751C10.2748 19.3751 10.6115 19.2288 10.992 18.7996C11.3719 18.3712 11.7425 17.7155 12.0664 16.8517Z" fill="#812BE0"/>
<path d="M13.2369 17.2906C13.635 16.2287 13.9442 14.9532 14.1391 13.5417H18.683C17.5746 16.2563 15.2303 18.3349 12.3493 19.0783C12.6869 18.5741 12.983 17.9674 13.2369 17.2906Z" fill="#812BE0"/>
</g>
<defs>
<clipPath id="clip0_655_14574">
<rect width="20" height="20" fill="white"/>
</clipPath>
</defs>
</svg>
