<svg width="16" height="12" viewBox="0 0 16 12" fill="none" xmlns="http://www.w3.org/2000/svg">
<g clip-path="url(#clip0_1_1356)">
<rect width="16" height="12" fill="white"/>
<path fill-rule="evenodd" clip-rule="evenodd" d="M0 0H16V12H0V0Z" fill="#E31D1C"/>
<path fill-rule="evenodd" clip-rule="evenodd" d="M0 1V2H16V1H0ZM0 3V4H16V3H0ZM0 6V5H16V6H0ZM0 7V8H16V7H0ZM0 10V9H16V10H0ZM0 12V11H16V12H0Z" fill="#F7FCFF"/>
<rect width="9" height="7" fill="#2E42A5"/>
<path fill-rule="evenodd" clip-rule="evenodd" d="M1.04005 2.17375L1.56997 1.80462L1.98103 2.10055H1.74829L2.21896 2.51685L2.05999 3.10055H1.811L1.56923 2.56445L1.36305 3.10055H0.748291L1.21896 3.51685L1.04005 4.17375L1.56997 3.80462L1.98103 4.10055H1.74829L2.21896 4.51685L2.05999 5.10055H1.811L1.56923 4.56445L1.36305 5.10055H0.748291L1.21896 5.51685L1.04005 6.17375L1.56997 5.80462L2.08271 6.17375L1.92329 5.51685L2.33506 5.10055H2.14514L2.56997 4.80462L2.98103 5.10055H2.74829L3.21896 5.51685L3.04005 6.17375L3.56997 5.80462L4.08271 6.17375L3.92329 5.51685L4.33506 5.10055H4.14514L4.56997 4.80462L4.98103 5.10055H4.74829L5.21896 5.51685L5.04005 6.17375L5.56997 5.80462L6.08271 6.17375L5.92329 5.51685L6.33506 5.10055H6.14514L6.56997 4.80462L6.98103 5.10055H6.74829L7.21896 5.51685L7.04005 6.17375L7.56997 5.80462L8.08271 6.17375L7.92329 5.51685L8.33506 5.10055H7.811L7.56923 4.56445L7.36305 5.10055H7.06494L6.92329 4.51685L7.33506 4.10055H7.14514L7.56997 3.80462L8.08271 4.17375L7.92329 3.51685L8.33506 3.10055H7.811L7.56923 2.56445L7.36305 3.10055H7.06494L6.92329 2.51685L7.33506 2.10055H7.14514L7.56997 1.80462L8.08271 2.17375L7.92329 1.51685L8.33506 1.10055H7.811L7.56923 0.564453L7.36305 1.10055H6.74829L7.21896 1.51685L7.05999 2.10055H6.811L6.56923 1.56445L6.36305 2.10055H6.06494L5.92329 1.51685L6.33506 1.10055H5.811L5.56923 0.564453L5.36305 1.10055H4.74829L5.21896 1.51685L5.05999 2.10055H4.811L4.56923 1.56445L4.36305 2.10055H4.06494L3.92329 1.51685L4.33506 1.10055H3.811L3.56923 0.564453L3.36305 1.10055H2.74829L3.21896 1.51685L3.05999 2.10055H2.811L2.56923 1.56445L2.36305 2.10055H2.06494L1.92329 1.51685L2.33506 1.10055H1.811L1.56923 0.564453L1.36305 1.10055H0.748291L1.21896 1.51685L1.04005 2.17375ZM7.05999 4.10055L7.21896 3.51685L6.74829 3.10055H6.98103L6.56997 2.80462L6.14514 3.10055H6.33506L5.92329 3.51685L6.06494 4.10055H6.36305L6.56923 3.56445L6.811 4.10055H7.05999ZM5.98103 4.10055L5.56997 3.80462L5.14514 4.10055H5.33506L4.92329 4.51685L5.06494 5.10055H5.36305L5.56923 4.56445L5.811 5.10055H6.05999L6.21896 4.51685L5.74829 4.10055H5.98103ZM4.21896 4.51685L4.05999 5.10055H3.811L3.56923 4.56445L3.36305 5.10055H3.06494L2.92329 4.51685L3.33506 4.10055H3.14514L3.56997 3.80462L3.98103 4.10055H3.74829L4.21896 4.51685ZM4.36305 4.10055H4.06494L3.92329 3.51685L4.33506 3.10055H4.14514L4.56997 2.80462L4.98103 3.10055H4.74829L5.21896 3.51685L5.05999 4.10055H4.811L4.56923 3.56445L4.36305 4.10055ZM3.05999 4.10055L3.21896 3.51685L2.74829 3.10055H2.98103L2.56997 2.80462L2.14514 3.10055H2.33506L1.92329 3.51685L2.06494 4.10055H2.36305L2.56923 3.56445L2.811 4.10055H3.05999ZM6.21896 2.51685L6.05999 3.10055H5.811L5.56923 2.56445L5.36305 3.10055H5.06494L4.92329 2.51685L5.33506 2.10055H5.14514L5.56997 1.80462L5.98103 2.10055H5.74829L6.21896 2.51685ZM3.98103 2.10055L3.56997 1.80462L3.14514 2.10055H3.33506L2.92329 2.51685L3.06494 3.10055H3.36305L3.56923 2.56445L3.811 3.10055H4.05999L4.21896 2.51685L3.74829 2.10055H3.98103Z" fill="#F7FCFF"/>
</g>
<defs>
<clipPath id="clip0_1_1356">
<rect width="16" height="12" fill="white"/>
</clipPath>
</defs>
</svg>
