<svg width="40" height="40" viewBox="0 0 40 40" fill="none" xmlns="http://www.w3.org/2000/svg">
<g opacity="0.8" filter="url(#filter0_bi_697_30117)">
<rect width="40" height="40" rx="20" fill="url(#paint0_linear_697_30117)" fill-opacity="0.2"/>
</g>
<path fill-rule="evenodd" clip-rule="evenodd" d="M19.7644 11.2013C20.0933 11.2186 20.3761 10.9647 20.3992 10.6357C20.4223 10.3067 20.1626 10.0239 19.8336 10.0009C19.5046 9.98354 19.2218 10.2317 19.1987 10.5607C19.1814 10.8954 19.4354 11.1782 19.7644 11.2013ZM25.3686 11.2817C25.2243 11.501 24.9357 11.5645 24.7164 11.4202C24.5028 11.2759 24.4394 10.9816 24.5779 10.7623C24.7222 10.5487 25.0107 10.4852 25.2301 10.6295C25.4494 10.7738 25.5129 11.0624 25.3686 11.2817ZM14.8413 11.4666C15.0722 11.3511 15.1645 11.0625 15.0491 10.8317C14.9336 10.6008 14.6451 10.5085 14.4142 10.6239C14.1833 10.7393 14.091 11.0221 14.2064 11.253C14.3219 11.4896 14.6047 11.5878 14.8413 11.4666ZM16.3072 21.4635C15.505 21.4173 14.8874 20.7305 14.9336 19.9283C14.974 19.1549 15.6146 18.5489 16.388 18.5489C17.196 18.5431 17.8482 19.1953 17.8482 20.0033C17.854 20.8113 17.2018 21.4635 16.3938 21.4635H16.3072ZM9.00048 19.9971C9.01203 19.7374 9.23712 19.5354 9.49683 19.5527C9.75655 19.57 9.95856 19.7894 9.94124 20.0491C9.92393 20.3088 9.70461 20.5108 9.44489 20.4935C9.18517 20.4819 8.98894 20.2568 9.00048 19.9971ZM16.642 13.0709C16.8209 13.4287 16.6766 13.8674 16.3188 14.0463C15.9609 14.2252 15.5223 14.0809 15.3434 13.7231C15.1645 13.3652 15.3088 12.9266 15.6666 12.7477C16.0244 12.5688 16.4631 12.7131 16.642 13.0709ZM11.3437 15.819C11.6207 15.9979 11.9901 15.9228 12.1748 15.6458C12.3537 15.3688 12.2787 14.9994 12.0016 14.8147C11.7246 14.6358 11.3552 14.7108 11.1705 14.9879C10.9858 15.2649 11.0666 15.64 11.3437 15.819ZM11.4592 19.98C11.4823 19.576 11.8228 19.2701 12.2268 19.2932C12.6309 19.3163 12.9367 19.6626 12.9137 20.0608C12.8906 20.4648 12.55 20.7707 12.146 20.7476C11.742 20.7246 11.4361 20.384 11.4592 19.98ZM11.4245 24.1817C11.1301 24.3318 11.0089 24.6896 11.159 24.9897C11.3091 25.2841 11.6669 25.4053 11.967 25.2552C12.2613 25.1051 12.3826 24.7473 12.2325 24.4472C12.0824 24.1528 11.7188 24.0316 11.4245 24.1817ZM15.4358 17.5387C15.1818 17.9369 14.6509 18.0466 14.2526 17.7869C13.8544 17.5272 13.7447 16.9962 14.0045 16.6037C14.2584 16.2055 14.7894 16.0958 15.1876 16.3555C15.5859 16.6095 15.6955 17.1405 15.4358 17.5387ZM23.2273 13.989C23.562 14.2083 24.018 14.116 24.2373 13.7812C24.4566 13.4465 24.3643 12.9905 24.0295 12.7712C23.6948 12.5519 23.2388 12.6442 23.0195 12.979C22.7944 13.3195 22.8867 13.7697 23.2273 13.989ZM23.337 18.5366C22.5347 18.4904 21.8421 19.108 21.8017 19.9102C21.7556 20.7125 22.3731 21.4051 23.1754 21.4455H23.2562C24.0584 21.4455 24.7106 20.7933 24.7106 19.9853C24.7164 19.2176 24.1104 18.577 23.337 18.5366ZM18.1021 18.4852C17.5481 18.4852 17.046 18.1735 16.7978 17.683C16.4342 16.9673 16.7228 16.09 17.4442 15.7206C18.1599 15.357 19.0371 15.6456 19.4007 16.367C19.5046 16.5748 19.5566 16.7999 19.5566 17.025C19.5566 17.833 18.9044 18.4852 18.1021 18.4852ZM28.2195 15.819C28.5139 15.6689 28.6293 15.3053 28.4792 15.011C28.3292 14.7166 27.9656 14.6012 27.6712 14.7513C27.3769 14.9013 27.2614 15.2592 27.4057 15.5535C27.5616 15.8478 27.9194 15.9691 28.2195 15.819ZM24.1448 17.429C23.9313 17.0077 24.1044 16.494 24.5257 16.2805C24.9471 16.0727 25.4607 16.2401 25.6743 16.6614C25.8878 17.0827 25.7147 17.5964 25.2934 17.8099C24.872 18.0235 24.3584 17.8503 24.1448 17.429ZM20.6589 14.1617C20.6358 14.635 20.2318 14.9986 19.7585 14.9697C19.2853 14.9467 18.9274 14.5426 18.9505 14.0694C18.9736 13.5961 19.3776 13.2325 19.8509 13.2614C20.3241 13.2845 20.6877 13.6885 20.6589 14.1617ZM15.1183 23.7198C15.5396 23.5062 15.7128 22.9925 15.4992 22.5712C15.2857 22.1499 14.772 21.9768 14.3507 22.1903C13.9294 22.4039 13.7562 22.9175 13.9698 23.3388C14.1833 23.7602 14.697 23.9333 15.1183 23.7198ZM20.7339 18.2367C20.0586 17.798 19.874 16.8977 20.3126 16.2224C20.5838 15.8126 21.0398 15.5645 21.5304 15.5645C21.8132 15.5645 22.0902 15.6453 22.3268 15.8011C23.0021 16.2397 23.1868 17.1401 22.7482 17.8153C22.3095 18.4906 21.4092 18.6753 20.7339 18.2367ZM22.8463 22.3173C22.4827 21.5958 21.6055 21.3073 20.8898 21.6709C20.1684 22.0345 19.8798 22.9118 20.2434 23.6274C20.607 24.3489 21.4843 24.6374 22.1999 24.2738C22.9156 23.916 23.21 23.0503 22.8521 22.3288C22.8521 22.3231 22.8521 22.3231 22.8463 22.3173ZM24.2083 22.4611C24.4623 22.0629 24.9932 21.9532 25.3915 22.213C25.7897 22.4727 25.8994 23.0037 25.6397 23.3961C25.3857 23.7944 24.8547 23.904 24.4565 23.6443C24.0583 23.3903 23.9486 22.8594 24.2083 22.4611ZM28.1849 20.0257C28.208 19.6217 27.9021 19.2811 27.4981 19.2581C27.0941 19.235 26.7536 19.5409 26.7305 19.9449C26.7074 20.3489 27.0133 20.6894 27.4173 20.7125C27.8155 20.7356 28.1618 20.4239 28.1849 20.0257ZM29.7029 19.9513C29.7144 19.6916 29.9395 19.4896 30.1992 19.5069C30.4589 19.5242 30.6552 19.7435 30.6436 20.0032C30.6263 20.263 30.407 20.465 30.1473 20.4477C29.8876 20.4361 29.6913 20.211 29.7029 19.9513ZM28.3004 24.1819C28.0233 24.003 27.6539 24.078 27.4693 24.3551C27.2903 24.6321 27.3654 25.0015 27.6424 25.1861C27.9194 25.3651 28.2888 25.29 28.4735 25.013C28.6582 24.736 28.5774 24.3608 28.3004 24.1819ZM14.2699 28.7125C14.4142 28.4989 14.7028 28.4354 14.9221 28.5797C15.1414 28.724 15.2049 29.0183 15.0548 29.2319C14.9105 29.4454 14.622 29.5089 14.4026 29.3646C14.1891 29.2204 14.1256 28.9318 14.2699 28.7125ZM24.8029 28.5335C24.572 28.649 24.4797 28.9375 24.5951 29.1684C24.7105 29.3993 24.9991 29.4916 25.23 29.3762C25.4608 29.2607 25.5532 28.9779 25.4377 28.7471C25.3223 28.5104 25.0395 28.4123 24.8029 28.5335ZM18.9101 21.7572C19.5854 22.2016 19.7701 23.1019 19.3314 23.7772C19.0602 24.1927 18.6042 24.4409 18.1079 24.4351C17.8251 24.4351 17.548 24.3543 17.3114 24.1985C16.6361 23.7541 16.4457 22.8538 16.8901 22.1785C17.3345 21.5032 18.2348 21.3185 18.9101 21.7572ZM16.4168 26.0106C16.0821 25.7912 15.6261 25.8836 15.4068 26.2183C15.1875 26.5531 15.2798 27.009 15.6146 27.2284C15.9493 27.4477 16.4053 27.3553 16.6246 27.0206C16.8497 26.6858 16.7573 26.2299 16.4168 26.0106ZM19.1814 29.3643C19.2045 29.0353 19.4873 28.7814 19.8163 28.7987C20.1453 28.8218 20.3992 29.1046 20.3819 29.4393C20.3588 29.7683 20.076 30.0165 19.7471 29.9991C19.4181 29.9761 19.1584 29.6933 19.1814 29.3643ZM19.8221 25.0299C19.3488 25.001 18.9448 25.3646 18.9217 25.8379C18.8929 26.3111 19.2565 26.7151 19.7297 26.7382C20.203 26.7613 20.607 26.4035 20.6301 25.9302C20.6589 25.4627 20.2953 25.0529 19.8221 25.0299ZM23.0079 26.9345C22.8233 26.5766 22.9675 26.138 23.3254 25.9533C23.689 25.7686 24.1276 25.9187 24.3123 26.2765C24.4912 26.6343 24.3469 27.073 23.9891 27.2519C23.6313 27.4366 23.1926 27.2923 23.0079 26.9345Z" fill="white"/>
<defs>
<filter id="filter0_bi_697_30117" x="-21" y="-21" width="82" height="82" filterUnits="userSpaceOnUse" color-interpolation-filters="sRGB">
<feFlood flood-opacity="0" result="BackgroundImageFix"/>
<feGaussianBlur in="BackgroundImageFix" stdDeviation="10.5"/>
<feComposite in2="SourceAlpha" operator="in" result="effect1_backgroundBlur_697_30117"/>
<feBlend mode="normal" in="SourceGraphic" in2="effect1_backgroundBlur_697_30117" result="shape"/>
<feColorMatrix in="SourceAlpha" type="matrix" values="0 0 0 0 0 0 0 0 0 0 0 0 0 0 0 0 0 0 127 0" result="hardAlpha"/>
<feOffset dx="10" dy="10"/>
<feGaussianBlur stdDeviation="11.5"/>
<feComposite in2="hardAlpha" operator="arithmetic" k2="-1" k3="1"/>
<feColorMatrix type="matrix" values="0 0 0 0 0.6 0 0 0 0 0.368627 0 0 0 0 0.831373 0 0 0 0.18 0"/>
<feBlend mode="normal" in2="shape" result="effect2_innerShadow_697_30117"/>
</filter>
<linearGradient id="paint0_linear_697_30117" x1="20" y1="79.1781" x2="-6.3534" y2="9.32496" gradientUnits="userSpaceOnUse">
<stop stop-color="#995ED4" stop-opacity="0.01"/>
<stop offset="1" stop-color="#995ED4" stop-opacity="0.12"/>
</linearGradient>
</defs>
</svg>
