<svg width="40" height="40" viewBox="0 0 40 40" fill="none" xmlns="http://www.w3.org/2000/svg">
<g opacity="0.8" filter="url(#filter0_bi_697_30067)">
<rect width="40" height="40" rx="20" fill="url(#paint0_linear_697_30067)" fill-opacity="0.2"/>
</g>
<g clip-path="url(#clip0_697_30067)">
<path d="M19.9982 10L19.864 10.4558V23.6801L19.9982 23.8139L26.1366 20.1855L19.9982 10Z" fill="#343434"/>
<path d="M19.9982 10L13.8596 20.1855L19.9982 23.8139V17.3952V10Z" fill="white"/>
<path d="M19.9982 24.9762L19.9226 25.0684V29.7791L19.9982 29.9999L26.1404 21.3496L19.9982 24.9762Z" fill="#3C3C3B"/>
<path d="M19.9982 29.9999V24.9762L13.8596 21.3496L19.9982 29.9999Z" fill="white"/>
<path d="M19.9983 23.8142L26.1367 20.1857L19.9983 17.3955V23.8142Z" fill="#141414"/>
<path d="M13.8596 20.1857L19.9982 23.8142V17.3955L13.8596 20.1857Z" fill="#393939"/>
</g>
<defs>
<filter id="filter0_bi_697_30067" x="-21" y="-21" width="82" height="82" filterUnits="userSpaceOnUse" color-interpolation-filters="sRGB">
<feFlood flood-opacity="0" result="BackgroundImageFix"/>
<feGaussianBlur in="BackgroundImageFix" stdDeviation="10.5"/>
<feComposite in2="SourceAlpha" operator="in" result="effect1_backgroundBlur_697_30067"/>
<feBlend mode="normal" in="SourceGraphic" in2="effect1_backgroundBlur_697_30067" result="shape"/>
<feColorMatrix in="SourceAlpha" type="matrix" values="0 0 0 0 0 0 0 0 0 0 0 0 0 0 0 0 0 0 127 0" result="hardAlpha"/>
<feOffset dx="10" dy="10"/>
<feGaussianBlur stdDeviation="11.5"/>
<feComposite in2="hardAlpha" operator="arithmetic" k2="-1" k3="1"/>
<feColorMatrix type="matrix" values="0 0 0 0 0.6 0 0 0 0 0.368627 0 0 0 0 0.831373 0 0 0 0.18 0"/>
<feBlend mode="normal" in2="shape" result="effect2_innerShadow_697_30067"/>
</filter>
<linearGradient id="paint0_linear_697_30067" x1="20" y1="79.1781" x2="-6.3534" y2="9.32496" gradientUnits="userSpaceOnUse">
<stop stop-color="#995ED4" stop-opacity="0.01"/>
<stop offset="1" stop-color="#995ED4" stop-opacity="0.12"/>
</linearGradient>
<clipPath id="clip0_697_30067">
<rect width="20" height="20" fill="white" transform="translate(10 10)"/>
</clipPath>
</defs>
</svg>
