<svg width="40" height="40" viewBox="0 0 40 40" fill="none" xmlns="http://www.w3.org/2000/svg">
<g opacity="0.8" filter="url(#filter0_bi_697_30062)">
<rect width="40" height="40" rx="20" fill="url(#paint0_linear_697_30062)" fill-opacity="0.2"/>
</g>
<path fill-rule="evenodd" clip-rule="evenodd" d="M21.9498 21.8076C21.8685 21.8137 21.4485 21.8388 20.5118 21.8388C19.7667 21.8388 19.2377 21.8164 19.0521 21.8076C16.1727 21.681 14.0235 21.1797 14.0235 20.5796C14.0235 19.9795 16.1727 19.4789 19.0521 19.3502V21.3084C19.2404 21.322 19.7795 21.3538 20.5246 21.3538C21.4187 21.3538 21.8665 21.3165 21.9471 21.3091V19.3516C24.8204 19.4796 26.9648 19.9808 26.9648 20.5796C26.9648 21.1784 24.821 21.6796 21.9471 21.8069L21.9498 21.8076ZM21.9498 19.149V17.3967H25.9597V14.7246H15.0422V17.3967H19.0514V19.1484C15.7927 19.2981 13.342 19.9436 13.342 20.7171C13.342 21.4906 15.7927 22.1355 19.0514 22.2858V27.901H21.9491V22.2838C25.2004 22.1341 27.6469 21.4893 27.6469 20.7164C27.6469 19.9436 25.2024 19.2987 21.9491 19.1484L21.9498 19.149Z" fill="white"/>
<defs>
<filter id="filter0_bi_697_30062" x="-21" y="-21" width="82" height="82" filterUnits="userSpaceOnUse" color-interpolation-filters="sRGB">
<feFlood flood-opacity="0" result="BackgroundImageFix"/>
<feGaussianBlur in="BackgroundImageFix" stdDeviation="10.5"/>
<feComposite in2="SourceAlpha" operator="in" result="effect1_backgroundBlur_697_30062"/>
<feBlend mode="normal" in="SourceGraphic" in2="effect1_backgroundBlur_697_30062" result="shape"/>
<feColorMatrix in="SourceAlpha" type="matrix" values="0 0 0 0 0 0 0 0 0 0 0 0 0 0 0 0 0 0 127 0" result="hardAlpha"/>
<feOffset dx="10" dy="10"/>
<feGaussianBlur stdDeviation="11.5"/>
<feComposite in2="hardAlpha" operator="arithmetic" k2="-1" k3="1"/>
<feColorMatrix type="matrix" values="0 0 0 0 0.6 0 0 0 0 0.368627 0 0 0 0 0.831373 0 0 0 0.18 0"/>
<feBlend mode="normal" in2="shape" result="effect2_innerShadow_697_30062"/>
</filter>
<linearGradient id="paint0_linear_697_30062" x1="20" y1="79.1781" x2="-6.3534" y2="9.32496" gradientUnits="userSpaceOnUse">
<stop stop-color="#995ED4" stop-opacity="0.01"/>
<stop offset="1" stop-color="#995ED4" stop-opacity="0.12"/>
</linearGradient>
</defs>
</svg>
