<svg width="40" height="40" viewBox="0 0 40 40" fill="none" xmlns="http://www.w3.org/2000/svg">
<g opacity="0.8" filter="url(#filter0_bi_697_30100)">
<rect width="40" height="40" rx="20" fill="url(#paint0_linear_697_30100)" fill-opacity="0.2"/>
</g>
<path d="M22.75 21.583C22.75 20.125 21.875 19.625 20.125 19.416C18.875 19.249 18.625 18.916 18.625 18.333C18.625 17.75 19.042 17.375 19.875 17.375C20.625 17.375 21.042 17.625 21.25 18.25C21.292 18.375 21.417 18.458 21.542 18.458H22.209C22.376 18.458 22.501 18.333 22.501 18.166V18.124C22.334 17.207 21.584 16.499 20.626 16.416V15.416C20.626 15.249 20.501 15.124 20.293 15.083H19.668C19.501 15.083 19.376 15.208 19.335 15.416V16.374C18.085 16.541 17.293 17.374 17.293 18.416C17.293 19.791 18.126 20.333 19.876 20.541C21.043 20.749 21.418 20.999 21.418 21.666C21.418 22.333 20.835 22.791 20.043 22.791C18.96 22.791 18.585 22.333 18.46 21.708C18.418 21.541 18.293 21.458 18.168 21.458H17.46C17.293 21.458 17.168 21.583 17.168 21.75V21.792C17.335 22.834 18.001 23.584 19.376 23.792V24.792C19.376 24.959 19.501 25.084 19.709 25.125H20.334C20.501 25.125 20.626 25 20.667 24.792V23.792C21.916 23.583 22.75 22.708 22.75 21.583Z" fill="white"/>
<path d="M17.875 25.958C14.625 24.791 12.958 21.166 14.167 17.958C14.792 16.208 16.167 14.875 17.875 14.25C18.042 14.167 18.125 14.042 18.125 13.833V13.25C18.125 13.083 18.042 12.958 17.875 12.917C17.833 12.917 17.75 12.917 17.708 12.959C13.75 14.209 11.583 18.417 12.833 22.376C13.583 24.709 15.375 26.501 17.708 27.251C17.875 27.334 18.041 27.251 18.083 27.084C18.125 27.042 18.125 27.001 18.125 26.917V26.334C18.125 26.208 18 26.042 17.875 25.958ZM22.291 12.958C22.124 12.875 21.958 12.958 21.916 13.125C21.874 13.167 21.874 13.208 21.874 13.292V13.875C21.874 14.042 21.999 14.208 22.124 14.292C25.374 15.459 27.041 19.084 25.832 22.292C25.207 24.042 23.832 25.375 22.124 26C21.957 26.083 21.874 26.208 21.874 26.417V27C21.874 27.167 21.957 27.292 22.124 27.333C22.166 27.333 22.249 27.333 22.291 27.291C26.249 26.041 28.416 21.833 27.166 17.874C26.416 15.5 24.583 13.708 22.291 12.958Z" fill="white"/>
<defs>
<filter id="filter0_bi_697_30100" x="-21" y="-21" width="82" height="82" filterUnits="userSpaceOnUse" color-interpolation-filters="sRGB">
<feFlood flood-opacity="0" result="BackgroundImageFix"/>
<feGaussianBlur in="BackgroundImageFix" stdDeviation="10.5"/>
<feComposite in2="SourceAlpha" operator="in" result="effect1_backgroundBlur_697_30100"/>
<feBlend mode="normal" in="SourceGraphic" in2="effect1_backgroundBlur_697_30100" result="shape"/>
<feColorMatrix in="SourceAlpha" type="matrix" values="0 0 0 0 0 0 0 0 0 0 0 0 0 0 0 0 0 0 127 0" result="hardAlpha"/>
<feOffset dx="10" dy="10"/>
<feGaussianBlur stdDeviation="11.5"/>
<feComposite in2="hardAlpha" operator="arithmetic" k2="-1" k3="1"/>
<feColorMatrix type="matrix" values="0 0 0 0 0.6 0 0 0 0 0.368627 0 0 0 0 0.831373 0 0 0 0.18 0"/>
<feBlend mode="normal" in2="shape" result="effect2_innerShadow_697_30100"/>
</filter>
<linearGradient id="paint0_linear_697_30100" x1="20" y1="79.1781" x2="-6.3534" y2="9.32496" gradientUnits="userSpaceOnUse">
<stop stop-color="#995ED4" stop-opacity="0.01"/>
<stop offset="1" stop-color="#995ED4" stop-opacity="0.12"/>
</linearGradient>
</defs>
</svg>
