<svg width="40" height="40" viewBox="0 0 40 40" fill="none" xmlns="http://www.w3.org/2000/svg">
<g opacity="0.8" filter="url(#filter0_bi_697_30080)">
<rect width="40" height="40" rx="20" fill="url(#paint0_linear_697_30080)" fill-opacity="0.2"/>
</g>
<path d="M20 30C25.5228 30 30 25.5228 30 20C30 14.4772 25.5228 10 20 10C14.4772 10 10 14.4772 10 20C10 25.5228 14.4772 30 20 30Z" fill="#23282F"/>
<path d="M24.4491 14.6846H26.2658L22.4811 18.5113C21.1102 19.899 18.8898 19.899 17.5189 18.5113L13.7342 14.6846H15.5509L18.4272 17.5946C19.2767 18.4609 20.6812 18.4693 21.5475 17.6198C21.5559 17.6114 21.5643 17.603 21.5727 17.5946L24.4491 14.6846ZM15.5341 25.3238H13.7174L17.5273 21.4718C18.8982 20.0841 21.1186 20.0841 22.4895 21.4718L26.2994 25.3238H24.4828L21.5896 22.3969C20.7401 21.5307 19.3356 21.5222 18.4693 22.3717C18.4609 22.3801 18.4525 22.3885 18.4441 22.3969L15.5341 25.3238Z" fill="white"/>
<defs>
<filter id="filter0_bi_697_30080" x="-21" y="-21" width="82" height="82" filterUnits="userSpaceOnUse" color-interpolation-filters="sRGB">
<feFlood flood-opacity="0" result="BackgroundImageFix"/>
<feGaussianBlur in="BackgroundImageFix" stdDeviation="10.5"/>
<feComposite in2="SourceAlpha" operator="in" result="effect1_backgroundBlur_697_30080"/>
<feBlend mode="normal" in="SourceGraphic" in2="effect1_backgroundBlur_697_30080" result="shape"/>
<feColorMatrix in="SourceAlpha" type="matrix" values="0 0 0 0 0 0 0 0 0 0 0 0 0 0 0 0 0 0 127 0" result="hardAlpha"/>
<feOffset dx="10" dy="10"/>
<feGaussianBlur stdDeviation="11.5"/>
<feComposite in2="hardAlpha" operator="arithmetic" k2="-1" k3="1"/>
<feColorMatrix type="matrix" values="0 0 0 0 0.6 0 0 0 0 0.368627 0 0 0 0 0.831373 0 0 0 0.18 0"/>
<feBlend mode="normal" in2="shape" result="effect2_innerShadow_697_30080"/>
</filter>
<linearGradient id="paint0_linear_697_30080" x1="20" y1="79.1781" x2="-6.3534" y2="9.32496" gradientUnits="userSpaceOnUse">
<stop stop-color="#995ED4" stop-opacity="0.01"/>
<stop offset="1" stop-color="#995ED4" stop-opacity="0.12"/>
</linearGradient>
</defs>
</svg>
