<svg width="14" height="14" viewBox="0 0 14 14" fill="none" xmlns="http://www.w3.org/2000/svg">
<g clip-path="url(#clip0_18_18272)">
<path fill-rule="evenodd" clip-rule="evenodd" d="M5.81788 0.888963C6.40414 0.0913742 7.59582 0.0913744 8.18208 0.888963C8.71088 1.60837 9.59884 1.97507 10.4827 1.84004C11.4633 1.69022 12.3097 2.53668 12.1599 3.5173C12.0249 4.40112 12.3916 5.28908 13.111 5.81788C13.9086 6.40414 13.9086 7.59582 13.111 8.18208C12.3916 8.71088 12.0249 9.59884 12.1599 10.4827C12.3097 11.4633 11.4633 12.3097 10.4827 12.1599C9.59884 12.0249 8.71088 12.3916 8.18208 13.111C7.59582 13.9086 6.40414 13.9086 5.81788 13.111C5.28908 12.3916 4.40112 12.0249 3.5173 12.1599C2.53668 12.3097 1.69022 11.4633 1.84004 10.4827C1.97507 9.59884 1.60837 8.71088 0.888963 8.18208C0.0913743 7.59582 0.0913743 6.40414 0.888963 5.81788C1.60837 5.28908 1.97507 4.40112 1.84004 3.5173C1.69022 2.53668 2.53668 1.69022 3.5173 1.84004C4.40112 1.97507 5.28908 1.60837 5.81788 0.888963ZM3.95947 6.99983C3.95947 5.32055 5.3208 3.95923 7.00008 3.95923C8.67935 3.95923 10.0407 5.32055 10.0407 6.99983C10.0407 8.67911 8.67935 10.0404 7.00008 10.0404C5.3208 10.0404 3.95947 8.67911 3.95947 6.99983Z" fill="#812BE0"/>
</g>
<defs>
<clipPath id="clip0_18_18272">
<rect width="14" height="14" fill="white"/>
</clipPath>
</defs>
</svg>
