<svg width="14" height="14" viewBox="0 0 14 14" fill="none" xmlns="http://www.w3.org/2000/svg">
<g clip-path="url(#clip0_18_18263)">
<path fill-rule="evenodd" clip-rule="evenodd" d="M11.7771 0.907782C11.4228 0.79037 11.0806 0.885561 10.8834 0.946788L11.0316 1.42429L10.8834 0.946788L2.06938 3.68287C-0.275729 4.41084 -0.27573 7.73011 2.06938 8.45808L10.8834 11.1942C11.0806 11.2554 11.4228 11.3506 11.7771 11.2332C12.1772 11.1005 12.4855 10.8081 12.7189 10.4677C12.9533 10.1259 13.1354 9.70281 13.2753 9.24437C13.5552 8.32684 13.6895 7.18966 13.6895 6.07048C13.6895 4.95129 13.5552 3.81411 13.2753 2.89658C13.1354 2.43814 12.9533 2.01509 12.7189 1.67324C12.4855 1.33281 12.1772 1.0404 11.7771 0.907782ZM2.55155 9.91661C2.29121 9.8358 2.0087 9.97875 1.97464 10.2492C1.9614 10.3543 1.95459 10.4613 1.95459 10.5698C1.95459 11.9937 3.12648 13.148 4.57208 13.148C5.57328 13.148 6.44318 12.5943 6.88341 11.7809C7.01472 11.5383 6.86326 11.2551 6.59979 11.1733L2.55155 9.91661Z" fill="#A29ACF"/>
</g>
<defs>
<clipPath id="clip0_18_18263">
<rect width="14" height="14" fill="white"/>
</clipPath>
</defs>
</svg>
