<svg width="14" height="14" viewBox="0 0 14 14" fill="none" xmlns="http://www.w3.org/2000/svg">
<g clip-path="url(#clip0_18_18259)">
<path fill-rule="evenodd" clip-rule="evenodd" d="M5.50342 2.02835C6.13743 1.99672 6.66025 1.98486 7.00004 1.98486C7.33859 1.98486 7.85884 1.99663 8.48975 2.028V0.915039C8.48975 0.500826 8.82553 0.165039 9.23975 0.165039C9.65396 0.165039 9.98975 0.500825 9.98975 0.915039V2.12847C10.2254 2.14833 10.467 2.17067 10.7122 2.19571C12.2617 2.35398 13.4845 3.57388 13.6173 5.13691C13.7187 6.32958 13.75 7.41514 13.75 7.91111C13.75 8.40701 13.7187 9.49135 13.6174 10.6831C13.4845 12.2461 12.2617 13.466 10.7122 13.6243C9.1224 13.7866 7.68706 13.835 7.00003 13.835C6.31301 13.835 4.87767 13.7866 3.28787 13.6243C1.73834 13.466 0.515581 12.2461 0.382648 10.6831C0.281291 9.49137 0.25 8.40702 0.25 7.91111C0.25 7.41512 0.281302 6.32956 0.382704 5.1369C0.515595 3.57388 1.73834 2.35398 3.28786 2.19571C3.53069 2.17091 3.76991 2.14877 4.00342 2.12905V0.915039C4.00342 0.500826 4.3392 0.165039 4.75342 0.165039C5.16763 0.165039 5.50342 0.500825 5.50342 0.915039V2.02835ZM3.5 5.58936C3.15482 5.58936 2.875 5.86918 2.875 6.21436C2.875 6.55953 3.15482 6.83936 3.5 6.83936H4C4.34518 6.83936 4.625 6.55953 4.625 6.21436C4.625 5.86918 4.34518 5.58936 4 5.58936H3.5ZM2.875 9.21436C2.875 8.86918 3.15482 8.58936 3.5 8.58936H4C4.34518 8.58936 4.625 8.86918 4.625 9.21436C4.625 9.55953 4.34518 9.83936 4 9.83936H3.5C3.15482 9.83936 2.875 9.55953 2.875 9.21436ZM6.75 5.58936C6.40482 5.58936 6.125 5.86918 6.125 6.21436C6.125 6.55953 6.40482 6.83936 6.75 6.83936H7.25C7.59518 6.83936 7.875 6.55953 7.875 6.21436C7.875 5.86918 7.59518 5.58936 7.25 5.58936H6.75ZM9.375 6.21436C9.375 5.86918 9.65482 5.58936 10 5.58936H10.5C10.8452 5.58936 11.125 5.86918 11.125 6.21436C11.125 6.55953 10.8452 6.83936 10.5 6.83936H10C9.65482 6.83936 9.375 6.55953 9.375 6.21436ZM6.75 8.58936C6.40482 8.58936 6.125 8.86918 6.125 9.21436C6.125 9.55953 6.40482 9.83936 6.75 9.83936H7.25C7.59518 9.83936 7.875 9.55953 7.875 9.21436C7.875 8.86918 7.59518 8.58936 7.25 8.58936H6.75Z" fill="#A29ACF"/>
</g>
<defs>
<clipPath id="clip0_18_18259">
<rect width="14" height="14" fill="white"/>
</clipPath>
</defs>
</svg>
