<svg width="14" height="14" viewBox="0 0 14 14" fill="none" xmlns="http://www.w3.org/2000/svg">
<path fill-rule="evenodd" clip-rule="evenodd" d="M9.10085 8.60417H12.8001C12.8205 8.08383 12.8333 7.45792 12.8333 6.70833C12.8333 4.98313 12.7645 3.91417 12.6959 3.27688C12.6271 2.63929 12.1785 2.14375 11.5392 2.03379C10.7639 1.9005 9.36598 1.75 6.99998 1.75C4.63398 1.75 3.23602 1.9005 2.46077 2.03379C1.82144 2.14375 1.37285 2.63929 1.30402 3.27688C1.23548 3.91417 1.16664 4.98313 1.16664 6.70833C1.16664 7.45792 1.17977 8.08383 1.19989 8.60417H4.89939C5.14321 8.6042 5.3833 8.66405 5.5986 8.77846C5.8139 8.89288 5.99785 9.05837 6.13431 9.26042H7.86564C8.00211 9.05831 8.1861 8.89278 8.40147 8.77836C8.61683 8.66394 8.85698 8.60413 9.10085 8.60417ZM0.473353 10.2471C0.444478 9.82829 0.779895 9.47917 1.1961 9.47917H4.8991C5.16744 9.47917 5.40485 9.65329 5.48535 9.90938C5.50611 9.97494 5.54721 10.0322 5.60269 10.0728C5.65817 10.1135 5.72516 10.1354 5.79394 10.1354H8.20602C8.34689 10.1354 8.47144 10.0438 8.51402 9.90938C8.55329 9.78464 8.6313 9.67568 8.73673 9.59831C8.84215 9.52095 8.9695 9.47921 9.10027 9.47917H12.8036C13.2198 9.47917 13.5549 9.82829 13.5263 10.2471C13.5122 10.4563 13.4946 10.6653 13.4735 10.8739C13.4143 11.4456 12.9943 11.8227 12.4364 11.8837C11.5561 11.9799 9.86444 12.1042 6.99969 12.1042C4.13523 12.1042 2.44385 11.9799 1.56302 11.8837C1.00535 11.8224 0.585353 11.4453 0.526145 10.8739C0.505077 10.6653 0.487283 10.4563 0.473353 10.2471Z" fill="#A29ACF"/>
</svg>
