<svg width="14" height="14" viewBox="0 0 14 14" fill="none" xmlns="http://www.w3.org/2000/svg">
<g clip-path="url(#clip0_18_18255)">
<path fill-rule="evenodd" clip-rule="evenodd" d="M13.463 9.692C13.463 12.664 10.77 14 7.00002 14C3.23002 14 0.537018 12.664 0.537018 9.713C0.537018 6.482 2.15302 4.845 5.38402 3.208L4.24002 1.077C4.17176 0.970268 4.13375 0.847008 4.13004 0.720368C4.12633 0.593727 4.15707 0.468455 4.21896 0.357907C4.28085 0.24736 4.37159 0.155684 4.48149 0.092653C4.5914 0.0296224 4.71635 -0.00239876 4.84302 3.84173e-06H9.41002C9.52875 0.00304183 9.64476 0.0362406 9.74712 0.0964757C9.84948 0.156711 9.93484 0.242001 9.99515 0.34432C10.0555 0.446639 10.0887 0.562621 10.0919 0.68135C10.095 0.80008 10.0679 0.917653 10.013 1.023L8.61602 3.208C11.846 4.823 13.463 6.46 13.463 9.692ZM7.62502 4.887C7.62502 4.72124 7.55917 4.56227 7.44196 4.44506C7.32475 4.32785 7.16578 4.262 7.00002 4.262C6.83426 4.262 6.67529 4.32785 6.55808 4.44506C6.44087 4.56227 6.37502 4.72124 6.37502 4.887V5.514C5.9514 5.53032 5.54832 5.70073 5.24146 5.99323C4.9346 6.28573 4.74508 6.68019 4.70849 7.10254C4.67191 7.52489 4.79077 7.94607 5.04275 8.28698C5.29474 8.62789 5.66252 8.86508 6.07702 8.954L7.55002 9.276C7.70099 9.30851 7.83459 9.39575 7.92505 9.52092C8.0155 9.64609 8.05642 9.80032 8.03989 9.95387C8.02337 10.1074 7.95058 10.2494 7.83557 10.3525C7.72055 10.4555 7.57145 10.5124 7.41702 10.512H6.58302C6.45372 10.5122 6.32755 10.4723 6.22188 10.3978C6.11621 10.3233 6.03625 10.2179 5.99302 10.096C5.96777 10.0161 5.92669 9.942 5.87223 9.87825C5.81777 9.81451 5.75104 9.76237 5.67602 9.72495C5.60099 9.68752 5.5192 9.66557 5.43552 9.66041C5.35184 9.65525 5.26797 9.66697 5.18892 9.69489C5.10986 9.72281 5.03723 9.76635 4.97534 9.82292C4.91346 9.87949 4.86359 9.94793 4.82871 10.0242C4.79382 10.1004 4.77463 10.1829 4.77228 10.2667C4.76993 10.3505 4.78446 10.4339 4.81502 10.512C4.93257 10.8441 5.14121 11.1364 5.41708 11.3555C5.69295 11.5746 6.02492 11.7117 6.37502 11.751V12.387C6.37502 12.5528 6.44087 12.7117 6.55808 12.8289C6.67529 12.9462 6.83426 13.012 7.00002 13.012C7.16578 13.012 7.32475 12.9462 7.44196 12.8289C7.55917 12.7117 7.62502 12.5528 7.62502 12.387V11.751C8.06627 11.7008 8.47542 11.4958 8.77968 11.1723C9.08393 10.8488 9.26356 10.4278 9.2866 9.98433C9.30963 9.54083 9.17459 9.10354 8.9055 8.75026C8.6364 8.39698 8.2507 8.15062 7.81702 8.055L6.34402 7.733C6.22451 7.70854 6.11842 7.64038 6.0465 7.54185C5.97458 7.44332 5.942 7.3215 5.95513 7.20022C5.96825 7.07895 6.02615 6.96692 6.11749 6.88607C6.20883 6.80521 6.32704 6.76133 6.44902 6.763H7.41702C7.54641 6.76236 7.67279 6.80209 7.77854 6.87665C7.8843 6.95122 7.96416 7.05691 8.00702 7.179C8.06518 7.33141 8.18062 7.45503 8.32869 7.52347C8.47676 7.59192 8.64573 7.59976 8.7995 7.54533C8.95327 7.49089 9.07967 7.3785 9.1517 7.23214C9.22373 7.08578 9.23569 6.91706 9.18502 6.762C9.06763 6.42989 8.859 6.13759 8.58308 5.91862C8.30716 5.69966 7.97511 5.56289 7.62502 5.524V4.887Z" fill="#A29ACF"/>
</g>
<defs>
<clipPath id="clip0_18_18255">
<rect width="14" height="14" fill="white"/>
</clipPath>
</defs>
</svg>
