<svg width="14" height="14" viewBox="0 0 14 14" fill="none" xmlns="http://www.w3.org/2000/svg">
<g clip-path="url(#clip0_18_18267)">
<path fill-rule="evenodd" clip-rule="evenodd" d="M8.03833 0.686854C8.80775 0.497271 9.64046 0.778729 10.0642 1.50294C10.173 1.68902 10.2923 1.90602 10.4186 2.15569C9.53254 2.09706 8.218 2.04165 6.41667 2.04165C5.4005 2.04165 4.5395 2.05915 3.82258 2.0854C5.17067 1.52248 6.63746 1.0316 8.03833 0.686854ZM2.34996 13.4426C3.21825 13.5027 4.55146 13.5625 6.41667 13.5625C8.28187 13.5625 9.61508 13.5027 10.4834 13.4426C11.4395 13.3764 12.1937 12.6501 12.2722 11.6862C12.2873 11.5019 12.3019 11.2971 12.3159 11.0705C12.045 11.0784 11.7323 11.0833 11.375 11.0833C10.8867 11.0833 10.4813 11.074 10.1529 11.0609C9.09154 11.0183 8.23462 10.2054 8.18621 9.11631C8.17269 8.79994 8.16618 8.48331 8.16667 8.16665C8.16667 7.79856 8.17454 7.48327 8.18621 7.21698C8.23462 6.1279 9.09154 5.31531 10.1529 5.27244C10.5601 5.25681 10.9675 5.24932 11.375 5.24998C11.7323 5.24998 12.045 5.25494 12.3159 5.26281C12.3019 5.03619 12.2873 4.83115 12.2722 4.6474C12.1937 3.68315 11.4395 2.9569 10.4834 2.89069C9.61508 2.8306 8.28187 2.77081 6.41667 2.77081C4.55146 2.77081 3.21825 2.8306 2.34996 2.89069C1.39388 2.9569 0.639625 3.68315 0.561167 4.6471C0.497583 5.42819 0.4375 6.58435 0.4375 8.16665C0.4375 9.74894 0.497583 10.9054 0.561167 11.6862C0.639625 12.6501 1.39388 13.3764 2.34996 13.4426ZM9.06033 9.07752C9.08804 9.69877 9.56696 10.1616 10.1879 10.1864C10.5044 10.1993 10.8978 10.2083 11.375 10.2083C11.8522 10.2083 12.2456 10.1993 12.5621 10.1864C13.1833 10.1616 13.662 9.69877 13.6897 9.07752C13.7007 8.82465 13.7083 8.52219 13.7083 8.16665C13.7083 7.81081 13.7007 7.50865 13.6897 7.25577C13.662 6.63452 13.183 6.17165 12.5621 6.14685C12.1666 6.13166 11.7708 6.12437 11.375 6.12498C10.8978 6.12498 10.5044 6.13402 10.1879 6.14685C9.56667 6.17165 9.08804 6.63452 9.06033 7.25577C9.04741 7.55922 9.04119 7.86292 9.04167 8.16665C9.04167 8.52248 9.04925 8.82465 9.06033 9.07752ZM11.0833 7.43748C11.1994 7.43748 11.3106 7.48357 11.3927 7.56562C11.4747 7.64767 11.5208 7.75895 11.5208 7.87498V8.45831C11.5208 8.57434 11.4747 8.68562 11.3927 8.76767C11.3106 8.84972 11.1994 8.89581 11.0833 8.89581C10.9673 8.89581 10.856 8.84972 10.774 8.76767C10.6919 8.68562 10.6458 8.57434 10.6458 8.45831V7.87498C10.6458 7.75895 10.6919 7.64767 10.774 7.56562C10.856 7.48357 10.9673 7.43748 11.0833 7.43748Z" fill="#A29ACF"/>
</g>
<defs>
<clipPath id="clip0_18_18267">
<rect width="14" height="14" fill="white"/>
</clipPath>
</defs>
</svg>
