<svg width="14" height="14" viewBox="0 0 14 14" fill="none" xmlns="http://www.w3.org/2000/svg">
<g clip-path="url(#clip0_18_18250)">
<path fill-rule="evenodd" clip-rule="evenodd" d="M1.5 1C1.10218 1 0.720644 1.15804 0.43934 1.43934C0.158035 1.72064 0 2.10218 0 2.5L0 9.5C0 9.89783 0.158035 10.2794 0.43934 10.5607C0.720644 10.842 1.10218 11 1.5 11H5.485L4.948 12.5H4C3.80109 12.5 3.61032 12.579 3.46967 12.7197C3.32902 12.8603 3.25 13.0511 3.25 13.25C3.25 13.4489 3.32902 13.6397 3.46967 13.7803C3.61032 13.921 3.80109 14 4 14H10C10.1989 14 10.3897 13.921 10.5303 13.7803C10.671 13.6397 10.75 13.4489 10.75 13.25C10.75 13.0511 10.671 12.8603 10.5303 12.7197C10.3897 12.579 10.1989 12.5 10 12.5H9.052L8.515 11H9C9.26522 11 9.51957 10.8946 9.70711 10.7071C9.89464 10.5196 10 10.2652 10 10C10 9.73478 9.89464 9.48043 9.70711 9.29289C9.51957 9.10536 9.26522 9 9 9H2V3H7C7.26522 3 7.51957 2.89464 7.70711 2.70711C7.89464 2.51957 8 2.26522 8 2C8 1.73478 7.89464 1.48043 7.70711 1.29289C7.51957 1.10536 7.26522 1 7 1H1.5Z" fill="#A29ACF"/>
<path fill-rule="evenodd" clip-rule="evenodd" d="M11.583 0C11.7819 0 11.9727 0.0790176 12.1133 0.21967C12.254 0.360322 12.333 0.551088 12.333 0.75V1.278C12.6847 1.33719 13.0142 1.48941 13.2873 1.71888C13.5604 1.94835 13.7671 2.24671 13.886 2.583C13.9486 2.76958 13.9353 2.97326 13.849 3.15014C13.7628 3.32701 13.6105 3.46291 13.4249 3.52851C13.2394 3.59411 13.0355 3.58417 12.8573 3.50083C12.679 3.41749 12.5406 3.26743 12.472 3.083C12.4377 2.98532 12.3738 2.90076 12.2892 2.84107C12.2046 2.78139 12.1035 2.74956 12 2.75H11.033C10.9431 2.75041 10.8565 2.78388 10.7897 2.84405C10.7229 2.90422 10.6806 2.98687 10.6708 3.07624C10.661 3.16561 10.6845 3.25545 10.7367 3.32862C10.789 3.4018 10.8663 3.45319 10.954 3.473L12.427 3.795C12.8814 3.89364 13.2871 4.1475 13.5746 4.51293C13.8621 4.87836 14.0132 5.33252 14.0021 5.79733C13.991 6.26214 13.8183 6.70854 13.5136 7.0598C13.209 7.41105 12.7916 7.64521 12.333 7.722V8.25C12.333 8.44891 12.254 8.63968 12.1133 8.78033C11.9727 8.92098 11.7819 9 11.583 9C11.3841 9 11.1933 8.92098 11.0527 8.78033C10.912 8.63968 10.833 8.44891 10.833 8.25V7.722C10.4816 7.66225 10.1525 7.50981 9.87966 7.2804C9.60683 7.051 9.40017 6.75294 9.281 6.417C9.21844 6.23042 9.23172 6.02674 9.31797 5.84986C9.40422 5.67299 9.55653 5.53709 9.74206 5.47149C9.92759 5.40589 10.1315 5.41583 10.3097 5.49917C10.488 5.58251 10.6264 5.73257 10.695 5.917C10.7296 6.01452 10.7935 6.09891 10.878 6.15856C10.9626 6.2182 11.0635 6.25015 11.167 6.25H12C12.1246 6.25195 12.2455 6.20726 12.3389 6.12472C12.4323 6.04217 12.4915 5.92772 12.5049 5.80379C12.5183 5.67986 12.4849 5.5554 12.4113 5.4548C12.3377 5.3542 12.2292 5.28473 12.107 5.26L10.634 4.938C10.2021 4.84255 9.8181 4.59675 9.55058 4.24447C9.28306 3.89218 9.14939 3.45631 9.17341 3.01462C9.19743 2.57292 9.37759 2.15412 9.68175 1.83293C9.9859 1.51174 10.3943 1.30904 10.834 1.261V0.75C10.834 0.551088 10.913 0.360322 11.0537 0.21967C11.1943 0.0790176 11.3841 0 11.583 0Z" fill="#A29ACF"/>
</g>
<defs>
<clipPath id="clip0_18_18250">
<rect width="14" height="14" fill="white"/>
</clipPath>
</defs>
</svg>
