<svg width="14" height="14" viewBox="0 0 14 14" fill="none" xmlns="http://www.w3.org/2000/svg">
<path fill-rule="evenodd" clip-rule="evenodd" d="M1.5 0C1.10218 0 0.720644 0.158579 0.43934 0.440851C0.158035 0.723124 0 1.10597 0 1.50516L0 11.0378C0 11.437 0.158035 11.8199 0.43934 12.1022C0.720644 12.3844 1.10218 12.543 1.5 12.543V13.2474C1.5 13.447 1.57902 13.6384 1.71967 13.7796C1.86032 13.9207 2.05109 14 2.25 14C2.44891 14 2.63968 13.9207 2.78033 13.7796C2.92098 13.6384 3 13.447 3 13.2474V12.543H11V13.2474C11 13.447 11.079 13.6384 11.2197 13.7796C11.3603 13.9207 11.5511 14 11.75 14C11.9489 14 12.1397 13.9207 12.2803 13.7796C12.421 13.6384 12.5 13.447 12.5 13.2474V12.543C12.8978 12.543 13.2794 12.3844 13.5607 12.1022C13.842 11.8199 14 11.437 14 11.0378V1.50516C14 1.10597 13.842 0.723124 13.5607 0.440851C13.2794 0.158579 12.8978 0 12.5 0L1.5 0ZM8.75 4.96001C8.029 4.96001 7.444 5.54602 7.443 6.26849V6.2715V6.27451C7.44359 6.53377 7.52075 6.78704 7.66473 7.00232C7.8087 7.2176 8.01303 7.38523 8.25191 7.48403C8.49078 7.58283 8.75348 7.60837 9.00682 7.55743C9.26015 7.50649 9.49276 7.38134 9.67524 7.19781C9.85773 7.01427 9.98191 6.78058 10.0321 6.52626C10.0823 6.27193 10.0562 6.00839 9.95722 5.76892C9.85821 5.52945 9.69069 5.3248 9.47582 5.18083C9.26095 5.03685 9.00837 4.96001 8.75 4.96001ZM8.124 3.78297C7.88232 3.84367 7.65085 3.93969 7.437 4.06795L6.85 3.47893C6.73277 3.3613 6.57378 3.29522 6.408 3.29522C6.24222 3.29522 6.08323 3.3613 5.966 3.47893C5.84877 3.59656 5.78292 3.7561 5.78292 3.92245C5.78292 4.0888 5.84877 4.24834 5.966 4.36597L6.553 4.95499C6.42518 5.16957 6.32949 5.40184 6.269 5.64435H5.437C5.27124 5.64435 5.11227 5.71043 4.99506 5.82804C4.87785 5.94565 4.812 6.10517 4.812 6.2715C4.812 6.43783 4.87785 6.59735 4.99506 6.71496C5.11227 6.83258 5.27124 6.89865 5.437 6.89865H6.269C6.33 7.1445 6.427 7.37629 6.553 7.58802L5.966 8.17704C5.84877 8.29466 5.78292 8.4542 5.78292 8.62056C5.78292 8.78691 5.84877 8.94645 5.966 9.06408C6.08323 9.18171 6.24222 9.24779 6.408 9.24779C6.57378 9.24779 6.73277 9.18171 6.85 9.06408L7.437 8.47506C7.648 8.60149 7.879 8.69882 8.124 8.76003V9.5949C8.124 9.76123 8.18985 9.92075 8.30706 10.0384C8.42427 10.156 8.58324 10.222 8.749 10.222C8.91476 10.222 9.07373 10.156 9.19094 10.0384C9.30815 9.92075 9.374 9.76123 9.374 9.5949V8.76003C9.619 8.69882 9.85 8.60149 10.061 8.47506L10.648 9.06408C10.7652 9.18171 10.9242 9.24779 11.09 9.24779C11.2558 9.24779 11.4148 9.18171 11.532 9.06408C11.6492 8.94645 11.7151 8.78691 11.7151 8.62056C11.7151 8.4542 11.6492 8.29466 11.532 8.17704L10.945 7.58802C11.071 7.37629 11.168 7.1445 11.229 6.89865H12.061C12.2268 6.89865 12.3857 6.83258 12.5029 6.71496C12.6202 6.59735 12.686 6.43783 12.686 6.2715C12.686 6.10517 12.6202 5.94565 12.5029 5.82804C12.3857 5.71043 12.2268 5.64435 12.061 5.64435H11.229C11.1685 5.40185 11.0728 5.16958 10.945 4.95499L11.532 4.36597C11.59 4.30772 11.6361 4.23858 11.6675 4.16248C11.6989 4.08638 11.7151 4.00482 11.7151 3.92245C11.7151 3.84008 11.6989 3.75852 11.6675 3.68242C11.6361 3.60632 11.59 3.53717 11.532 3.47893C11.474 3.42068 11.405 3.37448 11.3292 3.34296C11.2534 3.31144 11.1721 3.29522 11.09 3.29522C11.0079 3.29522 10.9266 3.31144 10.8508 3.34296C10.775 3.37448 10.706 3.42068 10.648 3.47893L10.061 4.06795C9.84715 3.9397 9.61567 3.84368 9.374 3.78297V2.94811C9.374 2.78178 9.30815 2.62226 9.19094 2.50465C9.07373 2.38703 8.91476 2.32096 8.749 2.32096C8.58324 2.32096 8.42427 2.38703 8.30706 2.50465C8.18985 2.62226 8.124 2.78178 8.124 2.94811V3.78297ZM3.117 4.14822C3.117 3.98189 3.05115 3.82237 2.93394 3.70476C2.81673 3.58715 2.65776 3.52107 2.492 3.52107C2.32624 3.52107 2.16727 3.58715 2.05006 3.70476C1.93285 3.82237 1.867 3.98189 1.867 4.14822V8.39478C1.867 8.56111 1.93285 8.72063 2.05006 8.83824C2.16727 8.95586 2.32624 9.02193 2.492 9.02193C2.65776 9.02193 2.81673 8.95586 2.93394 8.83824C3.05115 8.72063 3.117 8.56111 3.117 8.39478V4.14822Z" fill="#A29ACF"/>
</svg>
