<svg width="12" height="12" viewBox="0 0 12 12" fill="none" xmlns="http://www.w3.org/2000/svg">
<path fill-rule="evenodd" clip-rule="evenodd" d="M2.56725 3.70763C2.5785 3.597 2.53612 3.48788 2.45362 3.41363L1.61363 2.40113V2.25H4.22288L6.23962 6.67313L8.01263 2.25H10.5V2.40113L9.7815 3.09C9.71962 3.13725 9.68888 3.21487 9.70162 3.29175V8.3535C9.68888 8.43 9.71962 8.50763 9.7815 8.55487L10.4831 9.24375V9.39487H6.95363V9.24375L7.68075 8.538C7.752 8.46675 7.752 8.44575 7.752 8.33663V4.24538L5.73112 9.37838H5.45813L3.105 4.24538V7.68563C3.0855 7.83 3.1335 7.97588 3.23512 8.08013L4.1805 9.22687V9.37838H1.5V9.22687L2.44537 8.08013C2.54663 7.9755 2.59162 7.82888 2.56725 7.68563V3.70763Z" fill="white"/>
</svg>
