<svg width="11" height="10" viewBox="0 0 11 10" fill="none" xmlns="http://www.w3.org/2000/svg">
<path fill-rule="evenodd" clip-rule="evenodd" d="M3.01364 5.80997L0.566258 4.84659C0.317692 4.74833 0.315535 4.37822 0.563395 4.2774L10.6075 0.190852C10.8204 0.103991 11.0402 0.300751 10.9938 0.536587L9.1913 9.68093C9.14881 9.89683 8.90879 9.99474 8.73939 9.86487L6.27884 7.98078C6.12939 7.86635 5.9257 7.87248 5.7827 7.99538L4.4185 9.16832C4.26013 9.30487 4.02155 9.22879 3.96093 9.02302L3.01364 5.80997ZM8.59141 2.19016L3.80832 5.29714C3.625 5.41649 3.53868 5.64996 3.59791 5.86858L4.11506 7.78509C4.15178 7.92089 4.33869 7.90698 4.35649 7.76664L4.49096 6.71565C4.51631 6.51778 4.60582 6.33548 4.74456 6.19926L8.692 2.32929C8.76581 2.25707 8.67738 2.13448 8.59141 2.19016Z" fill="white"/>
<path d="M3.80827 5.29733L8.59136 2.19035C8.67732 2.13467 8.76576 2.25726 8.69195 2.32948L4.74451 6.19945C4.60576 6.33567 4.51625 6.51797 4.4909 6.71584L4.35643 7.76683C4.33863 7.90716 4.15172 7.92108 4.115 7.78527L3.59785 5.86877C3.53863 5.65015 3.62495 5.41668 3.80827 5.29733Z" fill="#EAEAEA"/>
</svg>
