<svg width="12" height="10" viewBox="0 0 12 10" fill="none" xmlns="http://www.w3.org/2000/svg">
<path fill-rule="evenodd" clip-rule="evenodd" d="M10.9846 1.33854C11.3093 1.71055 11.4239 2.55252 11.4239 2.55252C11.4239 2.55252 11.5385 3.55113 11.5385 4.54971V5.47C11.5385 6.44902 11.4239 7.44763 11.4239 7.44763C11.4239 7.44763 11.3093 8.2896 10.9846 8.66161C10.5851 9.10851 10.1337 9.14813 9.90971 9.16778C9.89816 9.16879 9.88723 9.16975 9.87693 9.17071C8.32999 9.30777 6.00001 9.30777 6.00001 9.30777C6.00001 9.30777 3.11618 9.28818 2.23768 9.19032C2.191 9.17927 2.13352 9.17099 2.06815 9.16158C1.78586 9.12093 1.35656 9.05911 1.01539 8.66164C0.690745 8.28962 0.576146 7.44765 0.576146 7.44765C0.576146 7.44765 0.461548 6.46863 0.461548 5.47002V4.54974C0.461548 3.55113 0.576146 2.55252 0.576146 2.55252C0.576146 2.55252 0.67162 1.71058 1.01539 1.33854C1.41497 0.891639 1.86636 0.852026 2.09031 0.832371C2.10186 0.831358 2.11279 0.830399 2.12309 0.829439C3.67003 0.711969 6.00001 0.692383 6.00001 0.692383C6.00001 0.692383 8.32999 0.711969 9.87693 0.829439C9.89288 0.830926 9.91038 0.8323 9.92927 0.833784C10.1592 0.851847 10.5964 0.886193 10.9846 1.33854ZM4.66312 7.27139V3.02243L8.29177 5.19587L4.66312 7.27139Z" fill="white"/>
</svg>
