<svg width="19" height="16" viewBox="0 0 19 16" fill="none" xmlns="http://www.w3.org/2000/svg">
<path d="M17.2371 16C17.2371 14.9495 17.0302 13.9093 16.6281 12.9387C16.2261 11.9682 15.6369 11.0863 14.8941 10.3435C14.1513 9.6007 13.2694 9.01146 12.2989 8.60945C11.3283 8.20744 10.2881 8.00053 9.23761 8.00053L9.23761 16H17.2371Z" fill="#812BE0"/>
<path d="M0 0L18.4733 0.00107357L9.2376 15.9978L0 0Z" fill="#E0C1F6"/>
<path d="M14.7645 16C14.7645 15.2742 14.6216 14.5555 14.3438 13.8849C14.066 13.2144 13.6589 12.6051 13.1457 12.0919C12.6325 11.5787 12.0232 11.1716 11.3527 10.8938C10.6821 10.616 9.96341 10.4731 9.23761 10.4731L9.23761 16H14.7645Z" fill="url(#paint0_linear_700_37210)"/>
<defs>
<linearGradient id="paint0_linear_700_37210" x1="12.0011" y1="8.20312" x2="12.0011" y2="16" gradientUnits="userSpaceOnUse">
<stop stop-color="white"/>
<stop offset="1" stop-color="white" stop-opacity="0"/>
</linearGradient>
</defs>
</svg>
