<svg width="19" height="16" viewBox="0 0 19 16" fill="none" xmlns="http://www.w3.org/2000/svg">
<path d="M9.78242 10.3273C9.78241 9.13138 10.2575 7.98447 11.1031 7.13886C11.9487 6.29324 13.0956 5.81817 14.2915 5.81817C15.4874 5.81817 16.6343 6.29324 17.4799 7.13885C18.3255 7.98447 18.8006 9.13138 18.8006 10.3273L9.78242 10.3273Z" fill="#812BE0"/>
<path d="M9.70969 0L18.9461 16H0.473328L9.70969 0Z" fill="#E0C1F6"/>
<path d="M11.6734 10.3273C11.6734 9.63288 11.9493 8.96694 12.4403 8.47594C12.9313 7.98493 13.5972 7.70909 14.2916 7.70909C14.986 7.70909 15.6519 7.98493 16.1429 8.47593C16.6339 8.96694 16.9098 9.63288 16.9098 10.3273L11.6734 10.3273Z" fill="url(#paint0_linear_700_37211)"/>
<defs>
<linearGradient id="paint0_linear_700_37211" x1="14.2916" y1="6.63376" x2="14.2916" y2="10.3273" gradientUnits="userSpaceOnUse">
<stop stop-color="white"/>
<stop offset="1" stop-color="white" stop-opacity="0"/>
</linearGradient>
</defs>
</svg>
