<svg width="14" height="16" viewBox="0 0 14 16" fill="none" xmlns="http://www.w3.org/2000/svg">
<path d="M7.17242 2.66667C8.29299 2.66667 9.2014 3.57508 9.2014 4.69566L9.2014 13.971C9.2014 15.0916 8.29299 16 7.17242 16C6.05184 16 5.14343 15.0916 5.14343 13.971L5.14343 4.69566C5.14343 3.57508 6.05184 2.66667 7.17242 2.66667Z" fill="#812BE0"/>
<path d="M0.853516 12.9855H13.839V5.84348H13.807C13.4812 2.56248 10.713 -1.47164e-07 7.34627 0C3.97955 1.47164e-07 1.21133 2.56248 0.885574 5.84348H0.853516L0.853516 12.9855Z" fill="#E0C1F6"/>
<path d="M7.17242 5.68114C8.29299 5.68114 9.2014 6.58955 9.2014 7.71013V12.4638C9.2014 13.5843 8.29299 14.4927 7.17242 14.4927C6.05184 14.4927 5.14343 13.5843 5.14343 12.4638L5.14343 7.71013C5.14343 6.58955 6.05184 5.68114 7.17242 5.68114Z" fill="url(#paint0_linear_700_37215)"/>
<defs>
<linearGradient id="paint0_linear_700_37215" x1="7.17242" y1="14.8109" x2="7.17242" y2="7.679" gradientUnits="userSpaceOnUse">
<stop stop-color="white"/>
<stop offset="1" stop-color="white" stop-opacity="0"/>
</linearGradient>
</defs>
</svg>
