<svg width="17" height="16" viewBox="0 0 17 16" fill="none" xmlns="http://www.w3.org/2000/svg">
<path d="M13.785 8.56428L16.1604 10.9599L16.1498 10.9707C17.1327 12.1805 17.0643 13.9686 15.9445 15.0979C14.8247 16.2272 13.0517 16.2962 11.8521 15.3049L11.8414 15.3157L9.46591 12.92C8.27324 11.7172 8.27324 9.76708 9.46591 8.56428C10.6586 7.36147 12.5923 7.36147 13.785 8.56428Z" fill="#812BE0"/>
<path d="M15.9295 7.60936C15.9295 11.8119 12.5513 15.2187 8.38423 15.2187C4.21711 15.2187 0.838989 11.8119 0.838989 7.60936C0.838989 3.40683 4.21711 0 8.38423 0C12.5513 0 15.9295 3.40683 15.9295 7.60936Z" fill="#E0C1F6"/>
<path d="M13.6549 10.1618L14.9562 11.4741C14.9594 11.4773 14.9627 11.4806 14.9659 11.4839C14.9692 11.4871 14.9724 11.4904 14.9756 11.4937L15.0981 11.6173L15.0916 11.6238C15.6937 12.3648 15.6518 13.4601 14.9659 14.1518C14.28 14.8435 13.194 14.8858 12.4592 14.2786L12.4527 14.2852L8.06555 9.86082L10.711 7.19286L13.6314 10.1381C13.6354 10.142 13.6393 10.1459 13.6432 10.1499C13.6471 10.1538 13.651 10.1578 13.6549 10.1618Z" fill="url(#paint0_linear_700_37216)"/>
<defs>
<linearGradient id="paint0_linear_700_37216" x1="17.3175" y1="16.8037" x2="9.4953" y2="8.78737" gradientUnits="userSpaceOnUse">
<stop stop-color="white"/>
<stop offset="1" stop-color="white" stop-opacity="0"/>
</linearGradient>
</defs>
</svg>
