<svg width="19" height="16" viewBox="0 0 19 16" fill="none" xmlns="http://www.w3.org/2000/svg">
<path d="M8.80398 2.77012e-05C10.5224 2.77763e-05 12.1705 0.682671 13.3856 1.89778C14.6007 3.11289 15.2833 4.76094 15.2833 6.47937C15.2833 8.1978 14.6007 9.84584 13.3856 11.061C12.1705 12.2761 10.5224 12.9587 8.80398 12.9587L8.80398 2.77012e-05Z" fill="#812BE0"/>
<path d="M0.208877 6.61159C0.208877 9.10156 1.19105 11.4895 2.93932 13.2502C4.6876 15.0109 7.05876 16 9.5312 16C12.0036 16 14.3748 15.0109 16.1231 13.2502C17.8713 11.4895 18.8535 9.10156 18.8535 6.61159L0.208877 6.61159Z" fill="#E0C1F6"/>
<path d="M8.8039 2.29632C9.91331 2.29632 10.9773 2.73703 11.7618 3.52151C12.5462 4.30598 12.9869 5.36995 12.9869 6.47936C12.9869 7.58878 12.5462 8.65275 11.7618 9.43722C10.9773 10.2217 9.91331 10.6624 8.8039 10.6624L8.8039 2.29632Z" fill="url(#paint0_linear_700_37214)"/>
<defs>
<linearGradient id="paint0_linear_700_37214" x1="14.705" y1="6.47937" x2="8.8039" y2="6.47937" gradientUnits="userSpaceOnUse">
<stop stop-color="white"/>
<stop offset="1" stop-color="white" stop-opacity="0"/>
</linearGradient>
</defs>
</svg>
