<svg width="12" height="16" viewBox="0 0 12 16" fill="none" xmlns="http://www.w3.org/2000/svg">
<path d="M6.66986 3.63119C7.87368 3.63119 9.02819 4.10941 9.87942 4.96064C10.7307 5.81186 11.2089 6.96638 11.2089 8.1702C11.2089 9.37402 10.7307 10.5285 9.87942 11.3798C9.0282 12.231 7.87368 12.7092 6.66986 12.7092L6.66986 3.63119Z" fill="#812BE0"/>
<path d="M8.93937 0C6.80259 -2.54808e-08 4.75333 0.842855 3.24239 2.34315C1.73146 3.84344 0.88263 5.87827 0.882629 8C0.882629 10.1217 1.73146 12.1566 3.24239 13.6569C4.75332 15.1571 6.80259 16 8.93937 16L8.93937 0Z" fill="#E0C1F6"/>
<path d="M6.89685 5.4468C7.61914 5.4468 8.31185 5.73373 8.82259 6.24447C9.33333 6.75521 9.62026 7.44792 9.62026 8.17021C9.62026 8.8925 9.33333 9.58521 8.82259 10.096C8.31185 10.6067 7.61914 10.8936 6.89685 10.8936L6.89685 5.4468Z" fill="url(#paint0_linear_700_37213)"/>
<defs>
<linearGradient id="paint0_linear_700_37213" x1="8.25855" y1="3.20972" x2="8.25856" y2="10.8936" gradientUnits="userSpaceOnUse">
<stop stop-color="white"/>
<stop offset="1" stop-color="white" stop-opacity="0"/>
</linearGradient>
</defs>
</svg>
