<svg width="103" height="48" viewBox="0 0 103 48" fill="none" xmlns="http://www.w3.org/2000/svg">
<path d="M9.61814 15.0226C11.4044 14.9024 13.2249 15.2631 14.8222 16.0703C17.1924 17.2382 19.0817 19.3336 19.9576 21.8068C20.3527 22.9061 20.5588 24.0568 20.5588 25.2247V29.5357C20.5588 29.7075 20.5588 29.8964 20.5244 30.0681C20.4214 30.4975 20.1122 30.8925 19.7 31.0815C19.408 31.2189 19.0817 31.236 18.7897 31.1845C18.1371 31.0643 17.6218 30.446 17.6218 29.7762C17.6218 28.4365 17.6218 27.0968 17.6218 25.7571C17.639 25.3793 17.639 24.9671 17.4329 24.6408C17.1066 24.0224 16.2821 23.7305 15.6467 23.9881C15.097 24.177 14.702 24.7438 14.6848 25.3278C14.6848 26.6846 14.6848 28.0414 14.6848 29.3983C14.6848 29.6559 14.702 29.9136 14.6161 30.154C14.4787 30.6349 14.0837 31.0128 13.6028 31.1502C12.9673 31.3219 12.246 31.0471 11.9368 30.4632C11.7135 30.1197 11.7307 29.6903 11.7479 29.2952C11.7479 27.9384 11.7479 26.5987 11.7479 25.2419C11.7307 24.5549 11.1639 23.9366 10.4941 23.8507C10.0475 23.782 9.58379 23.9366 9.25746 24.2457C8.96548 24.5205 8.81091 24.9156 8.81091 25.3106V29.2437C8.81091 29.57 8.84526 29.9136 8.72503 30.2227C8.5361 30.7895 7.96932 31.2017 7.36818 31.1845C6.74987 31.2189 6.14874 30.7895 5.95981 30.2227C5.85676 29.9307 5.87394 29.6388 5.87394 29.3296C5.87394 27.9727 5.87394 26.6159 5.87394 25.2591C5.87394 24.5892 5.3415 23.9709 4.68884 23.8507C4.08771 23.7305 3.43505 24.0224 3.1259 24.572C3.00567 24.7953 2.93697 25.053 2.93697 25.3106V29.7246C2.93697 30.154 2.74804 30.5834 2.42171 30.8582C1.92363 31.2876 1.11639 31.3219 0.601134 30.9269C0.223278 30.6693 0 30.2227 0 29.759V25.2934C0 23.6102 0.429381 21.9271 1.23662 20.4328C1.88928 19.2134 2.79957 18.1313 3.88161 17.2726C5.47891 15.9329 7.52276 15.1428 9.61814 15.0226Z" fill="#A29ACF"/>
<path d="M49.7566 20.1925H47.5238C47.6097 18.6295 47.936 17.2212 49.3616 16.328C50.7871 15.4521 52.3501 15.246 53.9817 15.3834C54.8577 15.4521 55.7336 15.641 56.5408 16.0189C57.9664 16.6716 58.6706 17.7879 58.6706 19.3509C58.6706 22.1161 58.6706 24.8813 58.6706 27.6465C58.6706 28.6599 58.8767 28.8488 59.89 28.7458C59.9931 28.7286 60.1133 28.7114 60.2163 28.6942C60.2335 28.7458 60.2335 28.7973 60.2335 28.8316V30.5148C59.4263 30.7896 58.6019 30.8755 57.7946 30.6522C57.1935 30.4805 56.8156 30.0511 56.6095 29.4843C56.5065 29.1923 56.4378 28.8832 56.3519 28.5568C56.266 28.6599 56.1973 28.7458 56.1115 28.8316C54.3424 30.6179 52.247 31.3736 49.7738 30.7381C48.0219 30.2915 46.8196 28.6942 46.7681 26.8737C46.7509 26.2897 46.8025 25.7057 46.9399 25.139C47.2662 23.8336 48.1937 23.0436 49.3616 22.5111C50.186 22.1333 51.0791 22.0302 51.9722 21.91C53.0199 21.7726 54.0504 21.6524 55.0981 21.4978C55.8023 21.3947 56.163 21.0169 56.266 20.3127C56.4893 18.8872 55.8538 17.9425 54.4798 17.599C53.6554 17.3929 52.8138 17.3586 51.9722 17.5131C50.7356 17.7364 50.0486 18.4406 49.8081 19.66C49.8253 19.8318 49.791 20.0035 49.7566 20.1925ZM56.3347 22.9405C55.3042 23.4901 54.308 23.6275 53.2947 23.7821C52.4531 23.9195 51.5944 24.0397 50.7699 24.2974C49.6879 24.658 49.1898 25.5512 49.2929 26.7534C49.3788 27.7496 50.0486 28.5568 51.1306 28.7286C52.7966 29.0034 54.2737 28.5397 55.4416 27.303C55.7851 26.9424 56.0599 26.4271 56.1286 25.9462C56.2832 24.9844 56.266 24.0054 56.3347 22.9405ZM88.1605 25.826C88.1089 26.0664 88.0746 26.2725 88.0231 26.4614C87.0613 29.3984 85.1033 30.6522 82.7331 30.927C78.6282 31.3736 76.2752 28.6942 75.6741 25.8431C75.1932 23.576 75.2619 21.326 76.258 19.1963C77.2027 17.1868 78.7141 15.8643 80.964 15.4693C83.6606 14.9884 87.4735 16.328 88.1089 20.536C88.2807 21.618 88.315 22.7344 88.4181 23.868H77.9755C78.0614 25.4138 78.3019 26.8565 79.4354 27.9729C79.8992 28.4366 80.5003 28.6599 81.153 28.7801C83.2655 29.158 85.0174 28.1446 85.7044 26.1008C85.7731 25.8775 85.8762 25.8088 86.0994 25.826C86.7693 25.826 87.4391 25.826 88.1605 25.826ZM78.0614 21.8757H85.8762C85.7903 20.9654 85.6357 20.1238 85.2063 19.3337C84.7941 18.578 84.193 18.0284 83.3686 17.7536C80.6721 16.8261 77.8897 18.973 78.0614 21.8757ZM93.7768 30.4289H91.4066V15.6926H93.6565V17.7536C93.8283 17.5647 93.9314 17.4444 94.0344 17.3242C95.6489 15.4865 97.6756 15.0056 99.977 15.5723C101.574 15.9674 102.467 17.1009 102.777 18.6811C102.897 19.3337 102.983 20.0036 102.983 20.6562C103 23.8165 103 26.9767 103 30.137C103 30.2228 102.983 30.3087 102.983 30.4118H100.561V30.0167C100.561 27.0626 100.578 24.1084 100.544 21.1543C100.544 20.5016 100.441 19.8318 100.252 19.1963C99.9427 18.1658 99.1183 17.6162 98.0362 17.5647C96.0611 17.496 94.4981 18.5437 94.0172 20.2955C93.8455 20.931 93.794 21.6008 93.794 22.2707C93.7768 24.8641 93.7768 27.4404 93.7768 29.9995V30.4289ZM62.535 15.6926H64.8193V21.9444C64.9567 21.807 65.0426 21.7383 65.1285 21.6524C67.0006 19.7459 68.8727 17.8223 70.7448 15.9158C70.8993 15.7441 71.0539 15.6754 71.2944 15.6754C72.1703 15.6926 73.0634 15.6754 74.0252 15.6754C73.8878 15.8128 73.8191 15.8987 73.7333 15.9845C72.0844 17.6334 70.4528 19.2994 68.7868 20.931C68.5979 21.1199 68.5979 21.2402 68.7181 21.4463C70.5215 24.3145 72.3077 27.1828 74.0939 30.0511C74.1626 30.1541 74.2142 30.2572 74.3 30.4118C74.1798 30.4289 74.0939 30.4289 73.9909 30.4289C73.1665 30.4289 72.3592 30.4289 71.5348 30.4289C71.3116 30.4289 71.2085 30.3431 71.0883 30.1713C69.7142 27.8698 68.3402 25.5683 66.9662 23.2497C66.8975 23.1466 66.846 23.0436 66.7601 22.9233C66.1246 23.5588 65.5063 24.16 64.888 24.7954C64.8021 24.8813 64.785 25.0359 64.785 25.1561C64.785 26.7706 64.785 28.3851 64.785 29.9995V30.4118C64.3384 30.4118 63.8918 30.4118 63.4625 30.4118C63.1533 30.4118 62.7239 30.4976 62.5522 30.3259C62.3976 30.1885 62.4835 29.7419 62.4835 29.4328V16.0876C62.535 16.0017 62.535 15.8643 62.535 15.6926ZM36.171 15.6754C34.3161 17.5131 32.5127 19.3165 30.6921 21.1199C32.6501 24.2458 34.5565 27.303 36.4973 30.4289C36.3427 30.4289 36.2397 30.4461 36.1366 30.4461C35.3466 30.4461 34.5393 30.4461 33.7493 30.4461C33.526 30.4461 33.3886 30.3602 33.2684 30.1713C31.8943 27.8698 30.5203 25.5683 29.1463 23.2497C29.0948 23.1466 29.0261 23.0607 28.9402 22.9233C28.5967 23.284 28.2875 23.6791 27.9097 23.9539C27.1368 24.5378 26.9135 25.2592 26.965 26.221C27.0509 27.4748 26.9822 28.7458 26.9822 29.9995V30.4118H24.7151V15.6926H26.9822V21.8413C27.0337 21.8757 27.0853 21.91 27.1196 21.9444C27.1883 21.8413 27.2227 21.7211 27.2914 21.6352C29.1463 19.7287 31.0184 17.8395 32.8733 15.9158C33.0451 15.7441 33.1997 15.6582 33.4573 15.6754C34.2302 15.6926 35.0031 15.6754 35.776 15.6754C35.8962 15.6754 35.9992 15.6754 36.171 15.6754ZM40.7052 18.1314C41.856 16.4483 43.0754 15.0399 45.3426 15.4521V17.9769C44.7414 18.0112 44.1403 17.994 43.5735 18.1143C42.1823 18.4063 41.1003 19.6772 40.877 21.223C40.8427 21.5321 40.8083 21.8413 40.8083 22.1505C40.8083 24.7783 40.8083 27.4061 40.8083 30.0339V30.4461H38.4725V15.7269H40.7052C40.7052 16.4998 40.7052 17.2727 40.7052 18.1314Z" fill="#A29ACF"/>
</svg>
