<svg width="105" height="48" viewBox="0 0 105 48" fill="none" xmlns="http://www.w3.org/2000/svg">
<path fill-rule="evenodd" clip-rule="evenodd" d="M14.5357 31.1118L7.42747 24.0024L14.539 16.8875L19.0258 21.3743C19.8281 22.0967 21.0555 22.0646 21.8189 21.3012C22.5823 20.5378 22.6144 19.3104 21.892 18.5081L15.9667 12.5871C15.1716 11.8043 13.8955 11.8043 13.1004 12.5871L4.55903 21.1296V16.0508C4.55903 14.9299 3.65039 14.0213 2.52952 14.0213C1.40865 14.0213 0.5 14.9299 0.5 16.0508V31.9474C0.5 33.0683 1.40865 33.9769 2.52952 33.9769C3.65039 33.9769 4.55903 33.0683 4.55903 31.9474V26.8687L13.1015 35.4133C13.8968 36.1955 15.1724 36.1955 15.9678 35.4133L21.8887 29.4913C22.6111 28.689 22.579 27.4615 21.8156 26.6982C21.0522 25.9348 19.8248 25.9026 19.0225 26.625L14.5357 31.1118ZM12.6612 23.2241C12.976 22.465 13.7172 21.9702 14.539 21.9707V21.9696C15.0779 21.9699 15.5946 22.1842 15.9754 22.5654C16.3562 22.9467 16.57 23.4636 16.5697 24.0024C16.5697 24.8243 16.0745 25.5652 15.3152 25.8796C14.5559 26.194 13.6819 26.02 13.1009 25.4387C12.5199 24.8574 12.3464 23.9833 12.6612 23.2241ZM82.3255 24.0024C82.3255 23.3895 82.3255 22.8129 82.3057 22.2805C82.2922 21.7782 82.2424 21.2775 82.1569 20.7823C82.0768 20.3302 81.9355 19.891 81.7369 19.4771C81.5271 19.0503 81.2469 18.6619 80.9078 18.3284C80.427 17.8357 79.8549 17.4415 79.2234 17.1675C78.5402 16.8908 77.8085 16.7536 77.0715 16.7641C76.3317 16.7545 75.5973 16.8916 74.9108 17.1675C74.2757 17.4377 73.6999 17.8303 73.2164 18.3229C72.878 18.6562 72.5988 19.0446 72.3907 19.4716C72.1937 19.8856 72.0546 20.3248 71.9773 20.7768C71.8937 21.2721 71.8458 21.7728 71.834 22.275C71.8208 22.8074 71.8142 23.384 71.8175 23.9969C71.8183 24.1477 71.8187 24.296 71.8191 24.4418V24.4425C71.8203 24.8895 71.8215 25.314 71.834 25.7178C71.8458 26.2199 71.8937 26.7206 71.9773 27.2159C72.0546 27.6679 72.1937 28.1071 72.3907 28.5212C72.5997 28.9476 72.8788 29.3359 73.2164 29.6699C73.6991 30.1628 74.2751 30.5548 74.9108 30.823C75.5968 31.1007 76.3314 31.2386 77.0715 31.2286C77.8088 31.2395 78.5407 31.1015 79.2234 30.823C79.855 30.5527 80.4273 30.1609 80.9078 29.6699C81.2461 29.3357 81.5263 28.9475 81.7369 28.5212C81.9355 28.1072 82.0768 27.6681 82.1569 27.2159C82.2415 26.7222 82.2905 26.223 82.3035 25.7222C82.32 25.1864 82.3277 24.6131 82.3233 24.0013L82.3255 24.0024ZM79.5475 24.0024C79.5475 24.6815 79.5376 25.247 79.5144 25.6968C79.5014 26.0663 79.4646 26.4345 79.4042 26.7992C79.3629 27.0422 79.2887 27.2784 79.1837 27.5014C79.0985 27.6812 78.987 27.8472 78.853 27.9942C78.646 28.2311 78.3893 28.4193 78.1011 28.5454C77.7769 28.6842 77.4275 28.7547 77.0748 28.7527C76.7204 28.7542 76.3693 28.6837 76.043 28.5454C75.7478 28.4217 75.4841 28.2333 75.2713 27.9942C75.1364 27.8479 75.0248 27.6817 74.9406 27.5014C74.8385 27.2782 74.768 27.0419 74.7311 26.7992C74.6722 26.4343 74.6354 26.0662 74.6209 25.6968C74.601 25.247 74.5911 24.6822 74.5911 24.0024C74.5911 23.3233 74.601 22.7567 74.6209 22.3069C74.6355 21.9376 74.6723 21.5695 74.7311 21.2045C74.768 20.9619 74.8385 20.7255 74.9406 20.5023C75.0251 20.3222 75.1366 20.156 75.2713 20.0095C75.4844 19.7708 75.748 19.5825 76.043 19.4583C76.3688 19.3185 76.7202 19.2479 77.0748 19.2511C77.4277 19.2474 77.7773 19.318 78.1011 19.4583C78.3891 19.5848 78.6458 19.773 78.853 20.0095C78.9868 20.1567 79.0982 20.3227 79.1837 20.5023C79.2887 20.7253 79.3629 20.9615 79.4042 21.2045C79.4645 21.5693 79.5013 21.9375 79.5144 22.3069C79.5387 22.7556 79.5475 23.3222 79.5475 24.0024ZM104.462 17.1322C104.46 16.9982 104.352 16.8898 104.218 16.8886H101.926C101.792 16.8892 101.683 16.9979 101.683 17.1322V25.5987L96.0934 16.9569C96.0559 16.8985 96.0228 16.8886 95.9401 16.8886H93.8147C93.6809 16.8904 93.5729 16.9984 93.5711 17.1322V30.8703C93.5729 31.0039 93.6811 31.1117 93.8147 31.1129H96.1055C96.2392 31.1122 96.3474 31.004 96.348 30.8703V22.3819L101.938 31.0434C101.977 31.1018 102.008 31.1117 102.092 31.1117H104.216C104.35 31.1112 104.458 31.0031 104.459 30.8692L104.462 17.1322ZM88.8551 16.8886C88.9894 16.8892 89.0982 16.9979 89.0988 17.1322V30.8692C89.0982 31.0035 88.9894 31.1122 88.8551 31.1129H86.5654C86.4311 31.1122 86.3224 31.0035 86.3218 30.8692V17.1322C86.3224 16.9979 86.4311 16.8892 86.5654 16.8886H88.8551ZM61.6886 24.0025C61.6886 23.319 61.6963 22.7501 61.7161 22.297C61.7296 21.9276 61.7664 21.5594 61.8264 21.1946C62.038 19.971 62.9751 19.2489 64.1712 19.2489C64.9517 19.2555 65.6594 19.5444 66.1114 20.2014C66.3161 20.5081 66.4653 20.8484 66.5523 21.2068C66.5591 21.2445 66.5935 21.2709 66.6317 21.2674H69.3271C69.3657 21.2674 69.38 21.2409 69.3734 21.2035C69.079 19.5355 68.1894 18.0374 66.6174 17.2955C65.8448 16.9377 65.0015 16.7588 64.1502 16.7718C62.6326 16.7718 61.3542 17.2914 60.315 18.3306C59.7217 18.9089 59.3167 19.6527 59.153 20.4649C58.9943 21.2645 58.9142 22.4433 58.9127 24.0014C58.9113 25.5594 58.9914 26.7379 59.153 27.5367C59.3153 28.3499 59.7191 29.0953 60.3117 29.6754C61.3501 30.7139 62.6285 31.2331 64.1469 31.2331C64.9981 31.246 65.8412 31.0674 66.6141 30.7106C68.1861 29.9686 69.0757 28.4705 69.3701 26.8026C69.3767 26.764 69.3624 26.7386 69.3238 26.7386H66.6273C66.589 26.7346 66.5542 26.7612 66.5479 26.7992C66.4607 27.1572 66.3115 27.4971 66.107 27.8035C65.655 28.465 64.9473 28.7505 64.1668 28.756C62.9706 28.756 62.0336 28.035 61.822 26.8114C61.7621 26.4466 61.7253 26.0784 61.7117 25.709C61.6963 25.2537 61.6886 24.6837 61.6886 24.0025ZM32.9766 16.8886C33.1109 16.8892 33.2197 16.9979 33.2203 17.1322V22.9132L38.2042 16.936C38.2264 16.9063 38.262 16.8897 38.299 16.8919H41.3405C41.4838 16.8919 41.5224 16.9966 41.4309 17.1069L36.8968 22.5461L41.8388 30.9243C41.9028 31.0335 41.8796 31.113 41.7517 31.113H38.9693C38.9139 31.1151 38.8616 31.0873 38.8326 31.0401L35.058 24.6407L33.2203 26.8377V30.8703C33.2191 31.0042 33.1105 31.1123 32.9766 31.113H30.6869C30.5531 31.1123 30.4445 31.0042 30.4433 30.8703V17.1322C30.4439 16.9979 30.5526 16.8892 30.6869 16.8886H32.9766ZM49.9017 28.7559C48.613 28.7559 47.4445 27.5631 47.4445 26.1388V17.1322C47.4439 16.9979 47.3351 16.8892 47.2008 16.8886H44.9112C44.7768 16.8892 44.6681 16.9979 44.6675 17.1322V26.1036C44.6675 29.2399 47.0134 31.233 49.9017 31.233C52.79 31.233 55.1359 29.2399 55.1359 26.1036V17.1322C55.1347 16.9982 55.0263 16.8898 54.8923 16.8886H52.6015C52.4676 16.8898 52.3596 16.9984 52.359 17.1322V26.1388C52.359 27.562 51.1893 28.7559 49.9017 28.7559Z" fill="#A29ACF"/>
</svg>
