<svg width="64" height="48" viewBox="0 0 64 48" fill="none" xmlns="http://www.w3.org/2000/svg">
<path fill-rule="evenodd" clip-rule="evenodd" d="M45.4026 27.1897V11H48.6568V27.1897H45.4026ZM7.4764 31.9988H0.5V15.8091H7.19586C10.4501 15.8091 12.3462 17.5826 12.3462 20.3569C12.3462 22.1527 11.1285 23.3132 10.2856 23.6996C11.2917 24.1541 12.5796 25.1771 12.5796 27.3383C12.5796 30.3615 10.4501 31.9988 7.4764 31.9988ZM6.93828 18.6292H3.7542V22.3583H6.93828C8.31931 22.3583 9.09204 21.6078 9.09204 20.4931C9.09204 19.3797 8.31931 18.6292 6.93828 18.6292ZM7.14868 25.2006H3.7542V29.1799H7.14868C8.62403 29.1799 9.32536 28.2709 9.32536 27.1785C9.32536 26.0874 8.62273 25.2006 7.14868 25.2006ZM22.5053 31.9988V25.3592L27.5141 15.8091H23.9794L20.9126 22.3347L17.7987 15.8091H14.2639L19.274 25.3592V31.9988H22.5053ZM36.74 31.9988H29.7636V15.8091H36.4595C39.7137 15.8091 41.6098 17.5826 41.6098 20.3569C41.6098 22.1527 40.3921 23.3132 39.5492 23.6996C40.5553 24.1541 41.8432 25.1771 41.8432 27.3383C41.8432 30.3615 39.7137 31.9988 36.74 31.9988ZM36.2019 18.6292H33.0178V22.3583H36.2019C37.5829 22.3583 38.3556 21.6078 38.3556 20.4931C38.3556 19.3797 37.5829 18.6292 36.2019 18.6292ZM36.4123 25.2006H33.0178V29.1799H36.4123C37.8876 29.1799 38.589 28.2709 38.589 27.1785C38.589 26.0874 37.8876 25.2006 36.4123 25.2006ZM59.145 32V18.6292H63.4997V15.8091H51.5361V18.6292H55.8908V32H59.145Z" fill="#A29ACF"/>
</svg>
