<svg width="115" height="48" viewBox="0 0 115 48" fill="none" xmlns="http://www.w3.org/2000/svg">
<path d="M23.1775 16.5836C19.0057 16.5836 15.746 19.6712 15.746 23.8045C15.746 27.9379 18.9233 30.999 23.1775 30.999C27.4317 30.999 30.6642 27.885 30.6642 23.7781C30.6642 19.6976 27.4869 16.5836 23.1775 16.5836ZM23.2056 28.0202C20.8299 28.0202 19.0891 26.2213 19.0891 23.8055C19.0891 21.3623 20.8018 19.5645 23.1775 19.5645C25.5813 19.5645 27.3212 21.3898 27.3212 23.8055C27.3212 26.2213 25.5813 28.0202 23.2056 28.0202ZM31.5753 19.725H33.6477V30.7317H36.9626V16.8519H31.5753V19.725ZM7.40337 19.5634C9.14423 19.5634 10.5255 20.6102 11.0498 22.1672H14.5586C13.9227 18.8388 11.1051 16.5836 7.43151 16.5836C3.25969 16.5836 0 19.6712 0 23.8055C0 27.9399 3.17734 31 7.43151 31C11.0227 31 13.8956 28.7448 14.5315 25.3889H11.0498C10.5526 26.9459 9.17133 28.0202 7.43047 28.0202C5.02662 28.0202 3.34204 26.2213 3.34204 23.8055C3.34309 21.3623 5.00056 19.5634 7.40337 19.5634ZM94.5613 22.463L92.1303 22.1144C90.9701 21.9538 90.1414 21.5778 90.1414 20.6916C90.1414 19.725 91.2192 19.2423 92.6828 19.2423C94.285 19.2423 95.3077 19.9131 95.5287 21.0137H98.7331C98.3735 18.2219 96.1635 16.5846 92.7662 16.5846C89.2574 16.5846 86.9369 18.3296 86.9369 20.7993C86.9369 23.1612 88.4568 24.5312 91.5226 24.9601L93.9535 25.3087C95.1419 25.4692 95.8049 25.9266 95.8049 26.7854C95.8049 27.886 94.6447 28.3423 93.0424 28.3423C91.0806 28.3423 89.9756 27.5639 89.8099 26.3829H86.5502C86.8546 29.0944 89.0364 31 93.0143 31C96.6336 31 99.0364 29.3891 99.0364 26.6238C99.0364 24.1541 97.2966 22.8654 94.5613 22.463ZM35.3052 11.1342C34.0897 11.1342 33.1775 11.9929 33.1775 13.1739C33.1775 14.3548 34.0886 15.2136 35.3052 15.2136C36.5206 15.2136 37.4328 14.3548 37.4328 13.1739C37.4328 11.9929 36.5206 11.1342 35.3052 11.1342ZM83.9535 21.6042C83.9535 18.5979 82.075 16.5846 78.0971 16.5846C74.3401 16.5846 72.2407 18.4374 71.8258 21.283H75.1136C75.2794 20.1824 76.1634 19.2697 78.0418 19.2697C79.7274 19.2697 80.5562 19.9944 80.5562 20.8806C80.5562 22.0351 79.0363 22.3298 77.1578 22.5179C74.6164 22.7862 71.4672 23.645 71.4672 26.8667C71.4672 29.3637 73.3738 30.9736 76.4125 30.9736C78.7882 30.9736 80.2799 30.0071 81.0263 28.4765C81.1368 29.8455 82.1865 30.7317 83.6512 30.7317H85.5849V27.8596H83.9545V21.6042H83.9535ZM80.6938 25.0942C80.6938 26.9469 79.0363 28.3159 77.0192 28.3159C75.7756 28.3159 74.7258 27.8057 74.7258 26.7325C74.7258 25.3635 76.4115 24.9875 77.9584 24.8269C79.4501 24.6928 80.2789 24.3706 80.6938 23.7527V25.0942ZM63.0965 16.5836C61.2451 16.5836 59.6981 17.3357 58.5931 18.5969V11H55.2782V30.7317H58.5379V28.9064C59.6429 30.2215 61.218 31 63.0965 31C67.0744 31 70.086 27.9399 70.086 23.8055C70.086 19.6712 67.0191 16.5836 63.0965 16.5836ZM62.5992 28.0202C60.2235 28.0202 58.4826 26.2213 58.4826 23.8055C58.4826 21.3898 60.2506 19.5645 62.6263 19.5645C65.0302 19.5645 66.7147 21.3633 66.7147 23.8055C66.7147 26.2213 64.9749 28.0202 62.5992 28.0202ZM47.3494 16.5836C45.1947 16.5836 43.7854 17.4424 42.9566 18.6508V16.8519H39.6688V30.7307H42.9837V23.1876C42.9837 21.0666 44.365 19.5634 46.4092 19.5634C48.3158 19.5634 49.5031 20.8786 49.5031 22.7852V30.7317H52.818V22.5443C52.8191 19.0533 50.9688 16.5836 47.3494 16.5836ZM114.839 23.3492C114.839 19.3764 111.855 16.5846 107.849 16.5846C103.595 16.5846 100.473 19.6986 100.473 23.8055C100.473 28.1279 103.816 31 107.904 31C111.358 31 114.065 29.0131 114.755 26.1949H111.302C110.804 27.4297 109.589 28.1279 107.959 28.1279C105.831 28.1279 104.229 26.8392 103.87 24.584H114.838V23.3492H114.839ZM104.064 22.275C104.589 20.3419 106.081 19.4029 107.794 19.4029C109.672 19.4029 111.109 20.4497 111.44 22.275H104.064Z" fill="#A29ACF"/>
</svg>
