<svg width="137" height="48" viewBox="0 0 137 48" fill="none" xmlns="http://www.w3.org/2000/svg">
<path fill-rule="evenodd" clip-rule="evenodd" d="M135.769 14.0907C135.723 14.0678 129.857 13.2429 124.059 17.0467C120.462 19.4069 119.981 22.867 120.164 25.1814C128.596 24.219 135.585 14.3657 135.769 14.0907ZM120.737 27.7478C121.47 29.0539 126.924 31.987 131.781 27.9311C136.616 23.8752 136.227 16.4739 135.792 14.0907L135.78 14.1158C135.461 14.8083 130.185 26.2821 120.737 27.7478ZM9.41787 27.2437H2.8414V23.6691H9.41787C11.0677 23.6691 11.8926 24.4711 11.8926 25.5022C11.8926 26.5105 11.0906 27.2437 9.41787 27.2437ZM9.21164 21.7672H2.8414V18.7653H9.21164C10.9531 18.7653 11.6177 19.384 11.6177 20.2319C11.6177 21.011 10.8386 21.7672 9.21164 21.7672ZM10.8844 22.6608C13.6571 22.5692 14.6653 21.1714 14.6653 19.6361C14.6653 17.9633 13.3592 16.5656 10.174 16.5656H0V29.3748H10.4719C13.0842 29.3748 15.0319 28.252 15.0319 25.8688C15.0319 24.1961 13.932 22.7525 10.8844 22.6608ZM17.7817 16.5885V29.3977H20.6231V16.5885H17.7817ZM32.5844 18.9945H38.8401V16.5656H23.4874V18.9945H29.743V29.3748H32.5844V18.9945ZM41.7273 16.5885V29.3977H44.5687V24.4023H51.2369V22.2942H44.5687V18.7883H55.4073V16.5885H41.7273ZM58.4549 16.5885V29.3977H61.2963V16.5885H58.4549ZM67.0479 19.7048L76.4658 29.3977H79.6738V16.5885H76.8782V25.823L67.827 16.5885H64.2294V29.3977H67.0479V19.7048ZM82.6068 16.5885V29.3977H96.493V27.2437H85.4253V23.7149H92.0476V21.7213H85.4253V18.7883H96.493V16.5885H82.6068ZM116.131 16.5885H112.373L107.607 21.0797L102.863 16.5656H99.0595L105.751 22.8671L98.8074 29.3519H102.565L107.584 24.6315L112.579 29.3519H116.406L109.44 22.8671L116.131 16.5885Z" fill="#A29ACF"/>
</svg>
