<svg width="167" height="48" viewBox="0 0 167 48" fill="none" xmlns="http://www.w3.org/2000/svg">
<path d="M13.8611 7L0 15V31L13.8611 39L27.7222 31V15L13.8611 7ZM13.8611 7L0 15V31L13.8611 39L27.7222 31V15L13.8611 7Z" fill="#EFECFF"/>
<path d="M19.3333 32.75H17.3611L15 30.5833V29.4722L17.4445 27.1389V23.4444L20.6389 21.3611L24.2778 24.1111L19.3333 32.75ZM11.1667 26.9167L11.5278 23.4444L10.3333 20.3333H17.3889L16.2222 23.4444L16.5556 26.9167H13.8333H11.1667ZM12.7778 30.5833L10.4167 32.7778H8.41667L3.44445 24.1111L7.11112 21.3889L10.3333 23.4444V27.1389L12.7778 29.4722V30.5833ZM8.3889 13.9167H19.3056L20.6111 19.4722H7.11112L8.3889 13.9167ZM13.8611 7L0 15V31L13.8611 39L27.7222 31V15L13.8611 7Z" fill="#A29ACF"/>
<path d="M43.2779 30.4168C39.6112 30.4168 36.9167 27.5557 36.9167 24.0279C36.9167 20.5001 39.639 17.5557 43.3056 17.5557C45.639 17.5557 47.0834 18.4168 48.2223 19.6668L46.4723 21.5557C45.6112 20.639 44.6945 20.0279 43.2779 20.0279C41.2223 20.0279 39.7223 21.8057 39.7223 23.9723C39.7223 26.1946 41.2501 27.9723 43.4167 27.9723C44.7501 27.9723 45.7223 27.3334 46.6112 26.4446L48.3056 28.139C47.0834 29.4446 45.6667 30.4168 43.2779 30.4168Z" fill="#A29ACF"/>
<path d="M53.6668 30.4167H50.8335V17.5834H53.6668V20.5834C54.4446 18.7501 55.8613 17.4723 58.0279 17.5834V20.5834H57.8613C55.3891 20.5834 53.6668 22.1945 53.6668 25.4723V30.4167Z" fill="#A29ACF"/>
<path d="M72.8335 17.5278L66.5835 33.8613H63.7224L65.0835 30.4169L59.7224 17.5278H62.7502L66.3891 27.0557L69.8891 17.5278H72.8335Z" fill="#A29ACF"/>
<path d="M81.1669 20.0001C79.2502 20.0001 77.5836 21.5556 77.5836 23.9723C77.5836 26.389 79.278 27.9446 81.1669 27.9446C83.1113 27.9446 84.6947 26.4168 84.6947 23.9723C84.6947 21.5279 83.0836 20.0001 81.1669 20.0001ZM81.8058 30.3891C79.778 30.3891 78.5002 29.3613 77.6391 28.2224V33.8613H74.8058V17.5278H77.6391V19.8334C78.5558 18.5556 79.8336 17.5278 81.8058 17.5278C84.7225 17.5278 87.5558 19.8334 87.5558 23.9446C87.5558 28.0557 84.7502 30.3891 81.8058 30.3891Z" fill="#A29ACF"/>
<path d="M93.7501 20.2221V26.2776C93.7501 27.361 94.3057 27.8054 95.2779 27.8054H96.3889V30.3332H94.4445C92.389 30.3332 90.9168 29.4165 90.9168 26.7221V20.2221H89.3613V17.8054H90.9168V14.4165H93.7501V17.8054H96.3889V20.2221H93.7501Z" fill="#A29ACF"/>
<path d="M105.306 20.0001C103.028 20.0001 101.583 21.7779 101.583 23.9446C101.583 26.139 103.139 27.9446 105.333 27.9446C107.611 27.9446 109.056 26.1668 109.056 24.0001C109.111 21.8057 107.528 20.0001 105.306 20.0001ZM105.306 30.4168C101.556 30.4168 98.7778 27.5557 98.7778 24.0279C98.7778 20.4723 101.583 17.5557 105.361 17.5557C109.139 17.5557 111.917 20.4168 111.917 23.9723C111.917 27.4723 109.139 30.4168 105.306 30.4168Z" fill="#A29ACF"/>
<path d="M138.944 20.0001C136.667 20.0001 135.222 21.7779 135.222 23.9446C135.222 26.139 136.778 27.9446 138.972 27.9446C141.25 27.9446 142.694 26.1668 142.694 24.0001C142.722 21.8057 141.167 20.0001 138.944 20.0001ZM138.944 30.4168C135.194 30.4168 132.417 27.5557 132.417 24.0279C132.417 20.4723 135.222 17.5557 139 17.5557C142.778 17.5557 145.555 20.4168 145.555 23.9723C145.555 27.4723 142.75 30.4168 138.944 30.4168Z" fill="#A29ACF"/>
<path d="M162.333 17.5278C165.028 17.5278 166.667 19.2223 166.667 22.2501V30.3889H163.833V23.1112C163.833 21.1389 162.917 20.1112 161.333 20.1112C159.806 20.1112 158.694 21.1945 158.694 23.1667V30.4167H155.861V23.1112C155.861 21.1945 154.917 20.1112 153.361 20.1112C151.806 20.1112 150.722 21.2778 150.722 23.1945V30.4167H147.889V17.5556H150.722V19.6667C151.528 18.5834 152.583 17.5556 154.472 17.5556C156.25 17.5556 157.472 18.4167 158.139 19.7223C159.167 18.3889 160.472 17.5278 162.333 17.5278Z" fill="#A29ACF"/>
<path d="M117.111 27.8055V29.2499L117.028 29.3888L115.778 30.0833H115.611L114.389 29.3888L114.306 29.2499V27.8055L114.389 27.6666L115.611 26.9722H115.778L117.028 27.6666L117.111 27.8055Z" fill="#A29ACF"/>
<path d="M125.695 30.389C122.028 30.3057 119.389 27.389 119.445 23.8612C119.5 20.3334 122.278 17.4445 125.972 17.5279C128.306 17.5834 129.75 18.4723 130.861 19.7501L129.083 21.6112C128.25 20.6945 127.333 20.0279 125.917 20.0001C123.861 19.9723 122.334 21.6946 122.306 23.889C122.25 26.1112 123.75 27.9168 125.917 27.9446C127.25 27.9723 128.25 27.3612 129.139 26.4723L130.806 28.1946C129.556 29.5001 128.111 30.4446 125.695 30.389Z" fill="#A29ACF"/>
</svg>
