<svg width="89" height="48" viewBox="0 0 89 48" fill="none" xmlns="http://www.w3.org/2000/svg">
<path fill-rule="evenodd" clip-rule="evenodd" d="M15.4262 29.9262H18.1696V19.6018H15.4262V29.9262ZM15.1608 16.6224C15.1608 16.1504 15.3082 15.767 15.6327 15.4425C15.9277 15.1475 16.3407 15 16.8127 15C17.3141 15 17.6976 15.1475 17.9926 15.4425C18.2876 15.7375 18.4646 16.1209 18.4646 16.6224C18.4646 17.0944 18.3171 17.4779 17.9926 17.8024C17.6976 18.0973 17.2846 18.2448 16.8127 18.2448C16.3407 18.2448 15.9572 18.0973 15.6327 17.8024C15.3082 17.5074 15.1608 17.0944 15.1608 16.6224ZM24.4824 19.5723H27.2848V21.6372H24.4824V26.593C24.4824 27.0354 24.6004 27.3894 24.8659 27.6549C25.1314 27.9204 25.4559 28.0679 25.8983 28.0679C26.2818 28.0679 26.7243 28.0089 27.1963 27.8909L27.5503 29.9263C26.7538 30.1328 25.9868 30.2508 25.2494 30.2508C24.7479 30.2508 24.2759 30.1623 23.8629 30.0148C23.45 29.8673 23.096 29.6313 22.7715 29.3363C22.4765 29.0413 22.2405 28.6873 22.0635 28.2744C21.8865 27.8614 21.8275 27.4189 21.8275 26.9174V21.6962H19.9396V19.6313H21.8275V16.593H24.4529V19.5723H24.4824ZM29.2022 21.1651C28.9957 21.5486 28.9072 21.9911 28.9072 22.4336C28.9072 23.0825 29.0252 23.6135 29.2907 23.9675C29.5562 24.351 29.8806 24.646 30.2936 24.8819C30.7066 25.1179 31.1196 25.2949 31.5915 25.4129C32.0635 25.5309 32.4764 25.6489 32.8894 25.7669L32.8895 25.7669C33.3025 25.8849 33.6269 26.0324 33.8924 26.2094C34.1579 26.3864 34.3054 26.6224 34.3054 26.9468C34.3054 27.3303 34.1579 27.6253 33.8629 27.8318C33.5679 28.0383 33.155 28.1563 32.6535 28.1563C31.68 28.1563 30.5886 27.9203 29.3792 27.4188L28.8187 29.3362C30.2346 29.8967 31.5915 30.1622 32.86 30.1622C33.45 30.1622 34.0104 30.0737 34.5119 29.9262C35.0429 29.7492 35.4559 29.5427 35.8098 29.2477C36.1638 28.9527 36.4293 28.5988 36.6358 28.2153C36.8423 27.8023 36.9308 27.3893 36.9308 26.9173C36.9308 26.2684 36.7833 25.7374 36.5178 25.3244C36.2523 24.9409 35.9278 24.6165 35.5149 24.3805C35.1314 24.1445 34.6889 23.9675 34.2169 23.8495C33.7449 23.761 33.332 23.643 32.919 23.525C32.506 23.407 32.1815 23.2595 31.916 23.112C31.6505 22.9645 31.5031 22.7286 31.5031 22.4041C31.5031 22.0501 31.621 21.7846 31.916 21.5781C32.211 21.3716 32.5945 21.2831 33.0665 21.2831C33.5089 21.2831 33.9809 21.3421 34.4824 21.4601C34.9839 21.5781 35.4853 21.7256 35.9868 21.9321L36.5768 19.9852C35.9278 19.7492 35.2789 19.5722 34.6594 19.4542C34.0399 19.3362 33.4205 19.2772 32.8305 19.2772C32.27 19.2772 31.7095 19.3657 31.2376 19.5132C30.7656 19.6607 30.3526 19.8967 29.9986 20.1622C29.6741 20.4572 29.4087 20.7817 29.2022 21.1651ZM42.4469 19.5723H45.2492V21.6372H42.4469V26.593C42.4469 27.0354 42.5649 27.3894 42.8303 27.6549C43.0958 27.9204 43.4203 28.0679 43.8628 28.0679C44.2463 28.0679 44.6887 28.0089 45.1607 27.8909L45.5147 29.9263C44.7182 30.1328 43.9513 30.2508 43.2138 30.2508C42.7123 30.2508 42.2404 30.1623 41.8274 30.0148C41.4144 29.8673 41.0604 29.6313 40.7359 29.3363C40.4115 29.0413 40.205 28.6873 40.028 28.2744C39.851 27.8614 39.792 27.4189 39.792 26.9174V21.6962H37.9041V19.6313H39.792V16.593H42.4174V19.5723H42.4469ZM50.0871 27.8319C49.7626 27.5369 49.5856 27.1829 49.5856 26.7699C49.5856 26.2389 49.8216 25.7965 50.2346 25.5015C50.6771 25.177 51.267 25.0295 52.034 25.0295C52.6535 25.0295 53.2139 25.0885 53.7154 25.236V25.8555C53.7154 26.5634 53.5089 27.1534 53.0664 27.5959C52.624 28.0383 52.0635 28.2743 51.3555 28.2743C50.8541 28.2743 50.4411 28.1268 50.0871 27.8319ZM48.2582 24.3805C47.4322 24.9705 47.0193 25.826 47.0193 26.9174C47.0193 27.3894 47.1077 27.8319 47.3142 28.2448C47.4912 28.6578 47.7272 28.9823 48.0517 29.2773C48.3762 29.5723 48.7597 29.8083 49.2021 29.9557C49.6446 30.1032 50.1461 30.1917 50.6771 30.1917C51.326 30.1917 51.916 30.0737 52.506 29.8378C53.0664 29.6018 53.5974 29.2478 54.0399 28.8053C54.2169 29.2478 54.4824 29.6018 54.8659 29.8378C55.2493 30.1032 55.6918 30.2212 56.2228 30.2212C56.4883 30.2212 56.7243 30.2212 56.9603 30.1917C57.0782 30.177 57.1889 30.1549 57.2995 30.1327C57.4101 30.1106 57.5207 30.0885 57.6387 30.0737L57.4617 28.0973C57.4509 28.0973 57.4322 28.1013 57.4085 28.1063C57.3674 28.115 57.3113 28.1268 57.2552 28.1268C57.1372 28.1563 57.0487 28.1563 56.9308 28.1563C56.6948 28.1563 56.5178 28.0973 56.3998 27.9498C56.2818 27.8319 56.2228 27.6549 56.2228 27.4189V23.2006C56.2228 22.6401 56.1048 22.1091 55.8983 21.6372C55.6918 21.1652 55.3968 20.7522 55.0134 20.4277C54.6299 20.0737 54.1874 19.8083 53.6564 19.6313C53.1254 19.4248 52.565 19.3363 51.916 19.3363C50.5001 19.3363 49.0547 19.6018 47.5797 20.1917L48.2582 22.0796C49.4676 21.5782 50.5886 21.3422 51.621 21.3422C52.27 21.3422 52.7715 21.5192 53.1549 21.8437C53.5384 22.1681 53.7154 22.6106 53.7154 23.1416V23.7021C53.3909 23.6431 53.0369 23.5841 52.7125 23.5546C52.388 23.5251 52.0635 23.4956 51.739 23.4956C50.2346 23.4956 49.0841 23.7906 48.2582 24.3805ZM59.1725 19.5427H61.2964L61.6209 20.9586C62.0339 20.4277 62.5059 20.0147 63.0958 19.7197C63.6858 19.4247 64.3053 19.2772 64.9837 19.2772C65.7507 19.2772 66.3997 19.4542 66.9896 19.7787C67.5501 20.1032 67.9926 20.5752 68.2876 21.1651C68.7596 20.5457 69.32 20.0737 69.9395 19.7492C70.559 19.4247 71.2374 19.2772 72.0044 19.2772C72.5649 19.2772 73.0663 19.3657 73.5383 19.5427C74.0103 19.7197 74.4233 19.9852 74.7477 20.3392C75.1017 20.6637 75.3672 21.0766 75.5442 21.5486C75.7212 22.0206 75.8392 22.5221 75.8392 23.0825V29.9262H73.1548V23.525C73.1548 22.935 72.9778 22.4631 72.5944 22.0796C72.2109 21.7256 71.7389 21.5191 71.1489 21.5191C70.4705 21.5191 69.91 21.7551 69.4675 22.2271C69.025 22.6991 68.8186 23.289 68.8186 24.056V29.9262H66.1342V23.525C66.1342 22.935 65.9572 22.4631 65.6032 22.0796C65.2492 21.7256 64.7773 21.5191 64.1873 21.5191C63.4793 21.5191 62.9189 21.7551 62.4764 22.2271C62.0339 22.6991 61.8274 23.289 61.8274 24.056V29.9262H59.143V19.5427H59.1725ZM85.8392 23.3775C85.9867 23.7905 86.0457 24.233 86.0457 24.705C86.0457 25.1769 85.9867 25.6489 85.8392 26.0324C85.6917 26.4159 85.5147 26.7698 85.2787 27.0648C85.0428 27.3598 84.7773 27.5958 84.4528 27.7433C84.1283 27.8908 83.7743 27.9793 83.3908 27.9793C83.0369 27.9793 82.7124 27.9203 82.4174 27.8023C82.1224 27.6843 81.8569 27.5073 81.6504 27.2713C81.4439 27.0353 81.2669 26.7698 81.1489 26.4454C81.031 26.1504 80.972 25.7964 80.972 25.4129V24.0265C80.972 23.2595 81.2079 22.6401 81.6504 22.1681C82.1224 21.6666 82.6829 21.4306 83.3908 21.4306C83.7743 21.4306 84.1283 21.4896 84.4528 21.6666C84.7773 21.8436 85.0428 22.0501 85.2787 22.3451C85.5147 22.6106 85.7212 22.9645 85.8392 23.3775ZM80.5 19.5427H78.3761V34.9999H81.031V28.7167C81.3849 29.1887 81.8274 29.5427 82.3584 29.7787C82.8599 30.0147 83.4498 30.1327 84.0693 30.1327C84.7478 30.1327 85.3967 29.9852 85.9572 29.7197C86.5177 29.4542 87.0191 29.0707 87.4321 28.5988C87.8451 28.1268 88.1696 27.5368 88.4056 26.8878C88.6416 26.2389 88.7596 25.5014 88.7596 24.705C88.7596 23.9085 88.6416 23.171 88.4056 22.5221C88.1696 21.8436 87.8451 21.2831 87.4321 20.8112C87.0191 20.3392 86.5177 19.9557 85.9572 19.6902C85.3672 19.4247 84.7478 19.2772 84.0693 19.2772C83.3908 19.2772 82.7714 19.4247 82.2109 19.6902C81.6504 19.9852 81.2079 20.3687 80.8245 20.8701L80.5 19.5427ZM9.52654 27.2714C9.11356 27.6843 8.55309 27.8613 7.84513 27.8613H4.5413V23.5841H7.84513C8.52359 23.5841 9.08407 23.7905 9.52654 24.174C9.93952 24.5575 10.146 25.0885 10.146 25.7079C10.1755 26.3569 9.96902 26.8879 9.52654 27.2714ZM4.5413 17.8023H7.57964C8.19911 17.8023 8.70059 17.9793 9.11357 18.3628C9.52655 18.7168 9.70354 19.2183 9.70354 19.8082C9.70354 20.3982 9.49705 20.8702 9.11357 21.2242C8.70059 21.5782 8.19911 21.7551 7.57964 21.7551H4.5413V17.8023ZM12.2404 23.8495C11.7979 23.2301 11.208 22.7876 10.4705 22.5221C11.0605 22.2566 11.5029 21.8731 11.8569 21.3422C12.2109 20.8112 12.3879 20.1917 12.3879 19.4838C12.3879 18.9233 12.2699 18.4218 12.0634 17.9793C11.8569 17.5074 11.5324 17.1239 11.149 16.7994C10.7655 16.4749 10.2935 16.2094 9.76253 16.0324C9.23155 15.8554 8.64159 15.767 7.99262 15.767H0.5V17.6549C1.65044 17.6549 2.5649 18.5988 2.5649 19.7492C2.5649 20.8997 1.65044 21.8436 0.5 21.8436V23.5546C1.65044 23.5546 2.5649 24.4985 2.5649 25.6489V25.9734C2.5649 27.1239 1.65044 28.0678 0.5 28.0678V29.9557H8.3171C8.99557 29.9557 9.58554 29.8672 10.146 29.6607C10.7065 29.4838 11.1785 29.2183 11.5914 28.8643C12.0044 28.5103 12.3289 28.0973 12.5354 27.6253C12.7714 27.1534 12.8894 26.6224 12.8894 26.0324C12.8894 25.177 12.6829 24.469 12.2404 23.8495ZM0.5 34.9706H77.1076V32.9647H0.5V34.9706ZM82.4174 34.9706H88.9956V32.9647H82.4174V34.9706Z" fill="#A29ACF"/>
</svg>
