<svg width="81" height="48" viewBox="0 0 81 48" fill="none" xmlns="http://www.w3.org/2000/svg">
<path fill-rule="evenodd" clip-rule="evenodd" d="M23.9661 12H1.03325C0.891822 12 0.756179 12.0561 0.656214 12.1562C0.556142 12.2562 0.5 12.3918 0.5 12.5334V35.4662C0.5 35.6076 0.556142 35.7433 0.656214 35.8432C0.756179 35.9433 0.891822 35.9995 1.03325 35.9995H23.9661C24.1076 35.9995 24.2433 35.9433 24.3432 35.8432C24.4433 35.7433 24.4995 35.6076 24.4995 35.4662V12.5334C24.4995 12.3918 24.4433 12.2562 24.3432 12.1562C24.2433 12.0561 24.1076 12 23.9661 12ZM16.4996 27.4663C16.4996 27.6078 16.4435 27.7434 16.3434 27.8435C16.2434 27.9435 16.1078 27.9997 15.9664 27.9997H9.03311C8.89168 27.9997 8.75603 27.9435 8.65596 27.8435C8.556 27.7434 8.49985 27.6078 8.49985 27.4663V20.5331C8.49985 20.3917 8.556 20.256 8.65596 20.1561C8.75603 20.056 8.89168 19.9999 9.03311 19.9999H15.9664C16.1078 19.9999 16.2434 20.056 16.3434 20.1561C16.4435 20.256 16.4996 20.3917 16.4996 20.5331V27.4663ZM71.9784 20.0007H65.0453C64.7508 20.0007 64.5119 20.2395 64.5119 20.534V27.4672C64.5119 27.7618 64.7508 28.0006 65.0453 28.0006H71.9784C72.273 28.0006 72.5118 27.7618 72.5118 27.4672V20.534C72.5118 20.2395 72.273 20.0007 71.9784 20.0007ZM57.0422 12.0006H63.9753C64.2699 12.0006 64.5087 12.2393 64.5087 12.5339V19.4671C64.5087 19.7616 64.2699 20.0004 63.9753 20.0004H57.0422C56.7476 20.0004 56.5088 19.7616 56.5088 19.4671V12.5339C56.5088 12.2393 56.7476 12.0006 57.0422 12.0006ZM79.975 12.0006H73.0418C72.7473 12.0006 72.5084 12.2393 72.5084 12.5339V19.4671C72.5084 19.7616 72.7473 20.0004 73.0418 20.0004H79.975C80.2696 20.0004 80.5083 19.7616 80.5083 19.4671V12.5339C80.5083 12.2393 80.2696 12.0006 79.975 12.0006ZM57.0422 28.0001H63.9753C64.2699 28.0001 64.5087 28.2388 64.5087 28.5333V35.4666C64.5087 35.7611 64.2699 35.9999 63.9753 35.9999H57.0422C56.7476 35.9999 56.5088 35.7611 56.5088 35.4666V28.5333C56.5088 28.2388 56.7476 28.0001 57.0422 28.0001ZM79.975 28.0001H73.0418C72.7473 28.0001 72.5084 28.2388 72.5084 28.5333V35.4666C72.5084 35.7611 72.7473 35.9999 73.0418 35.9999H79.975C80.2696 35.9999 80.5083 35.7611 80.5083 35.4666V28.5333C80.5083 28.2388 80.2696 28.0001 79.975 28.0001ZM45.0325 12.0006H51.9656C52.2601 12.0006 52.4989 12.2393 52.4989 12.5339V19.4671C52.4989 19.7616 52.2601 20.0004 51.9656 20.0004H45.0325C44.7379 20.0004 44.4991 19.7616 44.4991 19.4671V12.5339C44.4991 12.2393 44.7379 12.0006 45.0325 12.0006ZM51.9656 28.0001H45.0325C44.7379 28.0001 44.4991 28.2388 44.4991 28.5333V35.4666C44.4991 35.7611 44.7379 35.9999 45.0325 35.9999H51.9656C52.2601 35.9999 52.4989 35.7611 52.4989 35.4666V28.5333C52.4989 28.2388 52.2601 28.0001 51.9656 28.0001ZM44.3429 20.1501C44.4428 20.25 44.4991 20.3857 44.4991 20.5271V27.4604C44.4991 27.6018 44.4428 27.7374 44.3429 27.8375C44.2428 27.9375 44.1071 27.9937 43.9657 27.9937H36.4992V35.4542C36.4992 35.5956 36.443 35.7313 36.343 35.8312C36.2429 35.9313 36.1073 35.9875 35.9659 35.9875H29.0327C28.8912 35.9875 28.7555 35.9313 28.6556 35.8312C28.5555 35.7313 28.4994 35.5956 28.4994 35.4542V12.5334C28.4994 12.3918 28.5555 12.2562 28.6556 12.1562C28.7555 12.0561 28.8912 12 29.0327 12H35.9659C36.1073 12 36.2429 12.0561 36.343 12.1562C36.443 12.2562 36.4992 12.3918 36.4992 12.5334V19.9939H43.9657C44.1071 19.9939 44.2428 20.05 44.3429 20.1501Z" fill="#A29ACF"/>
</svg>
