<svg width="146" height="48" viewBox="0 0 146 48" fill="none" xmlns="http://www.w3.org/2000/svg">
<path fill-rule="evenodd" clip-rule="evenodd" d="M14.524 15.5544L8.88291 21.186L5.60052 17.9091L14.524 9L23.4505 17.912L20.1681 21.189L14.524 15.5544ZM3.28249 20.2227L6.56483 23.4996L3.28233 26.7767L0 23.4998L3.28249 20.2227ZM8.8829 25.8139L14.524 31.4455L20.1679 25.8112L23.4521 29.0863L23.4505 29.0881L14.524 37.9999L5.60028 29.0911L5.5957 29.0865L8.8829 25.8139ZM29.0483 23.501L25.7658 26.7781L22.4834 23.5011L25.7659 20.224L29.0483 23.501ZM17.8535 23.4982H17.8549L14.5241 20.1729L12.0626 22.6303H12.0623L11.7797 22.9127L11.1963 23.4952L11.1917 23.4998L11.1963 23.5046L14.5241 26.8269L17.8549 23.5016L17.8565 23.4998L17.8535 23.4982ZM41.3043 16.0269H34.1653V31.4049H41.4807C42.3445 31.4049 43.1317 31.3172 43.842 31.1415C44.5523 30.9656 45.16 30.7022 45.6655 30.3506C46.1709 29.999 46.5591 29.5595 46.83 29.0324C47.101 28.5049 47.2363 27.8899 47.2363 27.1868V27.143C47.2363 26.118 46.9805 25.3161 46.4696 24.7373C45.9584 24.1587 45.2573 23.7013 44.3667 23.3642C44.6436 23.218 44.9022 23.0421 45.1428 22.8369C45.3833 22.6321 45.5948 22.3942 45.7767 22.123C45.9591 21.852 46.105 21.5485 46.2142 21.2114C46.3237 20.8747 46.378 20.4864 46.378 20.0471V20.0031C46.378 18.9635 46.0268 18.092 45.3241 17.3888C44.416 16.4808 43.0762 16.0269 41.3043 16.0269ZM42.373 21.8596C41.9332 22.1161 41.3389 22.2439 40.5906 22.2439H37.4658V18.9926H40.8106C41.5291 18.9926 42.0793 19.1282 42.4608 19.3991C42.8421 19.6703 43.033 20.062 43.033 20.5744V20.6184C43.033 21.1894 42.813 21.6033 42.373 21.8596ZM43.2533 28.0331C42.8275 28.3043 42.241 28.4394 41.4929 28.4394V28.4397H37.4658V25.0564H41.3828C42.2631 25.0564 42.9011 25.2066 43.2973 25.5065C43.6933 25.807 43.8915 26.2133 43.8915 26.7259V26.7697C43.8915 27.3409 43.6786 27.7621 43.2533 28.0331ZM51.488 16.0269H54.8771V31.4054H51.488V16.0269ZM63.1343 16.0269H60.01V31.4054H63.3546V21.6291L70.8146 31.4054H73.6971V16.0269H70.3523V25.4957L63.1343 16.0269ZM83.9572 15.9172H87.0817L93.6836 31.4055H90.1406L88.7322 27.9565H82.2186L80.8103 31.4055H77.355L83.9572 15.9172ZM87.522 24.9683L85.4753 19.9815L83.4292 24.9683H87.522ZM100.467 16.0269H97.3418V31.4054H100.687V21.6291L108.147 31.4054H111.029V16.0269H107.684V25.4957L100.467 16.0269ZM123.225 31.6689C122.095 31.6689 121.047 31.4636 120.078 31.0539C119.11 30.6441 118.274 30.0836 117.57 29.3731C116.865 28.6628 116.315 27.8243 115.919 26.8577C115.523 25.8909 115.325 24.8583 115.325 23.7598V23.7161C115.325 22.6176 115.523 21.5889 115.919 20.6294C116.315 19.6702 116.865 18.828 117.57 18.103C118.274 17.3781 119.117 16.8066 120.1 16.3893C121.083 15.972 122.169 15.7633 123.357 15.7633C124.076 15.7633 124.732 15.8222 125.326 15.939C125.92 16.0565 126.459 16.2173 126.944 16.4223C127.428 16.6275 127.875 16.8765 128.286 17.1692C128.696 17.4624 129.078 17.7844 129.43 18.136L127.274 20.6184C126.672 20.0767 126.06 19.6516 125.436 19.3442C124.813 19.0369 124.112 18.8829 123.335 18.8829C122.689 18.8829 122.091 19.0075 121.542 19.2565C120.992 19.5055 120.518 19.8495 120.122 20.2888C119.726 20.7282 119.418 21.2373 119.198 21.8157C118.978 22.3945 118.868 23.0131 118.868 23.6721V23.7159C118.868 24.3748 118.978 24.9976 119.198 25.5831C119.418 26.1692 119.722 26.6816 120.111 27.1209C120.5 27.5602 120.969 27.9083 121.519 28.1647C122.07 28.4212 122.675 28.549 123.335 28.549C124.215 28.549 124.959 28.388 125.568 28.0657C126.177 27.7439 126.783 27.3043 127.384 26.7475L129.54 28.9226C129.144 29.3475 128.733 29.7284 128.308 30.0648C127.883 30.402 127.417 30.6911 126.911 30.9329C126.405 31.1743 125.85 31.3578 125.249 31.482C124.647 31.6063 123.973 31.6689 123.225 31.6689ZM145.126 16.0269H133.529V31.4054H145.236V28.3957H136.874V25.1661H144.136V22.1564H136.874V19.0368H145.126V16.0269Z" fill="#A29ACF"/>
</svg>
