<svg width="24" height="24" viewBox="0 0 24 24" fill="none" xmlns="http://www.w3.org/2000/svg">
<g clip-path="url(#clip0_606_52537)">
<path fill-rule="evenodd" clip-rule="evenodd" d="M1.71425 0.642822C1.12252 0.642822 0.642822 1.12252 0.642822 1.71425C0.642822 2.30599 1.12252 2.78568 1.71425 2.78568H22.2857C22.8774 2.78568 23.3571 2.30599 23.3571 1.71425C23.3571 1.12252 22.8774 0.642822 22.2857 0.642822H1.71425ZM1.71425 5.78568C1.12252 5.78568 0.642822 6.26537 0.642822 6.85711C0.642822 7.44884 1.12252 7.92854 1.71425 7.92854H3.42854C4.02027 7.92854 4.49996 7.44884 4.49996 6.85711C4.49996 6.26537 4.02027 5.78568 3.42854 5.78568H1.71425ZM19.5 6.85711C19.5 6.26537 19.9796 5.78568 20.5714 5.78568H22.2857C22.8774 5.78568 23.3571 6.26537 23.3571 6.85711C23.3571 7.44884 22.8774 7.92854 22.2857 7.92854H20.5714C19.9796 7.92854 19.5 7.44884 19.5 6.85711ZM1.71425 16.0714C1.12252 16.0714 0.642822 16.5511 0.642822 17.1428C0.642822 17.7346 1.12252 18.2143 1.71425 18.2143H3.42854C4.02027 18.2143 4.49996 17.7346 4.49996 17.1428C4.49996 16.5511 4.02027 16.0714 3.42854 16.0714H1.71425ZM19.5 17.1428C19.5 16.5511 19.9796 16.0714 20.5714 16.0714H22.2857C22.8774 16.0714 23.3571 16.5511 23.3571 17.1428C23.3571 17.7346 22.8774 18.2143 22.2857 18.2143H20.5714C19.9796 18.2143 19.5 17.7346 19.5 17.1428ZM1.71425 10.9285C1.12252 10.9285 0.642822 11.4082 0.642822 12C0.642822 12.5917 1.12252 13.0714 1.71425 13.0714H3.42854C4.02027 13.0714 4.49996 12.5917 4.49996 12C4.49996 11.4082 4.02027 10.9285 3.42854 10.9285H1.71425ZM19.5 12C19.5 11.4082 19.9796 10.9285 20.5714 10.9285H22.2857C22.8774 10.9285 23.3571 11.4082 23.3571 12C23.3571 12.5917 22.8774 13.0714 22.2857 13.0714H20.5714C19.9796 13.0714 19.5 12.5917 19.5 12ZM1.71425 21.2142C1.12252 21.2142 0.642822 21.6939 0.642822 22.2857C0.642822 22.8774 1.12252 23.3571 1.71425 23.3571H22.2857C22.8774 23.3571 23.3571 22.8774 23.3571 22.2857C23.3571 21.6939 22.8774 21.2142 22.2857 21.2142H1.71425ZM12 5.99996C11.0295 5.99996 10.0875 6.08868 9.2 6.18759C7.61741 6.36399 6.34733 7.63208 6.17751 9.21924C6.083 10.1026 5.99996 11.0374 5.99996 12C5.99996 12.9626 6.083 13.8973 6.17751 14.7807C6.34733 16.3678 7.61741 17.6359 9.2 17.8124C10.0875 17.9113 11.0295 18 12 18C12.9704 18 13.9125 17.9113 14.7999 17.8124C16.3825 17.6359 17.6527 16.3678 17.8224 14.7807C17.917 13.8973 18 12.9626 18 12C18 11.0374 17.917 10.1026 17.8224 9.21924C17.6527 7.63208 16.3825 6.36399 14.7999 6.18759C13.9125 6.08868 12.9704 5.99996 12 5.99996Z" fill="#812BE0"/>
</g>
<defs>
<clipPath id="clip0_606_52537">
<rect width="24" height="24" fill="white"/>
</clipPath>
</defs>
</svg>
