<svg width="25" height="24" viewBox="0 0 25 24" fill="none" xmlns="http://www.w3.org/2000/svg">
<path fill-rule="evenodd" clip-rule="evenodd" d="M7.05603 0.999849C8.79207 0.806343 10.6208 0.634521 12.5003 0.634521C14.3799 0.634521 16.2086 0.806343 17.9446 0.999849C20.8635 1.32521 23.2073 3.66595 23.5203 6.59203C23.7053 8.3196 23.8661 10.1351 23.8661 12.0003C23.8661 13.8656 23.7053 15.6811 23.5203 17.4086C23.2073 20.3347 20.8635 22.6754 17.9446 23.0008C16.2086 23.1943 14.3799 23.3661 12.5003 23.3661C10.6208 23.3661 8.79207 23.1943 7.05603 23.0008C4.1371 22.6754 1.79335 20.3347 1.48029 17.4086C1.29546 15.6811 1.13452 13.8656 1.13452 12.0003C1.13452 10.1351 1.29546 8.3196 1.48029 6.59203C1.79335 3.66595 4.13708 1.32521 7.05603 0.999849ZM18.5816 7.28921C18.5816 8.65862 17.4714 9.76874 16.102 9.76874C14.7326 9.76874 13.6225 8.65862 13.6225 7.28921C13.6225 5.91981 14.7326 4.80969 16.102 4.80969C17.4714 4.80969 18.5816 5.91981 18.5816 7.28921ZM7.96081 20.5084C5.97372 20.2569 4.37473 18.4409 4.16202 16.1833C4.05536 15.0511 3.95996 13.8983 3.90975 12.7286C3.89156 12.3048 4.19312 11.9324 4.6152 11.8908C4.93705 11.8592 5.26016 11.8437 5.58358 11.8447C7.99098 11.7829 10.3394 12.6944 12.2099 14.4167C13.7242 15.811 14.8455 17.6633 15.4533 19.7443C15.5959 20.2325 15.2455 20.7146 14.7386 20.7564C13.9993 20.8173 13.2518 20.8557 12.4973 20.8557C10.9522 20.8557 9.43678 20.6952 7.96081 20.5084ZM17.7955 20.3306C17.5619 20.411 17.326 20.247 17.2792 20.0045C17.0395 18.7612 16.5419 17.2247 15.6384 15.8827C15.4688 15.6308 15.5829 15.2775 15.8793 15.2113C16.5771 15.0555 17.2884 14.9773 18.0032 14.9791C18.87 14.9785 19.7324 15.0968 20.5719 15.3305C20.7655 15.3844 20.8889 15.5708 20.8707 15.7707C20.8582 15.9086 20.8454 16.0461 20.8325 16.1834C20.6477 18.144 19.4175 19.7716 17.7955 20.3306Z" fill="#812BE0"/>
</svg>
