<svg width="25" height="24" viewBox="0 0 25 24" fill="none" xmlns="http://www.w3.org/2000/svg">
<path fill-rule="evenodd" clip-rule="evenodd" d="M6.73045 0.587646C4.07084 0.587646 1.91479 2.74368 1.91479 5.40331C1.91479 8.06292 4.07084 10.219 6.73045 10.219C9.39006 10.219 11.5461 8.06292 11.5461 5.40331C11.5461 2.74368 9.39006 0.587646 6.73045 0.587646ZM17.5336 3.02954C15.5483 3.02954 13.9389 4.63898 13.9389 6.62431C13.9389 8.60964 15.5483 10.2191 17.5336 10.2191C19.5189 10.2191 21.1283 8.60964 21.1283 6.62431C21.1283 4.63898 19.5189 3.02954 17.5336 3.02954ZM23.0092 13.2762C22.7667 13.1179 22.4605 13.0929 22.1954 13.2096L21.8308 13.3704C21.6018 13.4714 21.2797 13.6136 20.9063 13.7787C20.4645 13.974 19.9509 14.2015 19.4356 14.4305L19.4029 14.2096C19.2237 13.004 18.2346 12.0694 17.0177 11.964L16.5814 11.926H16.5814C15.2044 11.8054 13.7369 11.6769 12.2282 11.6769C10.7194 11.6769 9.25196 11.8054 7.87496 11.926L7.43869 11.964C6.22177 12.0694 5.23259 13.004 5.0535 14.2096C4.90037 15.2405 4.73545 16.3733 4.73545 17.5445C4.73545 18.7159 4.90037 19.8485 5.0535 20.8795C5.23259 22.0852 6.22177 23.0198 7.43869 23.1251L7.85885 23.1617L7.87494 23.1631C9.25194 23.2838 10.7194 23.4122 12.2282 23.4122C13.7369 23.4122 15.2044 23.2838 16.5814 23.1631L17.0177 23.1251C18.2346 23.0198 19.2237 22.0852 19.4029 20.8795L19.4355 20.6589C19.9509 20.8877 20.4645 21.1152 20.9063 21.3107C21.2797 21.4757 21.6018 21.6179 21.8308 21.7188L22.1954 21.8796C22.4605 21.9964 22.7667 21.9713 23.0092 21.8131C23.2518 21.6549 23.398 21.3849 23.398 21.0952V13.9941C23.398 13.7044 23.2518 13.4344 23.0092 13.2762Z" fill="#812BE0"/>
</svg>
